<?xml version="1.0" encoding="utf-8"?>
<svg viewBox="0 16.8334 1023.9996 341.3332" xmlns="http://www.w3.org/2000/svg">
  <defs>
    <clipPath id="clippath0" transform="">
      <path d="M 0.000011405 0 L 765.360011405 0 L 765.360011405 255.12 L 0.000011405 255.12 Z" style="fill: none; clip-rule: evenodd;"/>
    </clipPath>
    <clipPath id="clippath1" transform="">
      <path d="M 0.000011405 0 L 765.360011405 0 L 765.360011405 255.12 L 0.000011405 255.12 Z" style="fill: none; clip-rule: evenodd;"/>
    </clipPath>
  </defs>
  <g style="clip-path: url('#clippath0');" transform="matrix(1.337931990623474, 0, 0, -1.3379319906234741, -0.000015000001894804882, 358.1666030495237)">
    <path d="M 0 -12.582 L 765.36 -12.582 L 765.36 267.702 L 0 267.702 L 0 -12.582 Z" style="fill: none;"/>
    <g transform="">
      <title>bitcoin</title>
      <path d="M 67.053 -85.936 Q 74.734 -85.936 80.335 -83.216 Q 85.936 -80.495 89.617 -75.854 Q 93.297 -71.213 95.058 -64.972 Q 96.818 -58.731 96.818 -51.53 Q 96.818 -40.488 92.737 -30.646 Q 88.657 -20.804 81.615 -13.523 Q 74.574 -6.241 64.972 -2 Q 55.37 2.24 44.168 2.24 Q 42.728 2.24 39.127 2.16 Q 35.527 2.08 30.886 1.44 Q 26.245 0.8 21.044 -0.48 Q 15.843 -1.76 11.202 -4.001 L 38.887 -120.343 L 63.692 -124.183 L 53.77 -82.896 Q 56.971 -84.336 60.171 -85.136 Q 63.372 -85.936 67.053 -85.936 Z M 46.249 -17.443 Q 51.85 -17.443 56.811 -20.164 Q 61.772 -22.884 65.372 -27.445 Q 68.973 -32.006 71.053 -37.767 Q 73.134 -43.528 73.134 -49.769 Q 73.134 -57.451 70.573 -61.772 Q 68.013 -66.092 61.131 -66.092 Q 58.891 -66.092 55.29 -65.292 Q 51.69 -64.492 48.809 -61.932 L 38.247 -18.083 Q 39.207 -17.923 39.927 -17.763 Q 40.648 -17.603 41.448 -17.523 Q 42.248 -17.443 43.368 -17.443 Q 44.488 -17.443 46.249 -17.443 Z M 126.904 0 L 103.219 0 L 123.223 -84.176 L 147.068 -84.176 Z M 138.426 -94.418 Q 133.465 -94.418 129.464 -97.378 Q 125.464 -100.339 125.464 -106.42 Q 125.464 -109.781 126.824 -112.741 Q 128.184 -115.702 130.425 -117.862 Q 132.665 -120.023 135.625 -121.303 Q 138.586 -122.583 141.947 -122.583 Q 146.908 -122.583 150.908 -119.622 Q 154.909 -116.662 154.909 -110.581 Q 154.909 -107.22 153.549 -104.26 Q 152.189 -101.299 149.948 -99.139 Q 147.708 -96.978 144.747 -95.698 Q 141.787 -94.418 138.426 -94.418 Z M 171.392 -105.14 L 196.197 -108.98 L 190.116 -84.176 L 216.681 -84.176 L 211.88 -64.652 L 185.475 -64.652 L 178.434 -35.207 Q 177.474 -31.526 177.233 -28.325 Q 176.993 -25.125 178.034 -22.804 Q 179.074 -20.484 181.634 -19.204 Q 184.195 -17.923 188.676 -17.923 Q 192.516 -17.923 196.117 -18.643 Q 199.718 -19.364 203.398 -20.644 L 205.159 -2.4 Q 200.358 -0.64 194.757 0.64 Q 189.156 1.92 181.474 1.92 Q 170.432 1.92 164.351 -1.36 Q 158.27 -4.641 155.709 -10.322 Q 153.149 -16.003 153.469 -23.364 Q 153.789 -30.726 155.709 -38.887 Z M 219.881 -33.606 Q 219.881 -44.488 223.402 -54.09 Q 226.922 -63.692 233.484 -70.893 Q 240.045 -78.095 249.407 -82.255 Q 258.768 -86.416 270.29 -86.416 Q 277.492 -86.416 283.173 -85.056 Q 288.854 -83.696 293.495 -81.455 L 285.333 -62.892 Q 282.133 -64.172 278.692 -65.212 Q 275.251 -66.252 270.29 -66.252 Q 258.288 -66.252 251.407 -58.171 Q 244.526 -50.089 244.526 -36.167 Q 244.526 -28.005 248.046 -22.964 Q 251.567 -17.923 261.009 -17.923 Q 265.65 -17.923 269.97 -18.884 Q 274.291 -19.844 277.652 -21.284 L 279.412 -2.24 Q 274.931 -0.48 269.57 0.88 Q 264.209 2.24 256.528 2.24 Q 246.606 2.24 239.725 -0.64 Q 232.843 -3.521 228.363 -8.402 Q 223.882 -13.282 221.881 -19.844 Q 219.881 -26.405 219.881 -33.606 Z M 329.982 2.24 Q 321.501 2.24 315.259 -0.32 Q 309.018 -2.881 304.938 -7.521 Q 300.857 -12.162 298.776 -18.483 Q 296.696 -24.805 296.696 -32.486 Q 296.696 -42.088 299.817 -51.69 Q 302.937 -61.291 309.018 -68.973 Q 315.099 -76.654 323.901 -81.535 Q 332.703 -86.416 344.065 -86.416 Q 352.386 -86.416 358.708 -83.856 Q 365.029 -81.295 369.11 -76.654 Q 373.19 -72.014 375.271 -65.692 Q 377.351 -59.371 377.351 -51.69 Q 377.351 -42.088 374.311 -32.486 Q 371.27 -22.884 365.349 -15.203 Q 359.428 -7.521 350.546 -2.64 Q 341.664 2.24 329.982 2.24 Z M 341.824 -66.252 Q 336.543 -66.252 332.543 -63.212 Q 328.542 -60.171 325.821 -55.53 Q 323.101 -50.89 321.741 -45.369 Q 320.38 -39.847 320.38 -34.887 Q 320.38 -26.725 322.941 -22.324 Q 325.501 -17.923 332.223 -17.923 Q 337.504 -17.923 341.504 -20.964 Q 345.505 -24.005 348.226 -28.645 Q 350.946 -33.286 352.306 -38.807 Q 353.667 -44.328 353.667 -49.289 Q 353.667 -57.451 351.106 -61.852 Q 348.546 -66.252 341.824 -66.252 Z M 407.437 0 L 383.752 0 L 403.756 -84.176 L 427.6 -84.176 Z M 418.959 -94.418 Q 413.998 -94.418 409.997 -97.378 Q 405.996 -100.339 405.996 -106.42 Q 405.996 -109.781 407.357 -112.741 Q 408.717 -115.702 410.957 -117.862 Q 413.198 -120.023 416.158 -121.303 Q 419.119 -122.583 422.479 -122.583 Q 427.44 -122.583 431.441 -119.622 Q 435.442 -116.662 435.442 -110.581 Q 435.442 -107.22 434.082 -104.26 Q 432.721 -101.299 430.481 -99.139 Q 428.24 -96.978 425.28 -95.698 Q 422.319 -94.418 418.959 -94.418 Z M 448.404 -80.335 Q 451.124 -81.135 454.405 -82.175 Q 457.685 -83.216 461.766 -84.096 Q 465.847 -84.976 470.888 -85.536 Q 475.929 -86.096 482.33 -86.096 Q 501.214 -86.096 508.255 -75.214 Q 515.296 -64.332 510.655 -45.449 L 499.773 0 L 475.929 0 L 486.491 -44.488 Q 487.451 -48.649 488.011 -52.57 Q 488.571 -56.491 487.931 -59.451 Q 487.291 -62.412 484.971 -64.252 Q 482.65 -66.092 477.849 -66.092 Q 473.208 -66.092 468.407 -65.132 L 452.885 0 L 429.04 0 Z" transform="matrix(1, 0, 0, -1, 225.170018, 98.807993)" style="fill: rgb(77, 77, 77);"/>
    </g>
    <g style="clip-path: url('#clippath1');">
      <title>salamaverkko</title>
      <g transform="">
        <path d="M 18.312 -8.054 Q 22.187 -8.054 23.631 -9.156 Q 25.075 -10.258 25.075 -11.55 Q 25.075 -12.385 24.809 -12.993 Q 24.543 -13.601 23.935 -14.133 Q 23.327 -14.665 22.263 -15.235 Q 21.2 -15.805 19.528 -16.565 Q 17.628 -17.4 15.957 -18.35 Q 14.285 -19.3 13.031 -20.63 Q 11.778 -21.959 11.056 -23.669 Q 10.334 -25.379 10.334 -27.734 Q 10.334 -33.889 14.855 -37.46 Q 19.376 -41.031 28.038 -41.031 Q 32.141 -41.031 35.333 -40.12 Q 38.524 -39.208 40.499 -38.144 L 36.624 -29.71 Q 35.029 -30.546 32.521 -31.305 Q 30.014 -32.065 27.582 -32.065 Q 26.518 -32.065 25.493 -31.951 Q 24.467 -31.837 23.593 -31.457 Q 22.719 -31.077 22.187 -30.394 Q 21.655 -29.71 21.655 -28.57 Q 21.655 -27.05 22.833 -26.29 Q 24.011 -25.531 26.138 -24.467 Q 29.102 -23.023 31.077 -21.807 Q 33.053 -20.592 34.231 -19.224 Q 35.409 -17.856 35.94 -16.109 Q 36.472 -14.361 36.472 -12.005 Q 36.472 -9.574 35.447 -7.218 Q 34.421 -4.863 32.217 -3.039 Q 30.014 -1.216 26.594 -0.076 Q 23.175 1.064 18.388 1.064 Q 15.425 1.064 13.031 0.684 Q 10.638 0.304 8.814 -0.266 Q 6.991 -0.836 5.737 -1.444 Q 4.483 -2.052 3.799 -2.431 L 7.674 -11.094 Q 8.966 -10.334 11.702 -9.194 Q 14.437 -8.054 18.312 -8.054 Z M 79.479 -17.248 Q 78.416 -12.917 78.871 -8.548 Q 79.327 -4.179 80.619 -0.76 L 70.513 0.684 Q 70.057 -0.228 69.677 -1.064 Q 69.297 -1.9 68.918 -2.963 Q 66.79 -1.216 64.207 -0.076 Q 61.623 1.064 58.432 1.064 Q 54.633 1.064 51.935 -0.266 Q 49.238 -1.596 47.528 -3.837 Q 45.818 -6.079 45.059 -9.08 Q 44.299 -12.081 44.299 -15.501 Q 44.299 -20.744 46.16 -25.379 Q 48.022 -30.014 51.327 -33.471 Q 54.633 -36.928 59.116 -38.904 Q 63.599 -40.879 68.842 -40.879 Q 69.525 -40.879 71.235 -40.803 Q 72.945 -40.727 75.148 -40.461 Q 77.352 -40.196 79.783 -39.588 Q 82.215 -38.98 84.418 -37.916 Z M 71.577 -31.229 Q 70.589 -31.381 69.791 -31.457 Q 68.993 -31.533 67.854 -31.533 Q 65.27 -31.533 63.029 -30.242 Q 60.787 -28.95 59.116 -26.86 Q 57.444 -24.771 56.494 -22.035 Q 55.544 -19.3 55.544 -16.337 Q 55.544 -12.689 56.76 -10.562 Q 57.976 -8.434 61.243 -8.434 Q 62.991 -8.434 64.396 -9.118 Q 65.802 -9.802 67.398 -11.398 Q 67.55 -13.297 67.892 -15.387 Q 68.234 -17.476 68.614 -19.224 Z M 103.262 0.76 Q 97.867 0.76 94.79 -0.646 Q 91.713 -2.052 90.383 -4.483 Q 89.053 -6.915 89.091 -10.068 Q 89.129 -13.221 89.965 -16.792 L 99.615 -57.14 L 111.393 -58.964 L 100.831 -15.197 Q 100.527 -13.829 100.489 -12.689 Q 100.451 -11.55 100.907 -10.676 Q 101.363 -9.802 102.464 -9.27 Q 103.566 -8.738 105.542 -8.586 Z M 148.093 -17.248 Q 147.029 -12.917 147.485 -8.548 Q 147.941 -4.179 149.233 -0.76 L 139.127 0.684 Q 138.671 -0.228 138.291 -1.064 Q 137.911 -1.9 137.531 -2.963 Q 135.404 -1.216 132.82 -0.076 Q 130.237 1.064 127.045 1.064 Q 123.246 1.064 120.549 -0.266 Q 117.851 -1.596 116.142 -3.837 Q 114.432 -6.079 113.672 -9.08 Q 112.912 -12.081 112.912 -15.501 Q 112.912 -20.744 114.774 -25.379 Q 116.636 -30.014 119.941 -33.471 Q 123.246 -36.928 127.729 -38.904 Q 132.212 -40.879 137.455 -40.879 Q 138.139 -40.879 139.849 -40.803 Q 141.558 -40.727 143.762 -40.461 Q 145.965 -40.196 148.397 -39.588 Q 150.828 -38.98 153.032 -37.916 Z M 140.191 -31.229 Q 139.203 -31.381 138.405 -31.457 Q 137.607 -31.533 136.467 -31.533 Q 133.884 -31.533 131.642 -30.242 Q 129.401 -28.95 127.729 -26.86 Q 126.058 -24.771 125.108 -22.035 Q 124.158 -19.3 124.158 -16.337 Q 124.158 -12.689 125.374 -10.562 Q 126.59 -8.434 129.857 -8.434 Q 131.604 -8.434 133.01 -9.118 Q 134.416 -9.802 136.012 -11.398 Q 136.164 -13.297 136.505 -15.387 Q 136.847 -17.476 137.227 -19.224 Z M 164.505 -38.144 Q 165.797 -38.524 167.278 -39.018 Q 168.76 -39.512 170.622 -39.93 Q 172.483 -40.348 174.801 -40.613 Q 177.118 -40.879 180.158 -40.879 Q 183.805 -40.879 186.198 -39.968 Q 188.592 -39.056 190.567 -37.232 Q 193.379 -38.828 196.152 -39.854 Q 198.926 -40.879 202.649 -40.879 Q 206.22 -40.879 208.766 -39.93 Q 211.311 -38.98 212.983 -37.194 Q 214.654 -35.409 215.414 -32.939 Q 216.174 -30.47 216.174 -27.506 Q 216.174 -26.138 215.984 -24.619 Q 215.794 -23.099 215.414 -21.579 L 210.247 0 L 198.926 0 L 203.941 -21.124 Q 204.169 -22.187 204.435 -23.517 Q 204.7 -24.847 204.7 -26.138 Q 204.7 -28.266 203.713 -29.824 Q 202.725 -31.381 199.838 -31.381 Q 198.242 -31.381 196.798 -30.812 Q 195.354 -30.242 194.215 -29.634 Q 194.367 -29.026 194.367 -28.494 Q 194.367 -27.962 194.367 -27.506 Q 194.367 -26.138 194.177 -24.619 Q 193.987 -23.099 193.607 -21.579 L 188.44 0 L 177.118 0 L 182.133 -21.124 Q 182.361 -22.187 182.627 -23.517 Q 182.893 -24.847 182.893 -26.138 Q 182.893 -28.266 181.905 -29.824 Q 180.917 -31.381 178.03 -31.381 Q 176.814 -31.381 175.979 -31.267 Q 175.143 -31.153 174.003 -30.925 L 166.633 0 L 155.311 0 Z M 257.054 -17.248 Q 255.99 -12.917 256.446 -8.548 Q 256.902 -4.179 258.194 -0.76 L 248.088 0.684 Q 247.632 -0.228 247.252 -1.064 Q 246.872 -1.9 246.492 -2.963 Q 244.365 -1.216 241.781 -0.076 Q 239.198 1.064 236.006 1.064 Q 232.207 1.064 229.51 -0.266 Q 226.812 -1.596 225.103 -3.837 Q 223.393 -6.079 222.633 -9.08 Q 221.873 -12.081 221.873 -15.501 Q 221.873 -20.744 223.735 -25.379 Q 225.597 -30.014 228.902 -33.471 Q 232.207 -36.928 236.69 -38.904 Q 241.173 -40.879 246.416 -40.879 Q 247.1 -40.879 248.81 -40.803 Q 250.519 -40.727 252.723 -40.461 Q 254.926 -40.196 257.358 -39.588 Q 259.789 -38.98 261.993 -37.916 Z M 249.152 -31.229 Q 248.164 -31.381 247.366 -31.457 Q 246.568 -31.533 245.428 -31.533 Q 242.845 -31.533 240.603 -30.242 Q 238.362 -28.95 236.69 -26.86 Q 235.019 -24.771 234.069 -22.035 Q 233.119 -19.3 233.119 -16.337 Q 233.119 -12.689 234.335 -10.562 Q 235.551 -8.434 238.818 -8.434 Q 240.565 -8.434 241.971 -9.118 Q 243.377 -9.802 244.973 -11.398 Q 245.124 -13.297 245.466 -15.387 Q 245.808 -17.476 246.188 -19.224 Z M 274.226 0 Q 272.25 -7.598 270.655 -17.742 Q 269.059 -27.886 268.451 -39.968 L 280.153 -39.968 Q 280.229 -37.004 280.38 -33.471 Q 280.532 -29.938 280.76 -26.366 Q 280.988 -22.795 281.292 -19.414 Q 281.596 -16.033 281.976 -13.297 Q 283.648 -15.577 285.737 -18.92 Q 287.827 -22.263 289.803 -25.911 Q 291.778 -29.558 293.45 -33.243 Q 295.121 -36.928 296.033 -39.968 L 308.039 -39.968 Q 306.063 -34.573 303.138 -28.874 Q 300.212 -23.175 296.869 -17.856 Q 293.526 -12.537 290.068 -7.902 Q 286.611 -3.267 283.648 0 Z M 308.039 -15.653 Q 308.039 -20.516 309.749 -25.075 Q 311.459 -29.634 314.574 -33.167 Q 317.689 -36.7 322.134 -38.866 Q 326.58 -41.031 331.974 -41.031 Q 334.634 -41.031 336.913 -40.272 Q 339.193 -39.512 340.902 -38.068 Q 342.612 -36.624 343.562 -34.535 Q 344.512 -32.445 344.512 -29.786 Q 344.512 -25.531 342.612 -22.567 Q 340.713 -19.604 337.331 -17.742 Q 333.95 -15.881 329.315 -15.045 Q 324.68 -14.209 319.209 -14.209 Q 319.741 -11.018 321.527 -9.688 Q 323.312 -8.358 327.187 -8.358 Q 329.619 -8.358 332.126 -8.776 Q 334.634 -9.194 336.837 -10.03 L 337.673 -1.14 Q 335.546 -0.304 332.24 0.38 Q 328.935 1.064 325.06 1.064 Q 320.349 1.064 317.119 -0.266 Q 313.89 -1.596 311.877 -3.875 Q 309.863 -6.155 308.951 -9.194 Q 308.039 -12.233 308.039 -15.653 Z M 330.151 -32.065 Q 326.276 -32.065 323.35 -29.292 Q 320.425 -26.518 319.513 -21.959 Q 324.224 -22.111 327.111 -22.757 Q 329.999 -23.403 331.594 -24.315 Q 333.19 -25.227 333.722 -26.29 Q 334.254 -27.354 334.254 -28.418 Q 334.254 -32.065 330.151 -32.065 Z M 376.576 -30.242 Q 375.057 -30.622 373.575 -30.963 Q 372.093 -31.305 369.206 -31.305 Q 368.142 -31.305 366.851 -31.115 Q 365.559 -30.925 364.723 -30.698 L 357.353 0 L 346.031 0 L 355.149 -37.84 Q 358.416 -38.904 362.481 -39.854 Q 366.547 -40.803 371.637 -40.803 Q 373.537 -40.803 375.855 -40.461 Q 378.172 -40.12 379.92 -39.36 Z M 395.8 -25.531 Q 400.359 -29.178 404.386 -32.977 Q 408.414 -36.776 411.301 -39.968 L 424.066 -39.968 Q 419.811 -35.257 415.214 -30.736 Q 410.617 -26.214 404.69 -21.124 Q 406.286 -19.148 407.92 -16.565 Q 409.553 -13.981 411.035 -11.17 Q 412.517 -8.358 413.77 -5.471 Q 415.024 -2.583 415.86 0 L 403.247 0 Q 402.563 -1.976 401.537 -4.331 Q 400.511 -6.687 399.257 -9.004 Q 398.004 -11.322 396.636 -13.525 Q 395.268 -15.729 393.901 -17.476 L 389.646 0 L 378.4 0 L 392.077 -57.14 L 403.855 -58.964 Z M 438.427 -25.531 Q 442.986 -29.178 447.013 -32.977 Q 451.041 -36.776 453.928 -39.968 L 466.693 -39.968 Q 462.438 -35.257 457.841 -30.736 Q 453.244 -26.214 447.317 -21.124 Q 448.913 -19.148 450.547 -16.565 Q 452.18 -13.981 453.662 -11.17 Q 455.144 -8.358 456.397 -5.471 Q 457.651 -2.583 458.487 0 L 445.874 0 Q 445.19 -1.976 444.164 -4.331 Q 443.138 -6.687 441.884 -9.004 Q 440.631 -11.322 439.263 -13.525 Q 437.895 -15.729 436.528 -17.476 L 432.273 0 L 421.027 0 L 434.704 -57.14 L 446.482 -58.964 Z M 481.435 1.064 Q 477.408 1.064 474.445 -0.152 Q 471.481 -1.368 469.544 -3.571 Q 467.606 -5.775 466.618 -8.776 Q 465.63 -11.778 465.63 -15.425 Q 465.63 -19.984 467.112 -24.543 Q 468.594 -29.102 471.481 -32.749 Q 474.369 -36.396 478.548 -38.714 Q 482.727 -41.031 488.122 -41.031 Q 492.073 -41.031 495.074 -39.816 Q 498.076 -38.6 500.013 -36.396 Q 501.951 -34.193 502.939 -31.191 Q 503.926 -28.19 503.926 -24.543 Q 503.926 -19.984 502.483 -15.425 Q 501.039 -10.866 498.228 -7.218 Q 495.416 -3.571 491.199 -1.254 Q 486.982 1.064 481.435 1.064 Z M 487.058 -31.457 Q 484.55 -31.457 482.651 -30.014 Q 480.751 -28.57 479.46 -26.366 Q 478.168 -24.163 477.522 -21.541 Q 476.876 -18.92 476.876 -16.565 Q 476.876 -12.689 478.092 -10.6 Q 479.308 -8.51 482.499 -8.51 Q 485.006 -8.51 486.906 -9.954 Q 488.806 -11.398 490.097 -13.601 Q 491.389 -15.805 492.035 -18.426 Q 492.681 -21.048 492.681 -23.403 Q 492.681 -27.278 491.465 -29.368 Q 490.249 -31.457 487.058 -31.457 Z" transform="matrix(1, 0, 0, -1, 221.330007, 26.736001)" style="fill: rgb(77, 77, 77);"/>
      </g>
    </g>
    <g transform="matrix(3.906464, 0, 0, 3.906464, 0, 14.640004)">
      <title>icon</title>
      <path d="M 0.085236 0.034412 L 61.525236 0.034412 L 61.525236 61.474412 L 0.085236 61.474412 Z" style="fill: none;">
        <title>Area</title>
      </path>
      <path d="M 42.958 13.932 C 42.257 14.324 45.748 18.978 49.348 24.007 C 52.947 29.036 55.38 32.841 56.138 33.966 C 56.895 35.092 57.014 35.064 56.615 36.893 C 56.216 38.723 55.946 39.507 55.31 41.012 C 53.625 45.004 51.356 48.203 48.263 50.771 C 45.168 53.339 41.545 55.417 37.686 56.411 C 33.828 57.404 29.955 57.6 25.978 56.868 C 22.002 56.137 17.91 54.133 14.46 51.525 C 9.7314 47.948 6.7248 42.819 5.4331 38.573 C 4.1414 34.326 4.254 27.708 5.8242 22.946 C 7.3945 18.184 9.4566 14.378 13.266 10.94 C 17.074 7.5015 22.067 5.1851 27.798 4.4642 C 29.236 4.2831 30.912 4.2831 32.374 4.356 C 33.838 4.429 35.25 4.6593 36.689 4.9724 C 38.127 5.2854 39.522 5.6841 40.882 6.2232 C 42.243 6.7624 43.527 7.5544 44.783 8.2631 C 47.058 9.545 48.904 12.759 48.771 12.853 C 48.503 13.048 45.112 12.729 42.958 13.932 Z" style="fill: rgb(247, 147, 26); fill-opacity: 1;">
        <title>ball</title>
      </path>
      <path d="M 56.299 31.589 C 56.299 31.589 57.702 34.396 57.186 30.862 C 57.095 30.24 54.622 19.367 54.622 19.367 C 54.622 19.364 59.415 19.073 59.415 19.073 C 60.284 19.082 59.863 18.441 59.863 18.441 L 47.08 1.7837 C 45.242 -0.73506 46.112 2.2256 46.137 2.6584 C 48.372 9.1353 49.709 12.805 50.151 13.657 C 50.151 13.657 44.504 14.38 44.536 14.84 L 44.536 14.923 C 44.554 15.136 45.986 17.173 48.841 21.03 C 53.152 27.091 48.851 21.013 56.299 31.589 Z" style="fill: rgb(247, 147, 26); fill-opacity: 1;">
        <title>bolt</title>
      </path>
      <path d="M 44.291 34.152 C 44.855 37.798 41.984 39.758 38.057 41.064 L 39.334 46.001 L 36.221 46.751 L 34.982 41.945 C 34.165 42.14 33.325 42.325 32.491 42.509 L 33.74 47.352 L 30.633 48.096 L 29.357 43.166 C 28.681 43.312 28.016 43.458 27.372 43.614 L 27.374 43.63 L 23.087 44.662 L 22.261 41.454 C 22.261 41.454 24.565 40.942 24.518 40.91 C 25.778 40.608 26.006 39.803 25.967 39.163 L 22.476 25.636 C 22.325 25.268 21.934 24.713 21.05 24.925 C 21.084 24.88 18.792 25.467 18.792 25.467 L 17.248 22.029 L 21.294 21.053 C 22.047 20.873 22.787 20.68 23.514 20.502 L 22.225 15.508 L 25.332 14.758 L 26.604 19.699 C 27.454 19.477 28.277 19.271 29.084 19.078 L 27.813 14.157 L 30.923 13.412 L 32.21 18.394 C 37.511 17.427 41.499 17.817 43.18 22.453 C 44.528 26.182 43.113 28.338 40.319 29.741 C 42.351 30.194 43.882 31.487 44.291 34.152 Z M 37.187 24.525 C 36.224 20.792 29.723 22.809 27.614 23.314 L 29.324 29.932 C 31.432 29.424 38.193 28.419 37.187 24.525 Z M 38.147 34.208 C 37.27 30.811 31.862 32.538 30.104 32.961 L 31.654 38.961 C 33.407 38.538 39.062 37.75 38.147 34.208 Z" style="fill: rgb(250, 250, 250); fill-opacity: 1;">
        <title>B</title>
      </path>
    </g>
  </g>
</svg>