<?xml version="1.0" encoding="utf-8"?>
<svg viewBox="0 0 1024 340" xmlns="http://www.w3.org/2000/svg">
  <defs>
    <clipPath id="clip0">
      <rect x="0" y="0" width="1021" height="340"/>
    </clipPath>
  </defs>
  <rect x="0" y="0" width="1024" height="340" fill="#156082" fill-opacity="0"/>
  <g clip-path="url(#clip0)">
    <text fill="#4D4D4D" font-family="Ubuntu,Ubuntu_MSFontService,sans-serif" font-style="italic" font-weight="700" font-size="213" transform="matrix(1 0 0 0.999021 300.296 208)" style="white-space: pre;">bitcoin</text>
    <text fill="#4D4D4D" font-family="Ubuntu,Ubuntu_MSFontService,sans-serif" font-style="italic" font-weight="700" font-size="80" transform="matrix(1 0 0 0.999021 303.349 296)" style="white-space: pre;">lightning network</text>
    <g>
      <g>
        <g>
          <path d="M1258.05 1429.12C1254.52 1427.07 1272.13 1402.78 1290.29 1376.53 1308.44 1350.28 1320.72 1330.42 1324.54 1324.55 1328.36 1318.67 1328.96 1318.82 1326.95 1309.27 1324.93 1299.72 1323.58 1295.63 1320.37 1287.77 1311.86 1266.94 1300.42 1250.24 1284.81 1236.84 1269.2 1223.43 1250.92 1212.59 1231.46 1207.4 1211.99 1202.21 1192.46 1201.19 1172.39 1205.01 1152.33 1208.83 1131.69 1219.29 1114.29 1232.9 1090.43 1251.57 1075.26 1278.34 1068.75 1300.51 1062.23 1322.67 1062.8 1357.21 1070.72 1382.07 1078.64 1406.92 1089.05 1426.79 1108.26 1444.73 1127.47 1462.68 1152.66 1474.77 1181.57 1478.53 1188.83 1479.48 1197.28 1479.48 1204.66 1479.1 1212.05 1478.72 1219.17 1477.51 1226.42 1475.88 1233.68 1474.25 1240.72 1472.17 1247.58 1469.35 1254.45 1466.54 1260.92 1462.4 1267.26 1458.71 1278.74 1452.01 1288.05 1435.24 1287.38 1434.75 1286.03 1433.73 1268.92 1435.4 1258.05 1429.12Z" fill="#F7931A" transform="matrix(1.03565 0 0 1 -1078.91 -1180.97)"/>
          <path d="M1325.35 1336.95C1325.35 1336.95 1332.43 1322.3 1329.83 1340.75 1329.37 1344 1316.89 1400.75 1316.89 1400.75 1316.89 1400.76 1341.08 1402.28 1341.08 1402.28 1345.46 1402.24 1343.33 1405.58 1343.33 1405.58L1278.85 1492.52C1269.57 1505.67 1273.96 1490.22 1274.09 1487.96 1285.37 1454.15 1292.11 1435 1294.34 1430.55 1294.34 1430.55 1265.85 1426.78 1266.01 1424.38L1266.01 1423.94C1266.1 1422.83 1273.33 1412.2 1287.73 1392.07 1309.48 1360.43 1287.78 1392.16 1325.35 1336.95Z" fill="#F7931A" transform="matrix(1.03565 0 0 1 -1078.91 -1180.97)"/>
          <path d="M1264.78 1323.58C1267.62 1304.55 1253.14 1294.32 1233.33 1287.5L1239.77 1261.73 1224.07 1257.82 1217.82 1282.9C1213.69 1281.88 1209.45 1280.92 1205.25 1279.96L1211.55 1254.68 1195.87 1250.8 1189.44 1276.53C1186.03 1275.77 1182.68 1275.01 1179.43 1274.19L1179.44 1274.11 1157.81 1268.72 1153.64 1285.47C1153.64 1285.47 1165.26 1288.14 1165.03 1288.3 1171.38 1289.88 1172.53 1294.08 1172.34 1297.42L1154.73 1368.03C1153.96 1369.95 1151.99 1372.84 1147.53 1371.74 1147.71 1371.98 1136.14 1368.91 1136.14 1368.91L1128.35 1386.85 1148.76 1391.95C1152.56 1392.89 1156.3 1393.89 1159.96 1394.83L1153.46 1420.89 1169.14 1424.81 1175.55 1399.02C1179.84 1400.17 1183.99 1401.25 1188.06 1402.26L1181.65 1427.94 1197.34 1431.83 1203.83 1405.83C1230.57 1410.87 1250.69 1408.84 1259.17 1384.64 1265.97 1365.18 1258.83 1353.92 1244.74 1346.6 1254.99 1344.23 1262.71 1337.49 1264.78 1323.58ZM1228.94 1373.82C1224.08 1393.31 1191.28 1382.78 1180.65 1380.14L1189.27 1345.6C1199.91 1348.25 1234.01 1353.5 1228.94 1373.82ZM1233.78 1323.28C1229.36 1341.01 1202.08 1332 1193.21 1329.8L1201.03 1298.48C1209.87 1300.69 1238.4 1304.8 1233.78 1323.28Z" fill="#FAFAFA" transform="matrix(1.03565 0 0 1 -1078.91 -1180.97)"/>
        </g>
      </g>
    </g>
  </g>
</svg>