<svg width="3575" height="1241" xmlns="http://www.w3.org/2000/svg" xmlns:xlink="http://www.w3.org/1999/xlink" xml:space="preserve" overflow="hidden"><defs><clipPath id="clip0"><rect x="0" y="864" width="3575" height="1241"/></clipPath></defs><g clip-path="url(#clip0)" transform="matrix(1 0 0 1 0 -864)"><path d="M735.93 1327.39C686.293 1527.55 483.784 1649.57 283.612 1599.93 83.4473 1550.31-38.5718 1347.79 11.0661 1147.63 60.7037 947.455 263.212 825.428 463.376 875.065 463.712 875.149 464.057 875.233 464.393 875.326 664.028 925.425 785.484 1127.61 735.93 1327.39Z" fill="#F7931A" fill-rule="evenodd"/><path d="M458.318 1183.25C446.629 1229.81 375.332 1205.94 352.189 1200.24L372.639 1118.77C395.428 1124.36 470.008 1135.06 457.965 1183.25L458.318 1183.25ZM445.577 1314.9C432.954 1365.64 347.165 1338.18 319.343 1331.3L341.897 1241.33C369.719 1248.31 458.781 1261.93 445.577 1314.9ZM539.083 1183.95C546.447 1134.36 508.577 1107.71 457.266 1090.02L474.098 1022.86 432.609 1012.62 416.249 1078.04C405.494 1075.37 394.394 1072.8 383.403 1070.35L399.763 1004.24 358.736 994 341.905 1061.16 315.724 1055.34 259.037 1041.26 248.164 1084.91C248.164 1084.91 278.552 1091.89 277.972 1092.36 289.577 1093.76 298.043 1104.03 297.142 1115.64L251.084 1299.55C248.576 1307.39 240.16 1311.71 232.275 1309.21L232.266 1309.21C232.266 1309.79 202.341 1301.88 202.341 1301.88L182 1348.44 235.414 1361.6 264.633 1369.17 247.684 1437.02 288.71 1447.26 305.541 1380.1C316.599 1383.13 327.481 1385.92 338.152 1388.48L321.556 1455.88 362.582 1466 379.531 1398.26C449.659 1411.43 502.139 1406.17 524.348 1343.09 542.231 1292.34 523.413 1263.13 486.595 1244.04 513.475 1237.87 533.352 1220.76 539.075 1183.98L539.083 1183.95Z" fill="#FFFFFF" fill-rule="evenodd"/><path d="M972.128 1493.42C993.914 1493.49 1015.35 1487.94 1034.37 1477.34 1053.95 1466.9 1071.18 1452.52 1084.96 1435.14 1099.33 1416.76 1110.63 1396.17 1118.42 1374.18 1126.63 1351.45 1130.8 1327.47 1130.77 1303.31 1132.08 1278.8 1126.84 1254.37 1115.61 1232.55 1105.59 1215.65 1086.94 1207.03 1059.9 1207.03 1048.11 1207.43 1036.4 1209.04 1024.92 1211.81 1010.68 1214.99 997.506 1221.82 986.688 1231.62L924.911 1489.92 934.823 1491.79C937.768 1492.51 940.781 1492.98 943.794 1493.19 947.663 1493.67 951.557 1493.86 955.451 1493.77L972.119 1493.42ZM1094.87 1089.66C1121.85 1089.03 1148.64 1094.54 1173.2 1105.74 1194.51 1115.91 1213.24 1130.77 1227.98 1149.22 1243.07 1168.31 1254.17 1190.22 1260.62 1213.68 1267.69 1239.54 1271.17 1266.25 1270.99 1293.06 1270.96 1376.48 1238.62 1456.64 1180.77 1516.75 1152.73 1545.52 1119.36 1568.54 1082.51 1584.58 1043.88 1601.59 1002.1 1610.25 959.891 1609.99L930.047 1609.99C913.824 1609.47 897.627 1608.07 881.555 1605.8 861.925 1602.95 842.471 1599.07 823.277 1594.14 803.152 1589.37 783.614 1582.41 765 1573.4L928.772 887.314 1075.06 864 1016.78 1107.5C1028.92 1102.01 1041.52 1097.6 1054.43 1094.33 1067.74 1091.09 1081.41 1089.48 1095.11 1089.55L1094.88 1089.67Z" fill="#4D4D4D" fill-rule="evenodd"/><path d="M1489.92 1039.3C1470.84 1039.48 1452.25 1033.36 1436.97 1021.91 1420.79 1009.1 1412.04 989.06 1413.65 968.467 1413.58 955.62 1416.32 942.907 1421.69 931.237 1426.84 919.869 1434.07 909.576 1443.04 900.896 1452 892.377 1462.37 885.504 1473.71 880.588 1485.5 875.522 1498.2 872.942 1511.02 873.001 1529.96 872.942 1548.38 879.093 1563.5 890.503 1579.65 903.341 1588.39 923.364 1586.82 943.949 1586.92 956.83 1584.22 969.576 1578.89 981.288 1573.75 992.598 1566.55 1002.84 1557.67 1011.51 1548.73 1020.06 1538.36 1026.94 1527 1031.82 1515.21 1036.89 1502.51 1039.43 1489.69 1039.29L1489.92 1039.29ZM1421.94 1597 1282 1597 1400.24 1099.86 1540.99 1099.86 1421.93 1597Z" fill="#4D4D4D" fill-rule="evenodd"/><path d="M1663.26 976.615 1809.62 954 1773.24 1100.32 1930 1100.32 1901.76 1215.51 1746.29 1215.51 1704.77 1388.77C1701.18 1402.03 1698.95 1415.63 1698.12 1429.35 1697.27 1440.45 1698.91 1451.6 1702.9 1461.98 1706.81 1471.3 1714.04 1478.83 1723.2 1483.09 1736.38 1488.91 1750.77 1491.56 1765.18 1490.78 1779.95 1490.83 1794.68 1489.38 1809.15 1486.47 1823.72 1483.62 1838.07 1479.73 1852.07 1474.81L1862.57 1582.54C1842.47 1589.75 1821.94 1595.72 1801.1 1600.37 1775.35 1605.84 1749.05 1608.38 1722.73 1607.95 1679.22 1607.95 1645.63 1601.42 1621.61 1588.6 1599.13 1577.17 1581.13 1558.54 1570.52 1535.66 1560.17 1511.39 1555.65 1485.03 1557.35 1458.71 1558.92 1427.83 1563.33 1397.15 1570.52 1367.07L1663.25 976.144 1663.25 976.615Z" fill="#4D4D4D" fill-rule="evenodd"/><path d="M1925.36 1398.5C1925.07 1357.32 1932.09 1316.39 1946.13 1277.67 1959.29 1241.04 1979.51 1207.36 2005.63 1178.5 2031.97 1149.89 2064 1127.11 2099.68 1111.6 2138.59 1094.82 2180.62 1086.44 2223.01 1087.03 2248.6 1086.73 2274.14 1089.42 2299.09 1095.06 2320.07 1100.02 2340.48 1107.13 2360 1116.27L2311.35 1225.45C2298.75 1220.33 2285.67 1215.92 2272.14 1211.82 2256 1207.33 2239.29 1205.25 2222.55 1205.65 2180.24 1204.12 2139.54 1221.98 2112.04 1254.12 2084.74 1286.2 2071.04 1329.31 2070.97 1383.47 2069.69 1410.94 2076.94 1438.12 2091.74 1461.32 2105.58 1481.13 2131.11 1491.02 2168.28 1491.02 2186.1 1491.04 2203.86 1489.13 2221.26 1485.32 2236.78 1482.01 2251.98 1477.3 2266.65 1471.21L2277.04 1583.55C2257.95 1590.77 2238.48 1596.92 2218.7 1601.95 2193.59 1607.61 2167.9 1610.28 2142.15 1609.89 2107.99 1610.88 2073.98 1605.13 2042.04 1592.99 2016.65 1582.77 1993.79 1567.14 1975.06 1547.2 1957.29 1527.87 1944.16 1504.75 1936.68 1479.6 1928.75 1453.14 1924.82 1425.65 1925.01 1398.04L1925.36 1398.51Z" fill="#4D4D4D" fill-rule="evenodd"/><path d="M2616.08 1205.66C2596.33 1205.39 2577.04 1211.66 2561.23 1223.51 2545.21 1235.9 2531.77 1251.33 2521.68 1268.88 2510.58 1287.57 2502.25 1307.78 2496.95 1328.85 2491.82 1349.06 2489.14 1369.8 2489.02 1390.66 2487.76 1416.11 2492.94 1441.46 2504.07 1464.38 2514.23 1481.99 2532.43 1490.85 2558.92 1490.85 2578.69 1491.19 2598.01 1484.87 2613.76 1472.89 2629.81 1460.5 2643.28 1445.07 2653.43 1427.53 2664.37 1408.82 2672.5 1388.62 2677.59 1367.56 2682.66 1347.31 2685.33 1326.52 2685.51 1305.63 2686.82 1280.19 2681.62 1254.82 2670.46 1231.91 2660.31 1214.41 2641.98 1205.55 2615.61 1205.55L2616.08 1205.66ZM2546.07 1609.94C2516.34 1610.63 2486.77 1605.47 2459.03 1594.77 2435.68 1585.57 2414.83 1571.04 2398.12 1552.31 2381.69 1533.45 2369.31 1511.42 2361.72 1487.58 2353.47 1460.85 2349.52 1432.97 2350.05 1405 2350.14 1366.49 2356.31 1328.22 2368.38 1291.63 2380.08 1254.8 2398.35 1220.39 2422.27 1190.03 2446.3 1159.68 2476.18 1134.46 2510.13 1115.85 2546.67 1096.21 2587.66 1086.28 2629.15 1087.04 2658.7 1086.5 2688.11 1091.66 2715.73 1102.21 2739.1 1111.26 2760.07 1125.6 2776.98 1144.08 2793.31 1162.99 2805.66 1185.01 2813.28 1208.81 2821.58 1235.57 2825.52 1263.49 2824.94 1291.51 2824.83 1329.99 2818.8 1368.23 2807.09 1404.88 2795.59 1441.76 2777.65 1476.3 2754.11 1506.94 2730.44 1537.42 2700.68 1562.65 2666.72 1581.02 2629.61 1600.76 2588.1 1610.72 2546.07 1609.94Z" fill="#4D4D4D" fill-rule="evenodd"/><path d="M3045.87 1039.3C3026.82 1039.5 3008.23 1033.38 2993.03 1021.91 2976.83 1009.1 2968.08 989.062 2969.7 968.469 2969.63 955.622 2972.37 942.909 2977.74 931.239 2982.74 919.929 2989.77 909.654 2998.5 900.899 3007.52 892.404 3017.93 885.531 3029.3 880.591 3041.06 875.533 3053.72 872.953 3066.52 873.003 3085.61 872.836 3104.24 879.003 3119.49 890.505 3135.65 903.344 3144.38 923.366 3142.82 943.951 3142.85 956.849 3140.06 969.595 3134.64 981.29 3129.58 992.608 3122.41 1002.87 3113.53 1011.51 3104.6 1020.07 3094.22 1026.94 3082.85 1031.82 3071.16 1036.84 3058.58 1039.38 3045.86 1039.29ZM2977.99 1597 2838 1597 2956.06 1099.86 3096.98 1099.86 2977.99 1597Z" fill="#4D4D4D" fill-rule="evenodd"/><path d="M3197.37 1122.43C3207.98 1119.4 3219.76 1115.66 3232.35 1111.58 3244.94 1107.5 3259.63 1103.76 3275.82 1099.91 3293.59 1096.14 3311.53 1093.3 3329.57 1091.39 3351.99 1089.03 3374.53 1087.89 3397.08 1088.01 3470.76 1088.01 3521.58 1109.43 3549.57 1152.31 3566.32 1177.98 3574.8 1209.3 3575 1246.28L3575 1248.94C3574.87 1272.99 3571.29 1299.39 3564.26 1328.15L3500.02 1596.53 3359.66 1596.53 3422.02 1333.74C3425.75 1317.41 3428.79 1301.54 3431.01 1286.02 3433.43 1272.59 3433.43 1258.84 3431.01 1245.42 3428.69 1234.2 3422.49 1224.17 3413.52 1217.06 3401.08 1208.9 3386.27 1205.08 3371.43 1206.21 3352.75 1206.24 3334.12 1208.16 3315.83 1211.93L3224.19 1597 3083 1597 3197.37 1122.43Z" fill="#4D4D4D" fill-rule="evenodd"/><text fill="#4D4D4D" font-family="Ubuntu,Ubuntu_MSFontService,sans-serif" font-style="italic" font-weight="700" font-size="223" transform="matrix(1 0 0 1 1220.23 1925)">banner template text</text></g></svg>