<?xml version="1.0" encoding="utf-8"?>
<svg viewBox="0 0 500 500" xmlns="http://www.w3.org/2000/svg">
  <g transform="matrix(0.1496820002794266, 0, 0, 0.1496820002794266, -22.631248474121037, 57.5669784545899)">
    <text transform="matrix(1 0 0 1 1063.69 1727)" style="fill: rgb(204, 204, 204); font-family: Ubuntu, Ubuntu_MSFontService, sans-serif; font-size: 289px; font-style: italic; font-weight: 700; white-space: pre;">lightning network</text>
    <g>
      <g>
        <g>
          <path d="M4225.09 4799.59C4213.21 4792.72 4272.35 4711.13 4333.35 4622.99 4394.32 4534.82 4435.54 4468.13 4448.38 4448.4 4461.22 4428.67 4463.23 4429.17 4456.47 4397.1 4449.7 4365.03 4445.14 4351.27 4434.36 4324.89 4405.8 4254.92 4367.36 4198.85 4314.96 4153.83 4262.53 4108.82 4201.14 4072.39 4135.76 4054.97 4070.4 4037.56 4004.78 4034.13 3937.41 4046.96 3870.04 4059.77 3800.71 4094.9 3742.25 4140.62 3662.14 4203.32 3611.2 4293.23 3589.32 4367.66 3567.43 4442.09 3569.34 4558.1 3595.95 4641.58 3622.55 4725.06 3657.49 4791.78 3722.02 4852.04 3786.55 4912.31 3871.14 4952.92 3968.23 4965.55 3992.6 4968.73 4021 4968.73 4045.77 4967.45 4070.58 4966.17 4094.5 4962.13 4118.86 4956.65 4143.24 4951.16 4166.87 4944.17 4189.91 4934.72 4212.98 4925.27 4234.72 4911.39 4256.01 4898.96 4294.55 4876.49 4325.82 4820.16 4323.57 4818.51 4319.03 4815.08 4261.57 4820.68 4225.09 4799.59Z" fill="#F7931A" transform="matrix(1.03463 0 0 1 -3546.89 -3255.21)"/>
          <path d="M4451.11 4490.07C4451.11 4490.07 4474.88 4440.87 4466.14 4502.82 4464.61 4513.72 4422.7 4704.31 4422.7 4704.31 4422.7 4704.37 4503.91 4709.47 4503.91 4709.47 4518.64 4709.32 4511.5 4720.55 4511.5 4720.55L4294.92 5012.54C4263.78 5056.69 4278.52 5004.8 4278.94 4997.21 4316.82 4883.67 4339.47 4819.35 4346.96 4804.41 4346.96 4804.41 4251.28 4791.75 4251.81 4783.67L4251.81 4782.22C4252.12 4778.49 4276.38 4742.78 4324.76 4675.16 4397.79 4568.92 4324.93 4675.46 4451.11 4490.07Z" fill="#FFBA00" transform="matrix(1.03463 0 0 1 -3546.89 -3255.21)"/>
          <path d="M4247.67 4445.14C4257.22 4381.23 4208.59 4346.87 4142.05 4323.99L4163.68 4237.44 4110.95 4224.3 4089.96 4308.54C4076.11 4305.12 4061.87 4301.88 4047.75 4298.66L4068.9 4213.76 4016.26 4200.72 3994.65 4287.14C3983.19 4284.59 3971.94 4282.03 3961.03 4279.28L3961.06 4279 3888.41 4260.91 3874.43 4317.16C3874.43 4317.16 3913.46 4326.13 3912.66 4326.68 3934.02 4331.98 3937.87 4346.08 3937.21 4357.3L3878.07 4594.42C3875.51 4600.88 3868.89 4610.61 3853.9 4606.9 3854.49 4607.69 3815.65 4597.4 3815.65 4597.4L3789.5 4657.66 3858.04 4674.76C3870.8 4677.92 3883.34 4681.3 3895.65 4684.43L3873.82 4771.97 3926.46 4785.12 3948.01 4698.51C3962.4 4702.39 3976.35 4706.01 3990.02 4709.39L3968.5 4795.65 4021.18 4808.71 4042.99 4721.38C4132.8 4738.32 4200.37 4731.49 4228.85 4650.23 4251.68 4584.85 4227.71 4547.06 4180.37 4522.47 4214.8 4514.52 4240.74 4491.86 4247.67 4445.14ZM4127.3 4613.9C4110.99 4679.34 4000.84 4643.99 3965.12 4635.12L3994.09 4519.12C4029.8 4528.02 4144.35 4545.65 4127.3 4613.9ZM4143.57 4444.16C4128.72 4503.71 4037.09 4473.44 4007.31 4466.03L4033.56 4360.85C4063.27 4368.27 4159.07 4382.09 4143.57 4444.16Z" fill="#FAFAFA" transform="matrix(1.03463 0 0 1 -3546.89 -3255.21)"/>
        </g>
      </g>
    </g>
    <path d="M1305.29 1298.21C1323.2 1298.26 1340.82 1293.7 1356.46 1284.99 1372.56 1276.41 1386.72 1264.6 1398.05 1250.31 1409.87 1235.21 1419.15 1218.29 1425.56 1200.22 1432.31 1181.54 1435.74 1161.84 1435.71 1141.99 1436.79 1121.84 1432.48 1101.78 1423.25 1083.85 1415.01 1069.96 1399.68 1062.87 1377.44 1062.87 1367.76 1063.21 1358.13 1064.52 1348.69 1066.8 1336.98 1069.41 1326.15 1075.03 1317.26 1083.08L1266.47 1295.33 1274.62 1296.86C1277.04 1297.46 1279.52 1297.84 1281.99 1298.01 1285.17 1298.41 1288.38 1298.57 1291.58 1298.49L1305.28 1298.2ZM1406.2 966.425C1428.38 965.914 1450.4 970.438 1470.59 979.645 1488.12 987.996 1503.52 1000.21 1515.63 1015.37 1528.04 1031.06 1537.16 1049.06 1542.47 1068.34 1548.28 1089.59 1551.14 1111.53 1550.99 1133.57 1550.97 1202.12 1524.38 1267.98 1476.82 1317.37 1453.76 1341.01 1426.33 1359.94 1396.04 1373.11 1364.28 1387.09 1329.93 1394.21 1295.23 1394L1270.69 1394C1257.35 1393.56 1244.04 1392.42 1230.82 1390.55 1214.69 1388.21 1198.69 1385.02 1182.91 1380.97 1166.37 1377.04 1150.3 1371.33 1135 1363.92L1269.64 800.158 1389.91 781 1342 981.086C1351.98 976.576 1362.33 972.955 1372.95 970.266 1383.9 967.604 1395.14 966.28 1406.4 966.342L1406.2 966.439Z" fill-rule="evenodd" style="fill: rgb(204, 204, 204);"/>
    <path d="M1730.43 925.437C1714.79 925.589 1699.55 920.57 1687.03 911.174 1673.76 900.662 1666.59 884.221 1667.91 867.325 1667.85 856.784 1670.1 846.355 1674.5 836.779 1678.72 827.453 1684.65 819.008 1692 811.887 1699.34 804.897 1707.85 799.258 1717.14 795.225 1726.8 791.069 1737.21 788.952 1747.72 789.001 1763.25 788.952 1778.35 793.998 1790.73 803.36 1803.97 813.893 1811.14 830.32 1809.85 847.21 1809.93 857.777 1807.72 868.235 1803.36 877.844 1799.14 887.123 1793.24 895.526 1785.96 902.64 1778.63 909.658 1770.13 915.297 1760.82 919.302 1751.16 923.458 1740.74 925.547 1730.23 925.43L1730.43 925.43ZM1674.7 1383 1560 1383 1656.92 975.125 1772.29 975.125 1674.7 1383Z" fill-rule="evenodd" style="fill: rgb(204, 204, 204);"/>
    <path d="M1873.17 873.569 1993.25 855 1963.4 975.147 2092 975.147 2068.83 1069.73 1941.29 1069.73 1907.23 1211.99C1904.28 1222.88 1902.46 1234.04 1901.77 1245.31 1901.07 1254.42 1902.42 1263.58 1905.69 1272.1 1908.9 1279.76 1914.83 1285.94 1922.34 1289.43 1933.16 1294.22 1944.97 1296.39 1956.79 1295.75 1968.9 1295.79 1980.98 1294.6 1992.86 1292.21 2004.81 1289.87 2016.59 1286.68 2028.07 1282.64L2036.68 1371.09C2020.2 1377.02 2003.35 1381.92 1986.25 1385.74 1965.12 1390.22 1943.56 1392.31 1921.96 1391.96 1886.27 1391.96 1858.71 1386.6 1839 1376.07 1820.57 1366.69 1805.8 1351.38 1797.09 1332.6 1788.6 1312.68 1784.89 1291.03 1786.29 1269.42 1787.57 1244.06 1791.19 1218.87 1797.09 1194.17L1873.16 873.183 1873.16 873.569Z" fill-rule="evenodd" style="fill: rgb(204, 204, 204);"/>
    <path d="M2088.29 1220.11C2088.05 1186.25 2093.82 1152.6 2105.34 1120.76 2116.14 1090.65 2132.74 1062.96 2154.18 1039.23 2175.79 1015.7 2202.07 996.976 2231.36 984.228 2263.29 970.432 2297.79 963.541 2332.57 964.024 2353.57 963.775 2374.53 965.99 2395.01 970.625 2412.23 974.709 2428.98 980.551 2445 988.063L2405.07 1077.83C2394.73 1073.62 2384 1069.99 2372.89 1066.63 2359.65 1062.93 2345.94 1061.22 2332.19 1061.55 2297.47 1060.29 2264.07 1074.98 2241.51 1101.41 2219.1 1127.78 2207.85 1163.23 2207.8 1207.75 2206.74 1230.34 2212.7 1252.69 2224.84 1271.76 2236.2 1288.05 2257.15 1296.18 2287.66 1296.18 2302.28 1296.19 2316.86 1294.62 2331.14 1291.49 2343.87 1288.77 2356.35 1284.89 2368.39 1279.89L2376.91 1372.26C2361.25 1378.19 2345.27 1383.25 2329.04 1387.38 2308.43 1392.03 2287.34 1394.23 2266.22 1393.91 2238.18 1394.72 2210.26 1390 2184.05 1380.01 2163.21 1371.61 2144.45 1358.76 2129.08 1342.37 2114.5 1326.47 2103.73 1307.46 2097.58 1286.79 2091.08 1265.03 2087.85 1242.43 2088.01 1219.73L2088.29 1220.11Z" fill-rule="evenodd" style="fill: rgb(204, 204, 204);"/>
    <path d="M2655.46 1062.34C2639.25 1062.11 2623.41 1067.25 2610.43 1076.97 2597.28 1087.14 2586.24 1099.8 2577.96 1114.19 2568.85 1129.52 2562 1146.1 2557.65 1163.39 2553.44 1179.96 2551.24 1196.97 2551.14 1214.08 2550.11 1234.96 2554.36 1255.75 2563.5 1274.55 2571.84 1288.99 2586.78 1296.27 2608.53 1296.27 2624.77 1296.54 2640.63 1291.36 2653.56 1281.53 2666.74 1271.37 2677.8 1258.71 2686.13 1244.33 2695.11 1228.98 2701.79 1212.41 2705.97 1195.14 2710.13 1178.53 2712.33 1161.47 2712.47 1144.33 2713.55 1123.47 2709.28 1102.66 2700.11 1083.86 2691.78 1069.51 2676.74 1062.24 2655.08 1062.24L2655.47 1062.34ZM2597.98 1393.95C2573.57 1394.51 2549.3 1390.29 2526.52 1381.51 2507.35 1373.96 2490.23 1362.04 2476.51 1346.68 2463.02 1331.21 2452.85 1313.14 2446.62 1293.58 2439.85 1271.66 2436.6 1248.78 2437.04 1225.85 2437.11 1194.25 2442.18 1162.86 2452.09 1132.85 2461.7 1102.64 2476.7 1074.42 2496.34 1049.52 2516.07 1024.62 2540.6 1003.93 2568.47 988.668 2598.48 972.555 2632.13 964.413 2666.2 965.033 2690.46 964.592 2714.6 968.822 2737.28 977.474 2756.47 984.9 2773.69 996.659 2787.57 1011.82 2800.98 1027.33 2811.12 1045.4 2817.37 1064.92 2824.2 1086.87 2827.43 1109.77 2826.95 1132.75 2826.86 1164.32 2821.91 1195.69 2812.3 1225.75 2802.85 1256 2788.13 1284.33 2768.8 1309.47 2749.36 1334.47 2724.92 1355.16 2697.04 1370.23 2666.57 1386.42 2632.49 1394.59 2597.98 1393.95Z" fill-rule="evenodd" style="fill: rgb(204, 204, 204);"/>
    <path d="M3008.39 925.438C2992.77 925.604 2977.54 920.585 2965.07 911.176 2951.79 900.663 2944.62 884.222 2945.95 867.326 2945.89 856.786 2948.14 846.356 2952.54 836.781 2956.64 827.503 2962.4 819.072 2969.56 811.889 2976.95 804.92 2985.49 799.281 2994.8 795.227 3004.44 791.078 3014.82 788.961 3025.31 789.003 3040.96 788.865 3056.23 793.924 3068.73 803.362 3081.97 813.895 3089.13 830.322 3087.85 847.211 3087.87 857.793 3085.59 868.25 3081.15 877.846 3077 887.131 3071.12 895.548 3063.85 902.642 3056.52 909.659 3048.01 915.298 3038.7 919.303 3029.11 923.419 3018.8 925.507 3008.38 925.431ZM2952.74 1383 2838 1383 2934.77 975.126 3050.28 975.126 2952.74 1383Z" fill-rule="evenodd" style="fill: rgb(204, 204, 204);"/>
    <path d="M3132.92 994.206C3141.63 991.722 3151.3 988.659 3161.64 985.32 3171.98 981.975 3184.04 978.912 3197.33 975.76 3211.92 972.67 3226.65 970.343 3241.47 968.781 3259.88 966.84 3278.39 965.91 3296.9 966.007 3357.4 966.007 3399.14 983.558 3422.12 1018.68 3435.87 1039.72 3442.83 1065.38 3443 1095.67L3443 1097.85C3442.9 1117.55 3439.95 1139.18 3434.18 1162.74L3381.43 1382.61 3266.17 1382.61 3317.39 1167.32C3320.45 1153.95 3322.94 1140.95 3324.76 1128.23 3326.75 1117.23 3326.75 1105.96 3324.76 1094.97 3322.86 1085.78 3317.77 1077.56 3310.4 1071.74 3300.19 1065.05 3288.03 1061.92 3275.84 1062.84 3260.5 1062.87 3245.2 1064.44 3230.18 1067.53L3154.94 1383 3039 1383 3132.92 994.206Z" fill-rule="evenodd" style="fill: rgb(204, 204, 204);"/>
  </g>
</svg>