<?xml version="1.0" encoding="utf-8"?>
<svg viewBox="0 0 500 500" xmlns="http://www.w3.org/2000/svg">
  <defs>
    <clipPath id="clippath0" transform="">
      <path d="M 0.000011623 0 L 780.000011623 0 L 780.000011623 540 L 0.000011623 540 Z" style="fill: none; clip-rule: evenodd;"/>
    </clipPath>
    <clipPath id="clippath2" transform="matrix(3.81675568 -0.0000002199 -0.0000000281 3.81675568 15.84 150)" style="clip-path: url('#clippath1');">
      <rect x="0" y="0" width="61.56" height="61.56" style="clip-rule: nonzero;"/>
    </clipPath>
    <clipPath id="clippath1" transform="">
      <path d="M 15.84 150 L 250.8 150 L 250.8 384.96 L 15.84 384.96 Z" style="fill: none; clip-rule: evenodd;"/>
    </clipPath>
    <clipPath id="clippath3" transform="matrix(3.81675568 -0.0000002199 -0.0000000281 3.81675568 15.84 150)" style="clip-path: url('#clippath2');">
      <path d="M 0.085236 0.034412 L 61.525236 0.034412 L 61.525236 61.474412 L 0.085236 61.474412 Z" style="fill: none; clip-rule: evenodd;"/>
    </clipPath>
  </defs>
  <g class="page-1" transform="matrix(0.6410260796546936, 0, 0, -0.6410260796546936, -0.000014000000987834937, 423.0769348144532)">
    <g transform="">
      <path d="M 0.000011623 0 L 780.000011623 0 L 780.000011623 540 L 0.000011623 540 Z" style="fill: none;"/>
    </g>
    <g style="clip-path: url('#clippath0');">
      <g transform="">
        <path d="M 18.151 0.63 Q 13.676 0.63 11.124 -0.536 Q 8.571 -1.702 7.468 -3.718 Q 6.365 -5.735 6.397 -8.351 Q 6.428 -10.966 7.122 -13.928 L 15.126 -47.394 L 24.894 -48.907 L 16.134 -12.605 Q 15.882 -11.47 15.851 -10.525 Q 15.819 -9.58 16.197 -8.855 Q 16.575 -8.13 17.489 -7.689 Q 18.403 -7.248 20.042 -7.122 Z M 32.079 0 L 22.752 0 L 30.63 -33.151 L 40.02 -33.151 Z M 36.617 -37.184 Q 34.663 -37.184 33.088 -38.35 Q 31.512 -39.516 31.512 -41.911 Q 31.512 -43.234 32.048 -44.4 Q 32.583 -45.566 33.466 -46.417 Q 34.348 -47.268 35.514 -47.772 Q 36.68 -48.276 38.003 -48.276 Q 39.957 -48.276 41.533 -47.11 Q 43.108 -45.944 43.108 -43.55 Q 43.108 -42.226 42.573 -41.06 Q 42.037 -39.894 41.155 -39.043 Q 40.272 -38.193 39.106 -37.688 Q 37.94 -37.184 36.617 -37.184 Z M 67.688 -4.16 Q 66.742 -0.063 65.198 2.931 Q 63.654 5.924 61.354 7.91 Q 59.053 9.895 55.839 10.872 Q 52.625 11.849 48.339 11.849 Q 44.369 11.849 41.659 11.124 Q 38.949 10.399 36.743 9.328 L 39.894 1.891 Q 41.848 2.773 43.959 3.403 Q 46.071 4.034 49.159 4.034 Q 53.192 4.034 55.241 2.237 Q 57.289 0.441 57.919 -2.395 L 58.171 -3.592 Q 56.911 -2.962 55.493 -2.584 Q 54.075 -2.206 52.499 -2.206 Q 49.537 -2.206 47.394 -3.12 Q 45.251 -4.034 43.896 -5.672 Q 42.541 -7.311 41.879 -9.548 Q 41.218 -11.785 41.218 -14.432 Q 41.218 -19.222 42.982 -22.909 Q 44.747 -26.596 47.678 -29.054 Q 50.608 -31.512 54.421 -32.772 Q 58.234 -34.033 62.394 -34.033 Q 65.419 -34.033 68.381 -33.403 Q 71.343 -32.772 74.179 -31.449 Z M 63.528 -25.903 Q 62.457 -26.155 60.881 -26.155 Q 58.486 -26.155 56.596 -25.304 Q 54.705 -24.453 53.35 -23.004 Q 51.995 -21.554 51.27 -19.506 Q 50.545 -17.458 50.545 -15.126 Q 50.545 -13.991 50.734 -13.014 Q 50.923 -12.038 51.428 -11.313 Q 51.932 -10.588 52.814 -10.147 Q 53.696 -9.706 55.02 -9.706 Q 55.902 -9.706 57.383 -10.021 Q 58.864 -10.336 60.062 -11.47 Z M 95.67 -33.718 Q 98.38 -33.718 100.334 -32.93 Q 102.288 -32.142 103.548 -30.724 Q 104.809 -29.306 105.439 -27.352 Q 106.069 -25.399 106.069 -23.13 Q 106.069 -20.483 105.439 -17.899 L 101.153 0 L 91.763 0 L 95.922 -17.521 Q 96.175 -18.592 96.395 -19.79 Q 96.616 -20.987 96.616 -22.058 Q 96.616 -23.697 95.765 -24.863 Q 94.914 -26.029 92.519 -26.029 Q 91.511 -26.029 90.597 -25.903 Q 89.683 -25.777 88.801 -25.588 L 82.687 0 L 73.297 0 L 84.641 -47.394 L 94.41 -48.907 L 90.565 -33.088 Q 91.826 -33.34 93.118 -33.529 Q 94.41 -33.718 95.67 -33.718 Z M 116.405 -41.407 L 126.174 -42.919 L 123.779 -33.151 L 134.241 -33.151 L 132.35 -25.462 L 121.951 -25.462 L 119.178 -13.865 Q 118.8 -12.416 118.705 -11.155 Q 118.611 -9.895 119.021 -8.981 Q 119.43 -8.067 120.439 -7.563 Q 121.447 -7.059 123.212 -7.059 Q 124.724 -7.059 126.142 -7.342 Q 127.56 -7.626 129.01 -8.13 L 129.703 -0.945 Q 127.812 -0.252 125.607 0.252 Q 123.401 0.756 120.376 0.756 Q 116.027 0.756 113.632 -0.536 Q 111.237 -1.828 110.229 -4.065 Q 109.22 -6.302 109.346 -9.202 Q 109.472 -12.101 110.229 -15.315 Z M 139.725 -31.638 Q 140.796 -31.953 142.088 -32.363 Q 143.38 -32.772 144.987 -33.119 Q 146.594 -33.466 148.579 -33.686 Q 150.565 -33.907 153.086 -33.907 Q 160.523 -33.907 163.296 -29.621 Q 166.069 -25.336 164.241 -17.899 L 159.955 0 L 150.565 0 L 154.724 -17.521 Q 155.102 -19.159 155.323 -20.703 Q 155.544 -22.247 155.292 -23.413 Q 155.039 -24.579 154.126 -25.304 Q 153.212 -26.029 151.321 -26.029 Q 149.493 -26.029 147.603 -25.651 L 141.489 0 L 132.099 0 Z M 175.648 0 L 166.321 0 L 174.199 -33.151 L 183.589 -33.151 Z M 180.186 -37.184 Q 178.232 -37.184 176.657 -38.35 Q 175.081 -39.516 175.081 -41.911 Q 175.081 -43.234 175.617 -44.4 Q 176.152 -45.566 177.035 -46.417 Q 177.917 -47.268 179.083 -47.772 Q 180.249 -48.276 181.572 -48.276 Q 183.526 -48.276 185.102 -47.11 Q 186.677 -45.944 186.677 -43.55 Q 186.677 -42.226 186.142 -41.06 Q 185.606 -39.894 184.724 -39.043 Q 183.841 -38.193 182.675 -37.688 Q 181.509 -37.184 180.186 -37.184 Z M 190.27 -31.638 Q 191.341 -31.953 192.633 -32.363 Q 193.925 -32.772 195.532 -33.119 Q 197.139 -33.466 199.124 -33.686 Q 201.11 -33.907 203.631 -33.907 Q 211.067 -33.907 213.841 -29.621 Q 216.614 -25.336 214.786 -17.899 L 210.5 0 L 201.11 0 L 205.269 -17.521 Q 205.647 -19.159 205.868 -20.703 Q 206.089 -22.247 205.837 -23.413 Q 205.584 -24.579 204.671 -25.304 Q 203.757 -26.029 201.866 -26.029 Q 200.038 -26.029 198.148 -25.651 L 192.034 0 L 182.644 0 Z M 245.479 -4.16 Q 244.533 -0.063 242.989 2.931 Q 241.445 5.924 239.145 7.91 Q 236.844 9.895 233.63 10.872 Q 230.416 11.849 226.13 11.849 Q 222.16 11.849 219.45 11.124 Q 216.74 10.399 214.534 9.328 L 217.685 1.891 Q 219.639 2.773 221.75 3.403 Q 223.861 4.034 226.95 4.034 Q 230.983 4.034 233.031 2.237 Q 235.08 0.441 235.71 -2.395 L 235.962 -3.592 Q 234.701 -2.962 233.283 -2.584 Q 231.865 -2.206 230.29 -2.206 Q 227.328 -2.206 225.185 -3.12 Q 223.042 -4.034 221.687 -5.672 Q 220.332 -7.311 219.67 -9.548 Q 219.008 -11.785 219.008 -14.432 Q 219.008 -19.222 220.773 -22.909 Q 222.538 -26.596 225.468 -29.054 Q 228.399 -31.512 232.212 -32.772 Q 236.025 -34.033 240.185 -34.033 Q 243.21 -34.033 246.172 -33.403 Q 249.134 -32.772 251.97 -31.449 Z M 241.319 -25.903 Q 240.248 -26.155 238.672 -26.155 Q 236.277 -26.155 234.386 -25.304 Q 232.496 -24.453 231.141 -23.004 Q 229.786 -21.554 229.061 -19.506 Q 228.336 -17.458 228.336 -15.126 Q 228.336 -13.991 228.525 -13.014 Q 228.714 -12.038 229.218 -11.313 Q 229.723 -10.588 230.605 -10.147 Q 231.487 -9.706 232.811 -9.706 Q 233.693 -9.706 235.174 -10.021 Q 236.655 -10.336 237.853 -11.47 Z M 272.768 -31.638 Q 273.839 -31.953 275.131 -32.363 Q 276.423 -32.772 278.03 -33.119 Q 279.637 -33.466 281.622 -33.686 Q 283.608 -33.907 286.129 -33.907 Q 293.566 -33.907 296.339 -29.621 Q 299.112 -25.336 297.284 -17.899 L 292.998 0 L 283.608 0 L 287.767 -17.521 Q 288.145 -19.159 288.366 -20.703 Q 288.587 -22.247 288.335 -23.413 Q 288.082 -24.579 287.169 -25.304 Q 286.255 -26.029 284.364 -26.029 Q 282.536 -26.029 280.646 -25.651 L 274.532 0 L 265.142 0 Z M 301.254 -12.983 Q 301.254 -17.016 302.672 -20.798 Q 304.09 -24.579 306.674 -27.51 Q 309.258 -30.441 312.945 -32.237 Q 316.632 -34.033 321.107 -34.033 Q 323.313 -34.033 325.204 -33.403 Q 327.094 -32.772 328.512 -31.575 Q 329.93 -30.378 330.718 -28.644 Q 331.506 -26.911 331.506 -24.705 Q 331.506 -21.176 329.93 -18.718 Q 328.355 -16.26 325.55 -14.716 Q 322.746 -13.172 318.901 -12.479 Q 315.057 -11.785 310.519 -11.785 Q 310.96 -9.138 312.441 -8.036 Q 313.922 -6.933 317.136 -6.933 Q 319.153 -6.933 321.233 -7.279 Q 323.313 -7.626 325.14 -8.319 L 325.834 -0.945 Q 324.069 -0.252 321.328 0.315 Q 318.586 0.882 315.372 0.882 Q 311.464 0.882 308.786 -0.221 Q 306.107 -1.324 304.437 -3.214 Q 302.767 -5.105 302.011 -7.626 Q 301.254 -10.147 301.254 -12.983 Z M 319.594 -26.596 Q 316.38 -26.596 313.954 -24.296 Q 311.527 -21.995 310.771 -18.214 Q 314.679 -18.34 317.073 -18.876 Q 319.468 -19.411 320.792 -20.168 Q 322.115 -20.924 322.557 -21.806 Q 322.998 -22.689 322.998 -23.571 Q 322.998 -26.596 319.594 -26.596 Z M 340.266 -41.407 L 350.035 -42.919 L 347.64 -33.151 L 358.102 -33.151 L 356.211 -25.462 L 345.812 -25.462 L 343.039 -13.865 Q 342.661 -12.416 342.566 -11.155 Q 342.472 -9.895 342.882 -8.981 Q 343.291 -8.067 344.3 -7.563 Q 345.308 -7.059 347.073 -7.059 Q 348.585 -7.059 350.003 -7.342 Q 351.421 -7.626 352.871 -8.13 L 353.564 -0.945 Q 351.673 -0.252 349.468 0.252 Q 347.262 0.756 344.237 0.756 Q 339.888 0.756 337.493 -0.536 Q 335.098 -1.828 334.09 -4.065 Q 333.081 -6.302 333.207 -9.202 Q 333.333 -12.101 334.09 -15.315 Z M 381.926 -19.411 Q 380.728 -16.827 379.247 -14.149 Q 377.766 -11.47 376.222 -8.918 Q 374.678 -6.365 373.228 -4.065 Q 371.779 -1.765 370.644 0 L 363.333 0 Q 362.829 -2.647 362.294 -6.302 Q 361.758 -9.958 361.254 -14.275 Q 360.75 -18.592 360.34 -23.413 Q 359.93 -28.235 359.741 -33.151 L 368.943 -33.151 Q 368.943 -30.882 368.974 -28.235 Q 369.006 -25.588 369.1 -22.752 Q 369.195 -19.916 369.384 -16.953 Q 369.573 -13.991 369.888 -11.092 Q 371.464 -13.739 373.008 -16.607 Q 374.552 -19.474 375.97 -22.342 Q 377.388 -25.21 378.617 -27.983 Q 379.846 -30.756 380.791 -33.151 L 388.606 -33.151 Q 388.606 -28.613 388.764 -23.004 Q 388.921 -17.395 389.551 -11.092 Q 391.253 -13.928 392.703 -16.922 Q 394.152 -19.916 395.381 -22.815 Q 396.61 -25.714 397.587 -28.361 Q 398.564 -31.008 399.32 -33.151 L 409.278 -33.151 Q 408.018 -29.999 406.284 -26.06 Q 404.551 -22.121 402.282 -17.773 Q 400.013 -13.424 397.177 -8.886 Q 394.341 -4.349 390.875 0 L 383.564 0 Q 382.808 -5.168 382.43 -9.895 Q 382.052 -14.622 381.926 -19.411 Z M 420.748 0.882 Q 417.408 0.882 414.95 -0.126 Q 412.492 -1.134 410.885 -2.962 Q 409.278 -4.79 408.459 -7.279 Q 407.639 -9.769 407.639 -12.794 Q 407.639 -16.575 408.868 -20.357 Q 410.097 -24.138 412.492 -27.163 Q 414.887 -30.188 418.353 -32.111 Q 421.82 -34.033 426.295 -34.033 Q 429.572 -34.033 432.061 -33.025 Q 434.551 -32.016 436.158 -30.188 Q 437.765 -28.361 438.584 -25.871 Q 439.404 -23.382 439.404 -20.357 Q 439.404 -16.575 438.206 -12.794 Q 437.009 -9.012 434.677 -5.987 Q 432.345 -2.962 428.847 -1.04 Q 425.349 0.882 420.748 0.882 Z M 425.412 -26.092 Q 423.332 -26.092 421.757 -24.894 Q 420.181 -23.697 419.11 -21.869 Q 418.038 -20.042 417.503 -17.867 Q 416.967 -15.693 416.967 -13.739 Q 416.967 -10.525 417.975 -8.792 Q 418.984 -7.059 421.631 -7.059 Q 423.711 -7.059 425.286 -8.256 Q 426.862 -9.454 427.933 -11.281 Q 429.005 -13.109 429.54 -15.283 Q 430.076 -17.458 430.076 -19.411 Q 430.076 -22.626 429.068 -24.359 Q 428.059 -26.092 425.412 -26.092 Z M 465.747 -25.084 Q 464.487 -25.399 463.258 -25.682 Q 462.029 -25.966 459.634 -25.966 Q 458.752 -25.966 457.68 -25.808 Q 456.609 -25.651 455.916 -25.462 L 449.802 0 L 440.412 0 L 447.975 -31.386 Q 450.685 -32.268 454.056 -33.056 Q 457.428 -33.844 461.651 -33.844 Q 463.226 -33.844 465.149 -33.56 Q 467.071 -33.277 468.52 -32.646 Z M 480.18 -21.176 Q 483.962 -24.201 487.302 -27.352 Q 490.642 -30.504 493.037 -33.151 L 503.625 -33.151 Q 500.096 -29.243 496.283 -25.493 Q 492.47 -21.743 487.554 -17.521 Q 488.877 -15.882 490.233 -13.739 Q 491.588 -11.596 492.816 -9.265 Q 494.045 -6.933 495.085 -4.538 Q 496.125 -2.143 496.819 0 L 486.357 0 Q 485.789 -1.639 484.938 -3.592 Q 484.088 -5.546 483.048 -7.468 Q 482.008 -9.391 480.873 -11.218 Q 479.739 -13.046 478.605 -14.496 L 475.075 0 L 465.748 0 L 477.092 -47.394 L 486.861 -48.907 Z" transform="matrix(1, 0, 0, -1, 232.270004, 162.979996)" style="fill: rgb(204, 204, 204);"/>
      </g>
    </g>
    <g transform="">
      <path d="M 15.84 150 L 250.8 150 L 250.8 384.96 L 15.84 384.96 Z" style="fill: none;"/>
    </g>
    <g style="clip-path: url('#clippath2');">
      <g transform="matrix(3.81675568 -0.0000002199 -0.0000000281 3.81675568 15.84 150)">
        <path d="M 42.958 13.932 C 42.257 14.324 45.748 18.978 49.348 24.007 C 52.947 29.036 55.38 32.841 56.138 33.966 C 56.895 35.092 57.014 35.064 56.615 36.893 C 56.216 38.723 55.946 39.507 55.31 41.012 C 53.625 45.004 51.356 48.203 48.263 50.771 C 45.168 53.339 41.545 55.417 37.686 56.411 C 33.828 57.404 29.955 57.6 25.978 56.868 C 22.002 56.137 17.91 54.133 14.46 51.525 C 9.7314 47.948 6.7248 42.819 5.4331 38.573 C 4.1414 34.326 4.254 27.708 5.8242 22.946 C 7.3945 18.184 9.4566 14.378 13.266 10.94 C 17.074 7.5015 22.067 5.1851 27.798 4.4642 C 29.236 4.2831 30.912 4.2831 32.374 4.356 C 33.838 4.429 35.25 4.6593 36.689 4.9724 C 38.127 5.2854 39.522 5.6841 40.882 6.2232 C 42.243 6.7624 43.527 7.5544 44.783 8.2631 C 47.058 9.545 48.904 12.759 48.771 12.853 C 48.503 13.048 45.112 12.729 42.958 13.932 Z" style="fill: rgb(247, 147, 26); fill-opacity: 1;"/>
        <path d="M 0.085236 0.034412 L 61.525236 0.034412 L 61.525236 61.474412 L 0.085236 61.474412 Z" style="fill: none;"/>
      </g>
    </g>
    <g style="clip-path: url('#clippath3');">
      <g transform="matrix(3.81675568 -0.0000002199 -0.0000000281 3.81675568 15.84 150)">
        <path d="M 56.299 31.589 C 56.299 31.589 57.702 34.396 57.186 30.862 C 57.095 30.24 54.622 19.367 54.622 19.367 C 54.622 19.364 59.415 19.073 59.415 19.073 C 60.284 19.082 59.863 18.441 59.863 18.441 L 47.08 1.7837 C 45.242 -0.73506 46.112 2.2256 46.137 2.6584 C 48.372 9.1353 49.709 12.805 50.151 13.657 C 50.151 13.657 44.504 14.38 44.536 14.84 L 44.536 14.923 C 44.554 15.136 45.986 17.173 48.841 21.03 C 53.152 27.091 48.851 21.013 56.299 31.589 Z" style="fill: rgb(255, 186, 0); fill-opacity: 1;"/>
      </g>
    </g>
    <g style="clip-path: url('#clippath2');">
      <g transform="matrix(3.81675568 -0.0000002199 -0.0000000281 3.81675568 15.84 150)">
        <path d="M 44.291 34.152 C 44.855 37.798 41.984 39.758 38.057 41.064 L 39.334 46.001 L 36.221 46.751 L 34.982 41.945 C 34.165 42.14 33.325 42.325 32.491 42.509 L 33.74 47.352 L 30.633 48.096 L 29.357 43.166 C 28.681 43.312 28.016 43.458 27.372 43.614 L 27.374 43.63 L 23.087 44.662 L 22.261 41.454 C 22.261 41.454 24.565 40.942 24.518 40.91 C 25.778 40.608 26.006 39.803 25.967 39.163 L 22.476 25.636 C 22.325 25.268 21.934 24.713 21.05 24.925 C 21.084 24.88 18.792 25.467 18.792 25.467 L 17.248 22.029 L 21.294 21.053 C 22.047 20.873 22.787 20.68 23.514 20.502 L 22.225 15.508 L 25.332 14.758 L 26.604 19.699 C 27.454 19.477 28.277 19.271 29.084 19.078 L 27.813 14.157 L 30.923 13.412 L 32.21 18.394 C 37.511 17.427 41.499 17.817 43.18 22.453 C 44.528 26.182 43.113 28.338 40.319 29.741 C 42.351 30.194 43.882 31.487 44.291 34.152 Z M 37.187 24.525 C 36.224 20.792 29.723 22.809 27.614 23.314 L 29.324 29.932 C 31.432 29.424 38.193 28.419 37.187 24.525 Z M 38.147 34.208 C 37.27 30.811 31.862 32.538 30.104 32.961 L 31.654 38.961 C 33.407 38.538 39.062 37.75 38.147 34.208 Z" style="fill: rgb(250, 250, 250); fill-opacity: 1;"/>
      </g>
    </g>
    <g transform="">
      <path d="M 284.7 256.71 C 288.6 256.7 292.44 257.69 295.86 259.59 C 299.37 261.47 302.45 264.05 304.93 267.16 C 307.5 270.46 309.53 274.15 310.92 278.1 C 312.4 282.17 313.14 286.47 313.14 290.81 C 313.37 295.2 312.43 299.58 310.42 303.5 C 308.62 306.53 305.28 308.07 300.43 308.07 C 298.32 308 296.22 307.72 294.16 307.22 C 291.61 306.65 289.25 305.42 287.31 303.66 L 276.23 257.34 L 278.01 257 C 278.54 256.87 279.08 256.79 279.62 256.75 C 280.31 256.67 281.01 256.63 281.71 256.65 L 284.69 256.71 Z M 306.7 329.13 C 311.54 329.24 316.34 328.25 320.74 326.24 C 324.57 324.42 327.93 321.75 330.57 318.44 C 333.27 315.02 335.26 311.09 336.42 306.88 C 337.69 302.24 338.31 297.45 338.28 292.64 C 338.27 277.68 332.48 263.31 322.1 252.53 C 317.07 247.37 311.09 243.24 304.49 240.36 C 297.56 237.31 290.07 235.75 282.5 235.8 L 277.15 235.8 C 274.24 235.9 271.34 236.15 268.46 236.55 C 264.94 237.06 261.45 237.76 258.01 238.64 C 254.4 239.5 250.9 240.75 247.56 242.37 L 276.92 365.42 L 303.15 369.6 L 292.7 325.93 C 294.88 326.91 297.14 327.7 299.45 328.29 C 301.84 328.87 304.29 329.16 306.75 329.15 L 306.7 329.12 Z" style="fill-rule: evenodd; fill-opacity: 1; fill: rgb(204, 204, 204);"/>
      <path d="M 377.62 338.03 C 374.2 338 370.86 339.09 368.12 341.14 C 365.22 343.44 363.65 347.02 363.94 350.71 C 363.93 353.01 364.42 355.29 365.38 357.38 C 366.31 359.41 367.6 361.25 369.21 362.81 C 370.82 364.33 372.68 365.56 374.71 366.44 C 376.83 367.35 379.11 367.81 381.41 367.8 C 384.81 367.81 388.11 366.71 390.82 364.67 C 393.72 362.37 395.29 358.78 395.01 355.1 C 395.03 352.79 394.54 350.51 393.59 348.42 C 392.66 346.39 391.37 344.56 389.78 343.01 C 388.17 341.47 386.31 340.24 384.27 339.37 C 382.16 338.46 379.88 338.01 377.58 338.03 L 377.62 338.03 Z M 365.43 238.2 L 340.32 238.2 L 361.53 327.19 L 386.79 327.19 L 365.42 238.2 Z" style="fill-rule: evenodd; fill-opacity: 1; fill: rgb(204, 204, 204);"/>
      <path d="M 408.68 349.35 L 434.91 353.4 L 428.39 327.17 L 456.48 327.17 L 451.42 306.52 L 423.56 306.52 L 416.12 275.46 C 415.48 273.08 415.08 270.65 414.93 268.19 C 414.78 266.2 415.07 264.2 415.78 262.34 C 416.48 260.67 417.78 259.32 419.42 258.55 C 421.78 257.51 424.36 257.03 426.95 257.17 C 429.59 257.16 432.23 257.42 434.82 257.95 C 437.44 258.46 440.01 259.15 442.52 260.04 L 444.4 240.72 C 440.8 239.43 437.12 238.36 433.38 237.53 C 428.77 236.55 424.06 236.09 419.34 236.17 C 411.54 236.17 405.52 237.34 401.22 239.64 C 397.19 241.69 393.96 245.03 392.06 249.13 C 390.21 253.48 389.4 258.2 389.7 262.92 C 389.98 268.46 390.77 273.96 392.06 279.35 L 408.68 349.43 L 408.68 349.35 Z" style="fill-rule: evenodd; fill-opacity: 1; fill: rgb(204, 204, 204);"/>
      <path d="M 455.58 273.75 C 455.53 281.14 456.79 288.48 459.3 295.43 C 461.66 302 465.28 308.04 469.96 313.22 C 474.67 318.36 480.41 322.44 486.79 325.23 C 493.76 328.24 501.29 329.74 508.87 329.63 C 513.46 329.69 518.03 329.21 522.5 328.19 C 526.25 327.3 529.9 326.03 533.4 324.39 L 524.69 304.8 C 522.43 305.72 520.09 306.51 517.67 307.24 C 514.78 308.05 511.79 308.42 508.79 308.35 C 501.22 308.63 493.93 305.42 489.01 299.65 C 484.12 293.9 481.67 286.16 481.65 276.45 C 481.42 271.52 482.72 266.64 485.37 262.48 C 487.85 258.92 492.42 257.15 499.08 257.15 C 502.27 257.14 505.45 257.49 508.56 258.17 C 511.34 258.76 514.06 259.61 516.69 260.7 L 518.55 240.54 C 515.13 239.25 511.64 238.15 508.1 237.24 C 503.61 236.23 499.01 235.75 494.4 235.82 C 488.28 235.64 482.19 236.67 476.47 238.85 C 471.93 240.69 467.84 243.49 464.48 247.07 C 461.3 250.54 458.95 254.69 457.61 259.2 C 456.19 263.94 455.49 268.88 455.52 273.83 L 455.58 273.75 Z" style="fill-rule: evenodd; fill-opacity: 1; fill: rgb(204, 204, 204);"/>
      <path d="M 579.38 308.26 C 575.84 308.31 572.39 307.18 569.56 305.06 C 566.69 302.84 564.28 300.07 562.47 296.93 C 560.48 293.58 558.99 289.96 558.04 286.18 C 557.12 282.56 556.64 278.84 556.62 275.11 C 556.39 270.54 557.32 266 559.32 261.9 C 561.14 258.74 564.4 257.15 569.14 257.15 C 572.68 257.09 576.14 258.22 578.96 260.37 C 581.84 262.59 584.25 265.36 586.07 268.5 C 588.03 271.85 589.48 275.47 590.4 279.24 C 591.31 282.87 591.78 286.6 591.82 290.34 C 592.05 294.9 591.12 299.45 589.12 303.55 C 587.3 306.69 584.02 308.28 579.3 308.28 L 579.38 308.26 Z M 566.84 235.81 C 561.51 235.69 556.22 236.61 551.25 238.53 C 547.07 240.18 543.33 242.78 540.34 246.14 C 537.4 249.52 535.18 253.47 533.82 257.74 C 532.34 262.53 531.63 267.52 531.73 272.54 C 531.74 279.44 532.85 286.29 535.01 292.85 C 537.11 299.45 540.38 305.62 544.66 311.06 C 548.97 316.5 554.32 321.02 560.4 324.35 C 566.95 327.87 574.29 329.65 581.72 329.51 C 587.01 329.61 592.28 328.69 597.23 326.79 C 601.41 325.17 605.17 322.6 608.2 319.29 C 611.12 315.9 613.34 311.96 614.7 307.69 C 616.19 302.9 616.89 297.89 616.79 292.87 C 616.77 285.98 615.69 279.12 613.59 272.56 C 611.53 265.95 608.32 259.76 604.1 254.27 C 599.86 248.81 594.53 244.29 588.45 240.99 C 581.8 237.46 574.37 235.67 566.84 235.81 Z" style="fill-rule: evenodd; fill-opacity: 1; fill: rgb(204, 204, 204);"/>
      <path d="M 656.37 338.03 C 652.96 338 649.62 339.09 646.89 341.14 C 643.99 343.44 642.42 347.02 642.71 350.71 C 642.7 353.01 643.19 355.29 644.15 357.38 C 645.05 359.4 646.31 361.24 647.88 362.81 C 649.49 364.33 651.36 365.56 653.4 366.44 C 655.51 367.35 657.78 367.81 660.08 367.8 C 663.5 367.83 666.85 366.73 669.58 364.67 C 672.48 362.37 674.05 358.78 673.77 355.1 C 673.77 352.79 673.27 350.51 672.3 348.42 C 671.39 346.39 670.11 344.55 668.51 343.01 C 666.91 341.47 665.05 340.24 663.01 339.37 C 660.91 338.47 658.65 338.02 656.37 338.03 Z M 644.2 238.2 L 619.08 238.2 L 640.26 327.19 L 665.54 327.19 L 644.2 238.2 Z" style="fill-rule: evenodd; fill-opacity: 1; fill: rgb(204, 204, 204);"/>
      <path d="M 683.62 323.12 C 685.53 323.66 687.64 324.33 689.89 325.06 C 692.15 325.79 694.78 326.46 697.69 327.15 C 700.87 327.82 704.09 328.33 707.32 328.67 C 711.34 329.1 715.38 329.3 719.42 329.28 C 732.63 329.28 741.74 325.44 746.76 317.77 C 749.76 313.18 751.28 307.57 751.32 300.96 L 751.32 300.48 C 751.3 296.18 750.65 291.45 749.39 286.31 L 737.88 238.28 L 712.72 238.28 L 723.9 285.31 C 724.56 288.23 725.11 291.07 725.51 293.85 C 725.94 296.25 725.94 298.71 725.51 301.11 C 725.09 303.12 723.98 304.91 722.37 306.19 C 720.14 307.65 717.49 308.33 714.83 308.13 C 711.48 308.12 708.14 307.78 704.86 307.1 L 688.43 238.2 L 663.12 238.2 L 683.62 323.12 Z" style="fill-rule: evenodd; fill-opacity: 1; fill: rgb(204, 204, 204);"/>
    </g>
  </g>
</svg>