<?xml version="1.0" encoding="utf-8"?>
<svg viewBox="0 0 100 100" xmlns="http://www.w3.org/2000/svg">
  <defs>
    <mask id="ring">
      <rect x="0" y="0" width="500" height="500" fill="white"/>
      <circle style="fill: none; fill-rule: evenodd; stroke: rgb(0, 0, 0); stroke-width: 2.5px;" cx="77.799" cy="79.061" r="10.924" transform="matrix(1, 0, 0, 1, 1.4210854715202004e-14, 0)">
        <title>Bolt ball ring</title>
      </circle>
    </mask>
  </defs>
  <rect x="0" y="0" width="100" height="100" style="fill: none; stroke: rgb(0, 0, 0); stroke-width: 0;" transform="matrix(0.9999999999999999, 0, 0, 0.9999999999999999, 0, -3.552713678800501e-15)">
    <title>Area</title>
  </rect>
  <circle mask="url(#ring)" style="fill: rgb(247, 147, 26); fill-rule: evenodd;" cx="49.636" cy="49.636" r="36.036" transform="matrix(0.9999999999999999, 0, 0, 0.9999999999999999, 1.4210854715202004e-14, -3.552713678800501e-15)">
    <title>B ball</title>
  </circle>
  <path fill="#FAFAFA" d="M 66.784 45.164 C 67.503 40.368 63.851 37.79 58.859 36.071 L 60.478 29.575 L 56.524 28.59 L 54.948 34.914 C 53.908 34.655 52.84 34.411 51.779 34.169 L 53.367 27.802 L 49.415 26.817 L 47.795 33.31 C 46.934 33.115 46.089 32.921 45.27 32.717 L 45.274 32.697 L 39.821 31.335 L 38.769 35.559 C 38.769 35.559 41.703 36.231 41.641 36.272 C 43.243 36.672 43.532 37.732 43.484 38.572 L 39.046 56.368 C 38.85 56.854 38.354 57.584 37.234 57.306 C 37.273 57.364 34.36 56.589 34.36 56.589 L 32.397 61.116 L 37.543 62.398 C 38.5 62.638 39.438 62.889 40.362 63.126 L 38.725 69.696 L 42.675 70.682 L 44.295 64.181 C 45.374 64.474 46.422 64.744 47.446 64.998 L 45.832 71.469 L 49.786 72.454 L 51.422 65.897 C 58.164 67.172 63.235 66.657 65.369 60.559 C 67.089 55.649 65.284 52.817 61.736 50.97 C 64.32 50.374 66.265 48.674 66.784 45.164 Z M 57.751 57.833 C 56.528 62.743 48.261 60.088 45.58 59.423 L 47.752 50.718 C 50.432 51.387 59.028 52.711 57.751 57.833 Z M 58.973 45.093 C 57.858 49.56 50.978 47.29 48.745 46.734 L 50.714 38.839 C 52.946 39.396 60.134 40.434 58.973 45.093 Z" style="" transform="matrix(0.9999999999999999, 0, 0, 0.9999999999999999, 1.4210854715202004e-14, -3.552713678800501e-15)">
    <title>BTC</title>
  </path>
  <circle style="fill: rgb(247, 147, 26); fill-rule: evenodd;" cx="78.862" cy="54.749" r="8.946" transform="matrix(1.2211140394210815, 0, 0, 1.247514009475708, -18.500944137573242, 10.760902404785153)">
    <title>Bolt Ball</title>
  </circle>
  <path d="M 80.034 71.18 C 80.284 71.223 80.405 71.332 80.391 71.511 C 80.372 71.846 79.907 73.815 78.999 77.42 L 78.992 77.552 C 78.992 77.554 79.022 77.557 79.085 77.561 L 81.466 77.709 C 81.61 77.718 81.725 77.832 81.812 78.05 L 81.799 78.244 L 75.099 86.943 C 74.763 86.863 74.599 86.707 74.612 86.476 C 75.766 83.017 76.456 81.057 76.684 80.602 L 76.854 80.612 C 74.792 80.429 73.769 80.216 73.785 79.97 L 73.785 79.926 C 73.795 79.812 74.534 78.724 76.008 76.664 C 78.233 73.427 79.512 71.627 79.838 71.257 L 80.034 71.18 Z" style="fill: rgb(255, 255, 255); fill-opacity: 1;" transform="matrix(0.9999999999999999, 0, 0, 0.9999999999999999, 1.4210854715202004e-14, -3.552713678800501e-15)">
    <title>Lightning bolt</title>
  </path>
</svg>