<?xml version="1.0" encoding="UTF-8" standalone="no"?>
<svg
   viewBox="0 0 4091.27 4091.73"
   shape-rendering="geometricPrecision"
   text-rendering="geometricPrecision"
   image-rendering="optimizeQuality"
   fill-rule="evenodd"
   clip-rule="evenodd"
   version="1.1"
   id="svg2"
   sodipodi:docname="bitcoin-btc-logo_clitch_removed-Inkscape.svg"
   inkscape:version="1.3.2 (091e20e, 2023-11-25, custom)"
   xml:space="preserve"
   xmlns:inkscape="http://www.inkscape.org/namespaces/inkscape"
   xmlns:sodipodi="http://sodipodi.sourceforge.net/DTD/sodipodi-0.dtd"
   xmlns="http://www.w3.org/2000/svg"
   xmlns:svg="http://www.w3.org/2000/svg"><defs
     id="defs2" /><sodipodi:namedview
     id="namedview2"
     pagecolor="#ffffff"
     bordercolor="#000000"
     borderopacity="0.25"
     inkscape:showpageshadow="2"
     inkscape:pageopacity="0.0"
     inkscape:pagecheckerboard="0"
     inkscape:deskcolor="#d1d1d1"
     inkscape:zoom="0.20504774"
     inkscape:cx="2040.9881"
     inkscape:cy="2036.1112"
     inkscape:window-width="1920"
     inkscape:window-height="1017"
     inkscape:window-x="1912"
     inkscape:window-y="-8"
     inkscape:window-maximized="1"
     inkscape:current-layer="Layer_x0020_1" /><g
     id="Layer_x0020_1"><g
       id="_1421344023328"
       inkscape:label="Aims"><rect
         style="fill:#ff0000;fill-opacity:0;stroke:#ff0000;stroke-width:0.620298"
         id="rect2"
         width="15.010442"
         height="3877.5254"
         x="2038.1298"
         y="107.10226"
         inkscape:label="Horizontal" /><rect
         style="fill:#ff0000;fill-opacity:0;stroke:#ff0000;stroke-width:0.520783"
         id="rect2-6"
         width="4009.3018"
         height="10.232748"
         x="68.479874"
         y="2040.7487"
         inkscape:label="Vertical" /></g><g
       transform="matrix(41.680516,0,0,40.285188,-13677.277,-14986.451)"
       id="bitcoin and bolt"
       style="opacity:1"><rect
         x="328.375"
         y="372.25201"
         width="97.698997"
         height="101.083"
         style="fill:none"
         id="rect1" /><path
         d="m 396.55,450.47 c -1.115,-0.645 4.436,-8.302 10.161,-16.575 5.722,-8.275 9.591,-14.534 10.796,-16.386 1.205,-1.852 1.394,-1.805 0.759,-4.815 -0.635,-3.01 -1.063,-4.301 -2.075,-6.777 -2.68,-6.567 -6.288,-11.83 -11.206,-16.055 -4.921,-4.225 -10.683,-7.644 -16.819,-9.279 -6.135,-1.634 -12.293,-1.956 -18.617,-0.752 -6.323,1.203 -12.83,4.5 -18.316,8.791 -7.519,5.885 -12.3,14.323 -14.354,21.309 -2.054,6.986 -1.875,17.874 0.622,25.709 2.497,7.835 5.776,14.097 11.833,19.753 6.056,5.657 13.996,9.468 23.108,10.654 2.287,0.298 4.953,0.298 7.278,0.178 2.328,-0.12 4.573,-0.499 6.86,-1.014 2.288,-0.515 4.506,-1.171 6.668,-2.058 2.165,-0.887 4.206,-2.19 6.204,-3.356 3.617,-2.109 6.552,-7.396 6.341,-7.551 -0.426,-0.322 -5.819,0.204 -9.243,-1.776 z"
         fill="#f7931a"
         id="path5"><title
           id="ball">B ball Zapped</title></path><path
         d="m 417.763,421.42 c 0,0 2.231,-4.618 1.411,1.197 -0.144,1.023 -4.077,18.911 -4.077,18.911 0,0.005 7.622,0.484 7.622,0.484 1.382,-0.014 0.712,1.04 0.712,1.04 l -20.327,27.405 c -2.923,4.144 -1.539,-0.727 -1.5,-1.439 3.555,-10.656 5.681,-16.693 6.384,-18.095 0,0 -8.98,-1.189 -8.93,-1.947 v -0.136 c 0.029,-0.35 2.306,-3.702 6.847,-10.048 6.854,-9.972 0.016,0.028 11.858,-17.372 z"
         style="fill:#ffba00;fill-opacity:1"
         id="path6"><title
           id="bolt">Lightning bolt</title></path><path
         fill="white"
         fill-rule="nonzero"
         d="m 2947.77,1754.38 c 40.72,-272.26 -166.56,-418.61 -450,-516.24 l 91.95,-368.8 -224.5,-55.94 -89.51,359.09 c -59.02,-14.72 -119.63,-28.59 -179.87,-42.34 l 90.16,-361.46 -224.36,-55.94 -92,368.68 c -48.84,-11.12 -96.81,-22.11 -143.35,-33.69 l 0.26,-1.16 -309.59,-77.31 -59.72,239.78 c 0,0 166.56,38.18 163.05,40.53 90.91,22.69 107.35,82.87 104.62,130.57 l -251.94,1010.34 c -11.11,27.62 -39.31,69.07 -102.87,53.33 2.25,3.26 -163.17,-40.72 -163.17,-40.72 l -111.46,256.98 292.15,72.83 c 54.35,13.63 107.61,27.89 160.06,41.3 l -92.9,373.03 224.24,55.94 92,-369.07 c 61.26,16.63 120.71,31.97 178.91,46.43 l -91.69,367.33 224.51,55.94 92.89,-372.33 c 382.82,72.45 670.67,43.24 791.83,-303.02 97.63,-278.78 -4.86,-439.58 -206.26,-544.44 146.69,-33.83 257.18,-130.31 286.64,-329.61 l -0.07,-0.05 z m -512.93,719.26 c -69.38,278.78 -538.76,128.08 -690.94,90.29 l 123.28,-494.2 c 152.17,37.99 640.17,113.17 567.67,403.91 z m 69.43,-723.3 c -63.29,253.58 -453.96,124.75 -580.69,93.16 l 111.77,-448.21 c 126.73,31.59 534.85,90.55 468.94,355.05 z"
         id="path2"
         style="display:inline;opacity:1;fill:#ffffff;fill-opacity:1"
         transform="matrix(0.02399203,0,0,0.02482302,328.14558,372.00896)" /></g></g></svg>
