<?xml version="1.0" encoding="utf-8"?>
<svg viewBox="0 0 1280 640" xmlns="http://www.w3.org/2000/svg">
  <defs>
    <mask id="ring">
      <rect x="68.709" y="69.026" width="1314.546" height="1314.546" fill="white"/>
      <circle style="fill: none; fill-rule: evenodd; stroke: rgb(0, 0, 0); stroke-width: 5px;" cx="273.25" cy="276.885" r="28.72">
        <title>Bolt ball ring</title>
      </circle>
    </mask>
  </defs>
  <rect width="1280" height="640" style="fill: none; stroke: none;" transform="matrix(0.9999999999999999, 0, 0, 0.9999999999999999, 0, -1.1368683772161603e-13)"/>
  <g style="" transform="matrix(1.6717109680175781, 0, 0, 1.6717109680175781, -114.59212493896484, -33.30875396728527)">
    <path d="M 361.172 154.087 C 366.293 154.087 370.72 154.994 374.454 156.807 C 378.188 158.621 381.282 161.075 383.736 164.169 C 386.189 167.263 388.003 170.89 389.177 175.051 C 390.35 179.212 390.937 183.692 390.937 188.493 C 390.937 195.854 389.577 202.816 386.856 209.377 C 384.136 215.938 380.429 221.646 375.734 226.5 C 371.04 231.355 365.492 235.196 359.091 238.023 C 352.69 240.85 345.755 242.263 338.287 242.263 C 337.327 242.263 335.647 242.236 333.246 242.183 C 330.846 242.13 328.099 241.89 325.005 241.463 C 321.911 241.036 318.63 240.396 315.163 239.543 C 311.696 238.69 308.415 237.516 305.321 236.022 L 333.006 119.68 L 357.811 115.84 L 347.889 157.127 C 350.023 156.167 352.157 155.42 354.29 154.887 C 356.424 154.354 358.718 154.087 361.172 154.087 Z M 340.368 222.58 C 344.102 222.58 347.623 221.673 350.93 219.859 C 354.237 218.046 357.091 215.619 359.491 212.578 C 361.892 209.537 363.785 206.097 365.172 202.256 C 366.559 198.415 367.253 194.415 367.253 190.254 C 367.253 185.133 366.399 181.132 364.692 178.251 C 362.985 175.371 359.838 173.931 355.25 173.931 C 353.757 173.931 351.81 174.198 349.409 174.731 C 347.009 175.264 344.849 176.384 342.928 178.091 L 332.366 221.94 C 333.006 222.047 333.566 222.153 334.046 222.26 C 334.527 222.367 335.034 222.447 335.567 222.5 C 336.1 222.553 336.74 222.58 337.487 222.58 C 338.234 222.58 339.194 222.58 340.368 222.58 Z M 421.023 240.023 L 397.338 240.023 L 417.342 155.847 L 441.187 155.847 L 421.023 240.023 Z M 432.545 145.605 C 429.238 145.605 426.25 144.618 423.583 142.645 C 420.916 140.671 419.583 137.657 419.583 133.603 C 419.583 131.362 420.036 129.255 420.943 127.282 C 421.85 125.308 423.05 123.601 424.544 122.161 C 426.037 120.72 427.771 119.573 429.744 118.72 C 431.718 117.867 433.825 117.44 436.066 117.44 C 439.373 117.44 442.36 118.427 445.027 120.401 C 447.694 122.374 449.028 125.388 449.028 129.442 C 449.028 131.683 448.575 133.79 447.668 135.763 C 446.761 137.737 445.561 139.444 444.067 140.884 C 442.574 142.325 440.84 143.472 438.866 144.325 C 436.893 145.178 434.786 145.605 432.545 145.605 Z M 465.511 134.883 L 490.316 131.043 L 484.235 155.847 L 510.8 155.847 L 505.999 175.371 L 479.594 175.371 L 472.553 204.816 C 471.913 207.27 471.513 209.564 471.352 211.698 C 471.192 213.831 471.459 215.672 472.153 217.219 C 472.846 218.766 474.046 219.966 475.753 220.819 C 477.46 221.673 479.808 222.1 482.795 222.1 C 485.355 222.1 487.835 221.86 490.236 221.38 C 492.637 220.899 495.064 220.232 497.517 219.379 L 499.278 237.623 C 496.077 238.796 492.61 239.81 488.876 240.663 C 485.142 241.516 480.714 241.943 475.593 241.943 C 468.232 241.943 462.524 240.85 458.47 238.663 C 454.416 236.476 451.535 233.488 449.828 229.701 C 448.121 225.914 447.375 221.566 447.588 216.659 C 447.801 211.751 448.548 206.577 449.828 201.136 L 465.511 134.883 Z M 514 206.417 C 514 199.162 515.174 192.334 517.521 185.933 C 519.868 179.532 523.228 173.931 527.603 169.13 C 531.977 164.329 537.285 160.541 543.526 157.768 C 549.767 154.994 556.728 153.607 564.409 153.607 C 569.21 153.607 573.505 154.06 577.292 154.967 C 581.079 155.874 584.52 157.074 587.614 158.568 L 579.452 177.131 C 577.319 176.278 575.105 175.504 572.811 174.811 C 570.517 174.118 567.716 173.771 564.409 173.771 C 556.408 173.771 550.113 176.465 545.526 181.852 C 540.939 187.24 538.645 194.575 538.645 203.856 C 538.645 209.297 539.818 213.698 542.165 217.059 C 544.512 220.42 548.833 222.1 555.128 222.1 C 558.222 222.1 561.209 221.78 564.089 221.139 C 566.97 220.499 569.53 219.699 571.771 218.739 L 573.531 237.783 C 570.544 238.956 567.263 239.996 563.689 240.903 C 560.115 241.81 555.768 242.263 550.647 242.263 C 544.032 242.263 538.431 241.303 533.844 239.383 C 529.256 237.462 525.469 234.875 522.482 231.621 C 519.495 228.368 517.334 224.554 516 220.179 C 514.667 215.805 514 211.218 514 206.417 Z M 624.101 242.263 C 618.447 242.263 613.539 241.41 609.378 239.703 C 605.217 237.996 601.777 235.595 599.057 232.502 C 596.336 229.408 594.282 225.754 592.895 221.54 C 591.508 217.325 590.815 212.658 590.815 207.537 C 590.815 201.136 591.855 194.734 593.936 188.333 C 596.016 181.932 599.083 176.171 603.137 171.05 C 607.191 165.929 612.152 161.742 618.02 158.488 C 623.888 155.234 630.609 153.607 638.184 153.607 C 643.731 153.607 648.612 154.46 652.827 156.167 C 657.041 157.874 660.508 160.275 663.229 163.369 C 665.949 166.462 668.003 170.116 669.39 174.331 C 670.777 178.545 671.47 183.212 671.47 188.333 C 671.47 194.734 670.457 201.136 668.43 207.537 C 666.403 213.938 663.415 219.699 659.468 224.82 C 655.521 229.941 650.586 234.129 644.665 237.383 C 638.744 240.636 631.889 242.263 624.101 242.263 Z M 635.943 173.771 C 632.422 173.771 629.329 174.784 626.662 176.811 C 623.995 178.838 621.754 181.399 619.94 184.493 C 618.127 187.586 616.767 190.973 615.86 194.654 C 614.953 198.335 614.499 201.829 614.499 205.136 C 614.499 210.577 615.353 214.765 617.06 217.699 C 618.767 220.633 621.861 222.1 626.342 222.1 C 629.863 222.1 632.956 221.086 635.623 219.059 C 638.29 217.032 640.531 214.471 642.345 211.378 C 644.158 208.284 645.518 204.897 646.425 201.216 C 647.332 197.535 647.786 194.041 647.786 190.734 C 647.786 185.293 646.932 181.105 645.225 178.171 C 643.518 175.238 640.424 173.771 635.943 173.771 Z M 701.556 240.023 L 677.871 240.023 L 697.875 155.847 L 721.719 155.847 L 701.556 240.023 Z M 713.078 145.605 C 709.771 145.605 706.783 144.618 704.116 142.645 C 701.449 140.671 700.115 137.657 700.115 133.603 C 700.115 131.362 700.569 129.255 701.476 127.282 C 702.383 125.308 703.583 123.601 705.076 122.161 C 706.57 120.72 708.304 119.573 710.277 118.72 C 712.251 117.867 714.358 117.44 716.598 117.44 C 719.905 117.44 722.893 118.427 725.56 120.401 C 728.227 122.374 729.561 125.388 729.561 129.442 C 729.561 131.683 729.108 133.79 728.201 135.763 C 727.294 137.737 726.093 139.444 724.6 140.884 C 723.106 142.325 721.372 143.472 719.399 144.325 C 717.425 145.178 715.318 145.605 713.078 145.605 Z M 742.523 159.688 C 744.336 159.155 746.337 158.541 748.524 157.848 C 750.711 157.154 753.164 156.514 755.885 155.927 C 758.606 155.34 761.646 154.86 765.007 154.487 C 768.368 154.114 772.182 153.927 776.449 153.927 C 789.038 153.927 797.68 157.554 802.374 164.809 C 807.068 172.064 807.868 181.985 804.774 194.574 L 793.892 240.023 L 770.048 240.023 L 780.61 195.535 C 781.25 192.761 781.757 190.067 782.13 187.453 C 782.503 184.839 782.477 182.545 782.05 180.572 C 781.623 178.598 780.637 176.998 779.09 175.771 C 777.543 174.544 775.169 173.931 771.968 173.931 C 768.874 173.931 765.727 174.251 762.526 174.891 L 747.004 240.023 L 723.159 240.023 L 742.523 159.688 Z" style="fill: rgb(77, 77, 77);">
      <title>Bitcoin</title>
    </path>
    <path d="M 416.702 269.074 C 416.702 269.23 416.692 269.411 416.673 269.616 C 416.654 269.821 416.619 270.036 416.57 270.261 C 416.521 270.486 416.463 270.72 416.394 270.964 C 416.326 271.209 416.243 271.424 416.145 271.609 C 416.048 271.795 415.935 271.946 415.808 272.063 C 415.681 272.18 415.54 272.239 415.383 272.239 C 415.168 272.239 414.87 272.112 414.489 271.858 C 414.108 271.604 413.62 271.335 413.024 271.052 C 412.428 270.769 411.72 270.5 410.899 270.246 C 410.078 269.992 409.131 269.865 408.056 269.865 C 406.864 269.865 405.819 270.046 404.92 270.407 C 404.021 270.769 403.269 271.258 402.663 271.873 C 402.058 272.488 401.604 273.187 401.301 273.968 C 400.998 274.75 400.846 275.561 400.846 276.401 C 400.846 277.261 401.037 278.013 401.418 278.658 C 401.799 279.303 402.297 279.889 402.913 280.416 C 403.528 280.944 404.232 281.442 405.023 281.911 C 405.814 282.38 406.62 282.858 407.441 283.347 C 408.262 283.836 409.072 284.358 409.873 284.915 C 410.674 285.472 411.383 286.117 411.998 286.85 C 412.613 287.583 413.112 288.423 413.493 289.37 C 413.874 290.318 414.064 291.417 414.064 292.667 C 414.064 294.328 413.722 295.887 413.039 297.342 C 412.355 298.798 411.383 300.068 410.122 301.152 C 408.862 302.237 407.343 303.096 405.565 303.731 C 403.787 304.366 401.804 304.684 399.615 304.684 C 398.423 304.684 397.314 304.581 396.289 304.376 C 395.263 304.171 394.34 303.917 393.519 303.614 C 392.698 303.311 392.005 302.999 391.438 302.676 C 390.871 302.354 390.461 302.066 390.207 301.812 C 389.953 301.558 389.826 301.187 389.826 300.698 C 389.826 300.581 389.841 300.415 389.87 300.2 C 389.899 299.985 389.943 299.75 390.002 299.496 C 390.061 299.242 390.124 298.993 390.193 298.749 C 390.261 298.505 390.349 298.28 390.456 298.075 C 390.564 297.87 390.681 297.704 390.808 297.577 C 390.935 297.45 391.087 297.386 391.262 297.386 C 391.575 297.386 391.966 297.542 392.435 297.855 C 392.904 298.168 393.485 298.505 394.179 298.866 C 394.872 299.227 395.698 299.564 396.655 299.877 C 397.612 300.19 398.736 300.346 400.026 300.346 C 401.393 300.346 402.614 300.156 403.689 299.775 C 404.764 299.394 405.667 298.876 406.4 298.221 C 407.133 297.566 407.694 296.8 408.085 295.921 C 408.476 295.042 408.672 294.104 408.672 293.107 C 408.672 292.228 408.486 291.461 408.115 290.806 C 407.744 290.151 407.255 289.56 406.649 289.033 C 406.044 288.506 405.345 288.017 404.554 287.568 C 403.763 287.119 402.961 286.65 402.15 286.161 C 401.339 285.672 400.543 285.15 399.762 284.593 C 398.981 284.036 398.287 283.391 397.681 282.658 C 397.075 281.925 396.582 281.085 396.201 280.138 C 395.82 279.19 395.629 278.081 395.629 276.811 C 395.629 275.268 395.932 273.822 396.538 272.474 C 397.143 271.125 398.003 269.943 399.117 268.927 C 400.231 267.911 401.579 267.11 403.162 266.524 C 404.745 265.938 406.513 265.645 408.466 265.645 C 409.404 265.645 410.298 265.723 411.148 265.879 C 411.998 266.036 412.765 266.226 413.449 266.451 C 414.133 266.676 414.719 266.92 415.207 267.184 C 415.696 267.447 416.028 267.667 416.204 267.843 C 416.38 268.019 416.507 268.2 416.585 268.385 C 416.663 268.571 416.702 268.801 416.702 269.074 Z M 447.547 302.339 C 447.606 302.769 447.62 303.116 447.591 303.38 C 447.562 303.643 447.454 303.843 447.268 303.98 C 447.083 304.117 446.795 304.205 446.404 304.244 C 446.013 304.283 445.486 304.303 444.821 304.303 C 444.391 304.303 444.02 304.288 443.707 304.259 C 443.394 304.23 443.155 304.181 442.989 304.112 C 442.823 304.044 442.701 303.951 442.623 303.834 C 442.545 303.717 442.496 303.57 442.476 303.394 L 441.07 294.162 L 425.272 294.162 L 420.319 303.306 C 420.222 303.501 420.109 303.663 419.982 303.79 C 419.855 303.917 419.68 304.019 419.455 304.098 C 419.23 304.176 418.936 304.23 418.575 304.259 C 418.214 304.288 417.769 304.303 417.242 304.303 C 416.655 304.303 416.186 304.279 415.835 304.23 C 415.483 304.181 415.239 304.088 415.102 303.951 C 414.965 303.814 414.926 303.614 414.985 303.35 C 415.044 303.087 415.18 302.74 415.395 302.31 L 435.149 267.081 C 435.286 266.866 435.432 266.69 435.589 266.553 C 435.745 266.416 435.95 266.309 436.204 266.231 C 436.458 266.153 436.781 266.099 437.172 266.07 C 437.563 266.041 438.041 266.026 438.608 266.026 C 439.253 266.026 439.775 266.041 440.176 266.07 C 440.577 266.099 440.899 266.153 441.143 266.231 C 441.387 266.309 441.558 266.421 441.656 266.568 C 441.753 266.715 441.822 266.895 441.861 267.11 L 447.547 302.339 Z M 437.67 271.243 L 437.641 271.243 L 427.382 290.147 L 440.513 290.147 L 437.67 271.243 Z M 473.772 300.757 C 473.772 300.854 473.757 301.01 473.728 301.225 C 473.699 301.44 473.66 301.675 473.611 301.929 C 473.562 302.183 473.503 302.437 473.435 302.691 C 473.366 302.945 473.273 303.179 473.156 303.394 C 473.039 303.609 472.903 303.785 472.746 303.922 C 472.59 304.059 472.414 304.127 472.219 304.127 L 455.425 304.127 C 455.19 304.127 454.97 304.093 454.765 304.024 C 454.56 303.956 454.38 303.839 454.223 303.673 C 454.067 303.507 453.96 303.292 453.901 303.028 C 453.842 302.764 453.862 302.446 453.959 302.075 L 460.964 266.934 C 460.983 266.797 461.052 266.67 461.169 266.553 C 461.286 266.436 461.452 266.344 461.667 266.275 C 461.882 266.206 462.156 266.148 462.488 266.099 C 462.82 266.05 463.221 266.026 463.69 266.026 C 464.159 266.026 464.554 266.05 464.877 266.099 C 465.199 266.148 465.448 266.206 465.624 266.275 C 465.8 266.344 465.917 266.436 465.976 266.553 C 466.035 266.67 466.044 266.797 466.005 266.934 L 459.469 299.76 L 473.069 299.76 C 473.323 299.76 473.504 299.848 473.611 300.024 C 473.718 300.2 473.772 300.444 473.772 300.757 Z M 507.511 302.339 C 507.57 302.769 507.584 303.116 507.555 303.38 C 507.526 303.643 507.418 303.843 507.232 303.98 C 507.047 304.117 506.759 304.205 506.368 304.244 C 505.977 304.283 505.45 304.303 504.785 304.303 C 504.355 304.303 503.984 304.288 503.671 304.259 C 503.358 304.23 503.119 304.181 502.953 304.112 C 502.787 304.044 502.665 303.951 502.587 303.834 C 502.509 303.717 502.46 303.57 502.44 303.394 L 501.034 294.162 L 485.236 294.162 L 480.283 303.306 C 480.186 303.501 480.073 303.663 479.946 303.79 C 479.819 303.917 479.644 304.019 479.419 304.098 C 479.194 304.176 478.9 304.23 478.539 304.259 C 478.178 304.288 477.733 304.303 477.206 304.303 C 476.619 304.303 476.15 304.279 475.799 304.23 C 475.447 304.181 475.203 304.088 475.066 303.951 C 474.929 303.814 474.89 303.614 474.949 303.35 C 475.008 303.087 475.144 302.74 475.359 302.31 L 495.113 267.081 C 495.25 266.866 495.396 266.69 495.553 266.553 C 495.709 266.416 495.914 266.309 496.168 266.231 C 496.422 266.153 496.745 266.099 497.136 266.07 C 497.527 266.041 498.005 266.026 498.572 266.026 C 499.217 266.026 499.739 266.041 500.14 266.07 C 500.541 266.099 500.863 266.153 501.107 266.231 C 501.351 266.309 501.522 266.421 501.62 266.568 C 501.717 266.715 501.786 266.895 501.825 267.11 L 507.511 302.339 Z M 497.634 271.243 L 497.605 271.243 L 487.346 290.147 L 500.477 290.147 L 497.634 271.243 Z M 554.897 303.394 C 554.858 303.531 554.789 303.658 554.692 303.775 C 554.594 303.892 554.447 303.985 554.252 304.054 C 554.057 304.122 553.798 304.181 553.476 304.23 C 553.153 304.279 552.748 304.303 552.259 304.303 C 551.79 304.303 551.4 304.279 551.087 304.23 C 550.774 304.181 550.53 304.122 550.354 304.054 C 550.178 303.985 550.066 303.892 550.017 303.775 C 549.968 303.658 549.964 303.531 550.003 303.394 L 556.597 270.364 L 556.538 270.364 L 536.345 303.512 C 536.188 303.785 535.905 303.985 535.495 304.112 C 535.084 304.239 534.488 304.303 533.707 304.303 C 532.906 304.303 532.339 304.23 532.007 304.083 C 531.675 303.936 531.499 303.746 531.48 303.512 L 525.178 270.334 L 525.12 270.334 L 518.525 303.394 C 518.486 303.531 518.418 303.658 518.32 303.775 C 518.222 303.892 518.075 303.985 517.88 304.054 C 517.685 304.122 517.426 304.181 517.104 304.23 C 516.781 304.279 516.376 304.303 515.887 304.303 C 515.418 304.303 515.028 304.279 514.715 304.23 C 514.402 304.181 514.163 304.122 513.997 304.054 C 513.831 303.985 513.724 303.892 513.675 303.775 C 513.626 303.658 513.621 303.531 513.66 303.394 L 520.606 268.488 C 520.684 268.097 520.811 267.755 520.987 267.462 C 521.163 267.169 521.368 266.929 521.603 266.744 C 521.837 266.558 522.086 266.421 522.35 266.334 C 522.614 266.246 522.883 266.202 523.156 266.202 L 526.087 266.202 C 526.712 266.202 527.235 266.265 527.655 266.392 C 528.075 266.519 528.427 266.71 528.71 266.964 C 528.993 267.218 529.213 267.54 529.369 267.931 C 529.526 268.322 529.643 268.791 529.721 269.338 L 535.202 296.741 L 535.348 296.741 L 552.289 269.338 C 552.582 268.81 552.875 268.356 553.168 267.975 C 553.461 267.594 553.789 267.271 554.15 267.008 C 554.511 266.744 554.912 266.544 555.351 266.407 C 555.791 266.27 556.284 266.202 556.831 266.202 L 560.173 266.202 C 560.466 266.202 560.729 266.246 560.964 266.334 C 561.199 266.421 561.399 266.558 561.565 266.744 C 561.731 266.929 561.838 267.164 561.887 267.447 C 561.936 267.73 561.921 268.077 561.843 268.488 L 554.897 303.394 Z M 593.345 302.339 C 593.404 302.769 593.418 303.116 593.389 303.38 C 593.36 303.643 593.252 303.843 593.067 303.98 C 592.881 304.117 592.593 304.205 592.202 304.244 C 591.811 304.283 591.284 304.303 590.619 304.303 C 590.19 304.303 589.819 304.288 589.506 304.259 C 589.193 304.23 588.954 304.181 588.788 304.112 C 588.621 304.044 588.499 303.951 588.421 303.834 C 588.343 303.717 588.294 303.57 588.275 303.394 L 586.868 294.162 L 571.071 294.162 L 566.117 303.306 C 566.02 303.501 565.907 303.663 565.78 303.79 C 565.653 303.917 565.478 304.019 565.253 304.098 C 565.028 304.176 564.735 304.23 564.374 304.259 C 564.012 304.288 563.567 304.303 563.04 304.303 C 562.454 304.303 561.985 304.279 561.633 304.23 C 561.282 304.181 561.037 304.088 560.9 303.951 C 560.763 303.814 560.724 303.614 560.783 303.35 C 560.842 303.087 560.979 302.74 561.194 302.31 L 580.948 267.081 C 581.085 266.866 581.231 266.69 581.387 266.553 C 581.544 266.416 581.749 266.309 582.003 266.231 C 582.257 266.153 582.579 266.099 582.97 266.07 C 583.361 266.041 583.839 266.026 584.406 266.026 C 585.051 266.026 585.573 266.041 585.974 266.07 C 586.375 266.099 586.697 266.153 586.941 266.231 C 587.186 266.309 587.357 266.421 587.454 266.568 C 587.552 266.715 587.62 266.895 587.659 267.11 L 593.345 302.339 Z M 583.468 271.243 L 583.439 271.243 L 573.181 290.147 L 586.311 290.147 L 583.468 271.243 Z M 610.47 303.248 C 610.333 303.463 610.186 303.638 610.03 303.775 C 609.874 303.912 609.669 304.019 609.415 304.098 C 609.16 304.176 608.838 304.23 608.447 304.259 C 608.056 304.288 607.568 304.303 606.982 304.303 C 606.357 304.303 605.839 304.288 605.429 304.259 C 605.018 304.23 604.696 304.176 604.461 304.098 C 604.227 304.019 604.056 303.907 603.948 303.761 C 603.841 303.614 603.777 303.433 603.758 303.218 L 598.394 267.755 C 598.336 267.384 598.312 267.081 598.321 266.846 C 598.331 266.612 598.419 266.436 598.585 266.319 C 598.751 266.202 599.005 266.123 599.347 266.084 C 599.689 266.045 600.163 266.026 600.768 266.026 C 601.355 266.026 601.819 266.041 602.161 266.07 C 602.503 266.099 602.772 266.153 602.967 266.231 C 603.162 266.309 603.294 266.416 603.362 266.553 C 603.431 266.69 603.484 266.857 603.523 267.052 L 607.949 298.939 L 607.978 298.939 L 624.889 267.022 C 624.987 266.827 625.099 266.666 625.226 266.539 C 625.353 266.412 625.524 266.309 625.739 266.231 C 625.954 266.153 626.243 266.099 626.604 266.07 C 626.965 266.041 627.439 266.026 628.025 266.026 C 628.631 266.026 629.11 266.05 629.462 266.099 C 629.813 266.148 630.057 266.241 630.194 266.378 C 630.331 266.515 630.37 266.715 630.312 266.978 C 630.253 267.242 630.107 267.589 629.872 268.019 L 610.47 303.248 Z M 657.106 267.169 C 657.106 267.266 657.101 267.418 657.092 267.623 C 657.082 267.828 657.053 268.048 657.004 268.283 C 656.955 268.517 656.896 268.761 656.828 269.015 C 656.759 269.269 656.666 269.499 656.549 269.704 C 656.432 269.909 656.291 270.075 656.124 270.202 C 655.958 270.329 655.777 270.393 655.582 270.393 L 640.781 270.393 L 638.378 282.292 L 651.127 282.292 C 651.362 282.292 651.538 282.37 651.655 282.527 C 651.772 282.683 651.831 282.917 651.831 283.23 C 651.831 283.328 651.816 283.479 651.787 283.684 C 651.758 283.889 651.723 284.114 651.684 284.358 C 651.645 284.603 651.587 284.842 651.508 285.076 C 651.43 285.311 651.337 285.521 651.23 285.707 C 651.123 285.892 650.991 286.048 650.834 286.175 C 650.678 286.302 650.502 286.366 650.307 286.366 L 637.587 286.366 L 634.832 299.936 L 649.926 299.936 C 650.121 299.936 650.282 300.014 650.409 300.17 C 650.536 300.327 650.6 300.571 650.6 300.903 C 650.6 301.02 650.59 301.186 650.571 301.401 C 650.551 301.616 650.517 301.841 650.468 302.075 C 650.419 302.31 650.361 302.549 650.292 302.793 C 650.223 303.038 650.131 303.263 650.014 303.468 C 649.897 303.673 649.755 303.834 649.589 303.951 C 649.423 304.068 649.242 304.127 649.046 304.127 L 630.817 304.127 C 630.602 304.127 630.391 304.093 630.186 304.024 C 629.981 303.956 629.806 303.839 629.659 303.673 C 629.512 303.507 629.41 303.292 629.351 303.028 C 629.292 302.764 629.312 302.446 629.41 302.075 L 636.18 268.253 C 636.317 267.491 636.62 266.959 637.089 266.656 C 637.558 266.353 638.017 266.202 638.466 266.202 L 656.432 266.202 C 656.881 266.202 657.106 266.524 657.106 267.169 Z M 687.101 274.144 C 687.101 275.493 686.91 276.773 686.529 277.984 C 686.148 279.195 685.572 280.309 684.8 281.325 C 684.028 282.341 683.061 283.245 681.898 284.036 C 680.736 284.827 679.383 285.467 677.839 285.956 C 678.875 286.327 679.715 287.109 680.36 288.3 C 681.005 289.492 681.503 291.065 681.854 293.019 L 683.408 301.401 C 683.467 301.772 683.52 302.119 683.569 302.442 C 683.618 302.764 683.642 303.052 683.642 303.306 C 683.642 303.482 683.593 303.634 683.496 303.761 C 683.398 303.888 683.242 303.99 683.027 304.068 C 682.812 304.147 682.514 304.205 682.133 304.244 C 681.752 304.283 681.288 304.303 680.741 304.303 C 680.233 304.303 679.823 304.283 679.51 304.244 C 679.197 304.205 678.958 304.137 678.792 304.039 C 678.626 303.942 678.509 303.82 678.44 303.673 C 678.371 303.526 678.318 303.326 678.279 303.072 L 676.784 294.162 C 676.628 293.127 676.408 292.189 676.125 291.348 C 675.842 290.508 675.446 289.78 674.938 289.165 C 674.43 288.55 673.78 288.071 672.989 287.729 C 672.198 287.387 671.235 287.216 670.102 287.216 L 666.731 287.216 L 663.478 303.394 C 663.439 303.531 663.37 303.658 663.273 303.775 C 663.175 303.892 663.019 303.985 662.804 304.054 C 662.589 304.122 662.315 304.181 661.983 304.23 C 661.651 304.279 661.241 304.303 660.752 304.303 C 660.303 304.303 659.917 304.283 659.595 304.244 C 659.272 304.205 659.023 304.152 658.847 304.083 C 658.671 304.014 658.549 303.922 658.481 303.805 C 658.412 303.688 658.398 303.551 658.437 303.394 L 665.471 268.253 C 665.627 267.491 665.94 266.959 666.409 266.656 C 666.878 266.353 667.395 266.202 667.962 266.202 L 676.198 266.202 C 677.995 266.202 679.573 266.378 680.931 266.729 C 682.289 267.081 683.427 267.594 684.346 268.268 C 685.264 268.942 685.953 269.772 686.412 270.759 C 686.871 271.746 687.101 272.874 687.101 274.144 Z M 681.649 274.936 C 681.649 274.271 681.532 273.656 681.298 273.089 C 681.063 272.522 680.697 272.034 680.199 271.624 C 679.7 271.213 679.046 270.901 678.235 270.686 C 677.424 270.471 676.462 270.364 675.348 270.364 L 670.102 270.364 L 667.523 283.142 L 671.977 283.142 C 673.716 283.142 675.197 282.908 676.418 282.439 C 677.639 281.97 678.636 281.349 679.407 280.578 C 680.179 279.806 680.746 278.931 681.107 277.954 C 681.468 276.977 681.649 275.971 681.649 274.936 Z M 722.302 266.993 C 722.302 267.247 722.199 267.521 721.994 267.814 C 721.789 268.107 721.472 268.458 721.042 268.869 L 705.303 284.226 L 715.239 301.9 C 715.415 302.232 715.537 302.501 715.605 302.706 C 715.674 302.911 715.708 303.091 715.708 303.248 C 715.708 303.424 715.669 303.58 715.591 303.717 C 715.512 303.854 715.38 303.961 715.195 304.039 C 715.009 304.117 714.745 304.181 714.404 304.23 C 714.062 304.279 713.627 304.303 713.099 304.303 C 712.552 304.303 712.108 304.283 711.766 304.244 C 711.424 304.205 711.15 304.152 710.945 304.083 C 710.74 304.014 710.583 303.917 710.476 303.79 C 710.369 303.663 710.276 303.511 710.198 303.336 L 699.823 284.402 L 696.071 303.365 C 696.052 303.521 695.988 303.658 695.881 303.775 C 695.773 303.892 695.612 303.985 695.397 304.054 C 695.182 304.122 694.909 304.181 694.576 304.23 C 694.244 304.279 693.844 304.303 693.375 304.303 C 692.886 304.303 692.481 304.279 692.158 304.23 C 691.836 304.181 691.587 304.122 691.411 304.054 C 691.235 303.985 691.118 303.892 691.059 303.775 C 691 303.658 690.991 303.521 691.03 303.365 L 698.298 266.934 C 698.318 266.797 698.387 266.67 698.504 266.553 C 698.621 266.436 698.787 266.344 699.002 266.275 C 699.217 266.206 699.49 266.148 699.823 266.099 C 700.155 266.05 700.555 266.026 701.024 266.026 C 701.493 266.026 701.889 266.05 702.211 266.099 C 702.534 266.148 702.783 266.206 702.959 266.275 C 703.134 266.344 703.251 266.436 703.31 266.553 C 703.369 266.67 703.388 266.797 703.369 266.934 L 699.998 283.816 L 716.587 266.993 C 716.743 266.817 716.914 266.666 717.1 266.539 C 717.285 266.412 717.5 266.314 717.745 266.246 C 717.989 266.177 718.287 266.123 718.639 266.084 C 718.99 266.045 719.401 266.026 719.87 266.026 C 720.378 266.026 720.788 266.05 721.101 266.099 C 721.413 266.148 721.657 266.211 721.833 266.29 C 722.009 266.368 722.131 266.466 722.2 266.583 C 722.268 266.7 722.302 266.837 722.302 266.993 Z M 753.515 266.993 C 753.515 267.247 753.412 267.521 753.207 267.814 C 753.002 268.107 752.685 268.458 752.255 268.869 L 736.516 284.226 L 746.452 301.9 C 746.628 302.232 746.75 302.501 746.818 302.706 C 746.887 302.911 746.921 303.091 746.921 303.248 C 746.921 303.424 746.882 303.58 746.804 303.717 C 746.725 303.854 746.593 303.961 746.408 304.039 C 746.222 304.117 745.958 304.181 745.617 304.23 C 745.275 304.279 744.84 304.303 744.312 304.303 C 743.765 304.303 743.321 304.283 742.979 304.244 C 742.637 304.205 742.363 304.152 742.158 304.083 C 741.953 304.014 741.796 303.917 741.689 303.79 C 741.582 303.663 741.489 303.511 741.411 303.336 L 731.035 284.402 L 727.284 303.365 C 727.265 303.521 727.201 303.658 727.093 303.775 C 726.986 303.892 726.825 303.985 726.61 304.054 C 726.395 304.122 726.121 304.181 725.789 304.23 C 725.457 304.279 725.057 304.303 724.588 304.303 C 724.099 304.303 723.694 304.279 723.371 304.23 C 723.049 304.181 722.8 304.122 722.624 304.054 C 722.448 303.985 722.331 303.892 722.272 303.775 C 722.213 303.658 722.204 303.521 722.243 303.365 L 729.511 266.934 C 729.531 266.797 729.6 266.67 729.717 266.553 C 729.834 266.436 730 266.344 730.215 266.275 C 730.43 266.206 730.703 266.148 731.035 266.099 C 731.368 266.05 731.768 266.026 732.237 266.026 C 732.706 266.026 733.102 266.05 733.424 266.099 C 733.747 266.148 733.996 266.206 734.172 266.275 C 734.347 266.344 734.464 266.436 734.523 266.553 C 734.582 266.67 734.601 266.797 734.582 266.934 L 731.211 283.816 L 747.8 266.993 C 747.956 266.817 748.127 266.666 748.313 266.539 C 748.498 266.412 748.713 266.314 748.958 266.246 C 749.202 266.177 749.5 266.123 749.852 266.084 C 750.203 266.045 750.614 266.026 751.083 266.026 C 751.591 266.026 752.001 266.05 752.314 266.099 C 752.626 266.148 752.87 266.211 753.046 266.29 C 753.222 266.368 753.344 266.466 753.413 266.583 C 753.481 266.7 753.515 266.837 753.515 266.993 Z M 786.095 278.922 C 786.095 280.426 785.958 282.106 785.684 283.963 C 785.411 285.819 784.952 287.704 784.307 289.619 C 783.662 291.534 782.807 293.395 781.742 295.203 C 780.677 297.01 779.363 298.612 777.8 300.009 C 776.237 301.406 774.381 302.535 772.232 303.394 C 770.083 304.254 767.621 304.684 764.846 304.684 C 762.619 304.684 760.665 304.406 758.984 303.849 C 757.304 303.292 755.902 302.461 754.778 301.357 C 753.655 300.253 752.81 298.89 752.243 297.269 C 751.676 295.647 751.393 293.771 751.393 291.642 C 751.393 289.961 751.54 288.154 751.833 286.219 C 752.126 284.285 752.609 282.356 753.284 280.431 C 753.958 278.506 754.837 276.655 755.921 274.877 C 757.006 273.099 758.334 271.521 759.907 270.144 C 761.48 268.766 763.322 267.672 765.432 266.861 C 767.542 266.05 769.965 265.645 772.701 265.645 C 774.908 265.645 776.847 265.933 778.518 266.509 C 780.189 267.086 781.586 267.936 782.709 269.059 C 783.833 270.183 784.678 271.57 785.245 273.221 C 785.812 274.872 786.095 276.773 786.095 278.922 Z M 780.702 279.273 C 780.702 277.906 780.546 276.65 780.233 275.507 C 779.92 274.364 779.422 273.383 778.738 272.562 C 778.054 271.741 777.145 271.101 776.012 270.642 C 774.879 270.183 773.511 269.953 771.909 269.953 C 769.877 269.953 768.094 270.329 766.56 271.082 C 765.027 271.834 763.698 272.816 762.574 274.027 C 761.451 275.238 760.523 276.611 759.79 278.145 C 759.057 279.679 758.471 281.227 758.032 282.79 C 757.592 284.353 757.279 285.868 757.094 287.333 C 756.908 288.798 756.815 290.068 756.815 291.143 C 756.815 292.53 756.967 293.786 757.27 294.909 C 757.573 296.033 758.076 296.995 758.779 297.796 C 759.482 298.597 760.396 299.218 761.519 299.657 C 762.643 300.097 764.016 300.317 765.637 300.317 C 767.65 300.317 769.418 299.951 770.942 299.218 C 772.466 298.485 773.785 297.523 774.899 296.331 C 776.012 295.139 776.94 293.786 777.683 292.272 C 778.426 290.757 779.022 289.223 779.471 287.67 C 779.92 286.117 780.238 284.607 780.423 283.142 C 780.609 281.677 780.702 280.387 780.702 279.273 Z" style="fill: rgb(77, 77, 77);">
      <title>Salamaverkko</title>
    </path>
  </g>
  <g style="" transform="matrix(1.6717109680175781, 0, 0, 1.6717109680175781, -114.59212493896484, -33.30875396728527)">
    <rect x="68.709" y="69.029" width="262.91" height="262.91" style="fill: none; stroke: rgb(0, 0, 0); stroke-width: 0;">
      <title>B Area</title>
    </rect>
    <circle mask="url(#ring)" style="fill: rgb(247, 147, 26); fill-rule: evenodd;" cx="199.207" cy="199.524" r="94.742">
      <title>B ball</title>
    </circle>
    <path fill="#FAFAFA" d="M 244.291 187.77 C 246.181 175.161 236.58 168.383 223.455 163.863 L 227.712 146.785 L 217.316 144.195 L 213.173 160.821 C 210.439 160.14 207.631 159.499 204.841 158.863 L 209.016 142.123 L 198.626 139.534 L 194.367 156.604 C 192.103 156.092 189.882 155.582 187.728 155.045 L 187.739 154.993 L 173.402 151.412 L 170.637 162.517 C 170.637 162.517 178.35 164.284 178.187 164.392 C 182.399 165.443 183.159 168.23 183.033 170.439 L 171.365 217.226 C 170.85 218.504 169.546 220.423 166.601 219.692 C 166.703 219.845 159.045 217.807 159.045 217.807 L 153.884 229.709 L 167.413 233.08 C 169.929 233.711 172.395 234.37 174.825 234.994 L 170.521 252.267 L 180.906 254.859 L 185.165 237.767 C 188.002 238.538 190.757 239.247 193.449 239.915 L 189.206 256.928 L 199.601 259.518 L 203.903 242.279 C 221.628 245.631 234.96 244.277 240.571 228.245 C 245.093 215.336 240.347 207.89 231.019 203.034 C 237.813 201.467 242.926 196.998 244.291 187.77 Z M 220.542 221.078 C 217.327 233.987 195.592 227.006 188.543 225.258 L 194.254 202.372 C 201.3 204.131 223.9 207.611 220.542 221.078 Z M 223.755 187.583 C 220.823 199.327 202.735 193.359 196.864 191.897 L 202.041 171.141 C 207.909 172.605 226.807 175.334 223.755 187.583 Z" style="">
      <title>B</title>
    </path>
    <circle style="fill: rgb(247, 147, 26); fill-rule: evenodd;" cx="78.862" cy="54.749" r="8.946" transform="matrix(3.210431, 0, 0, 3.279839, 20.069238, 97.319701)">
      <title>Bolt Ball</title>
    </circle>
    <path d="M 279.126 256.168 C 279.784 256.281 280.102 256.568 280.065 257.039 C 280.015 257.919 278.792 263.096 276.405 272.574 L 276.387 272.921 C 276.387 272.926 276.466 272.934 276.631 272.945 L 282.891 273.334 C 283.27 273.357 283.572 273.657 283.801 274.23 L 283.767 274.74 L 266.152 297.611 C 265.268 297.401 264.837 296.99 264.871 296.383 C 267.905 287.289 269.719 282.136 270.319 280.94 L 270.766 280.966 C 265.345 280.485 262.655 279.925 262.697 279.278 L 262.697 279.162 C 262.723 278.863 264.666 276.002 268.542 270.586 C 274.391 262.076 277.754 257.344 278.611 256.371 L 279.126 256.168 Z" style="fill: rgb(255, 255, 255); fill-opacity: 1;">
      <title>Bolt</title>
    </path>
  </g>
</svg>