<?xml version="1.0" encoding="utf-8"?>
<svg viewBox="-0.0009 -0.0033 512.0009 512.0013" xmlns="http://www.w3.org/2000/svg">
  <g transform="matrix(5.240595, 0, 0, 5.065157, -1720.881275, -1885.518112)" style="" id="bitcoin and bolt">
    <rect x="328.375" y="372.252" width="97.699" height="101.083" style="fill: none;"/>
    <path d="M 396.55 450.47 C 395.435 449.825 400.986 442.168 406.711 433.895 C 412.433 425.62 416.302 419.361 417.507 417.509 C 418.712 415.657 418.901 415.704 418.266 412.694 C 417.631 409.684 417.203 408.393 416.191 405.917 C 413.511 399.35 409.903 394.087 404.985 389.862 C 400.064 385.637 394.302 382.218 388.166 380.583 C 382.031 378.949 375.873 378.627 369.549 379.831 C 363.226 381.034 356.719 384.331 351.233 388.622 C 343.714 394.507 338.933 402.945 336.879 409.931 C 334.825 416.917 335.004 427.805 337.501 435.64 C 339.998 443.475 343.277 449.737 349.334 455.393 C 355.39 461.05 363.33 464.861 372.442 466.047 C 374.729 466.345 377.395 466.345 379.72 466.225 C 382.048 466.105 384.293 465.726 386.58 465.211 C 388.868 464.696 391.086 464.04 393.248 463.153 C 395.413 462.266 397.454 460.963 399.452 459.797 C 403.069 457.688 406.004 452.401 405.793 452.246 C 405.367 451.924 399.974 452.45 396.55 450.47 Z" fill="#f7931a" id="path5" style="">
      <title id="ball">B ball Zapped</title>
    </path>
    <path d="M 417.763 421.42 C 417.763 421.42 419.994 416.802 419.174 422.617 C 419.03 423.64 415.097 441.528 415.097 441.528 C 415.097 441.533 422.719 442.012 422.719 442.012 C 424.101 441.998 423.431 443.052 423.431 443.052 L 403.104 470.457 C 400.181 474.601 401.565 469.73 401.604 469.018 C 405.159 458.362 407.285 452.325 407.988 450.923 C 407.988 450.923 399.008 449.734 399.058 448.976 L 399.058 448.84 C 399.087 448.49 401.364 445.138 405.905 438.792 C 412.759 428.82 405.921 438.82 417.763 421.42 Z" style="fill: rgb(247, 147, 26); fill-opacity: 1;" id="path6">
      <title id="bolt">Lightning bolt</title>
    </path>
    <path fill="#FAFAFA" d="M 398.669 417.203 C 399.566 411.205 395.001 407.98 388.756 405.832 L 390.786 397.709 L 385.837 396.476 L 383.867 404.382 C 382.567 404.061 381.231 403.757 379.906 403.455 L 381.891 395.487 L 376.95 394.263 L 374.922 402.374 C 373.846 402.134 372.79 401.894 371.766 401.636 L 371.769 401.61 L 364.951 399.912 L 363.638 405.191 C 363.638 405.191 367.302 406.033 367.227 406.085 C 369.231 406.582 369.593 407.906 369.531 408.959 L 363.98 431.214 C 363.74 431.82 363.118 432.733 361.712 432.385 C 361.767 432.459 358.122 431.493 358.122 431.493 L 355.667 437.149 L 362.1 438.754 C 363.298 439.051 364.475 439.368 365.63 439.662 L 363.581 447.878 L 368.522 449.112 L 370.544 440.983 C 371.895 441.347 373.204 441.687 374.487 442.004 L 372.467 450.1 L 377.412 451.326 L 379.459 443.13 C 387.888 444.72 394.23 444.079 396.903 436.452 C 399.046 430.316 396.796 426.769 392.353 424.461 C 395.584 423.715 398.019 421.588 398.669 417.203 Z M 387.372 433.042 C 385.841 439.184 375.503 435.866 372.15 435.034 L 374.869 424.146 C 378.221 424.982 388.972 426.636 387.372 433.042 Z M 388.899 417.111 C 387.505 422.7 378.905 419.859 376.11 419.164 L 378.574 409.292 C 381.362 409.988 390.354 411.285 388.899 417.111 Z" style="" id="path7">
      <title id="B">BTC</title>
    </path>
  </g>
</svg>