<?xml version="1.0" encoding="utf-8"?>
<svg viewBox="0 0 500 500" xmlns="http://www.w3.org/2000/svg">
  <defs>
    <mask id="ring">
      <rect x="0" y="0" width="500" height="500" fill="white"/>
      <circle style="fill: none; fill-rule: evenodd; stroke: rgb(0, 0, 0); stroke-width: 5px;" cx="319.987" cy="407.677" r="45">
        <title>Bolt ball ring</title>
      </circle>
    </mask>
  </defs>
  <rect width="500" height="500" style="fill: none; stroke: rgb(0, 0, 0); stroke-width: 0;" transform="matrix(1, 0, 0, 1, 0, -7.105427357601002e-15)">
    <title>Area</title>
  </rect>
  <circle mask="url(#ring)" style="fill: rgb(247, 147, 26); fill-rule: evenodd;" cx="204.152" cy="285" r="148.216" transform="matrix(1.2156610488891602, 0, 0, 1.2005839347839355, -4.096099853515625, -102.81192016601562)">
    <title>Bolt ball</title>
  </circle>
  <path d="M 287.224 91.129 C 292.049 91.949 294.384 94.024 294.114 97.436 C 293.744 103.82 284.774 141.348 267.249 210.052 L 267.114 212.569 C 267.114 212.604 267.694 212.663 268.91 212.737 L 314.859 215.562 C 317.635 215.73 319.854 217.902 321.534 222.06 L 321.284 225.754 L 191.989 391.543 C 185.505 390.017 182.339 387.044 182.589 382.644 C 204.859 316.721 218.174 279.366 222.574 270.694 L 225.855 270.888 C 186.064 267.396 166.324 263.337 166.634 258.651 L 166.634 257.811 C 166.825 255.639 181.084 234.904 209.53 195.642 C 252.469 133.951 277.15 99.647 283.439 92.596 L 287.224 91.129 Z" style="fill: rgb(255, 255, 255); fill-opacity: 1;" transform="matrix(1, 0, 0, 1, 0, -7.105427357601002e-15)">
    <title>Lightning bolt</title>
  </path>
  <circle style="fill: rgb(247, 147, 26); fill-rule: evenodd;" cx="383.764" cy="386.258" r="50.8" transform="matrix(1, 0, 0, 1, 0, -7.105427357601002e-15)">
    <title>B Ball</title>
  </circle>
  <path fill="#FAFAFA" d="M 411.85 379.027 C 413.025 371.268 407.046 367.096 398.865 364.321 L 401.525 353.813 L 395.046 352.218 L 392.465 362.444 C 390.761 362.03 389.01 361.635 387.275 361.245 L 389.876 350.939 L 383.406 349.354 L 380.751 359.847 C 379.341 359.536 377.955 359.225 376.615 358.894 L 376.62 358.859 L 367.69 356.662 L 365.971 363.491 C 365.971 363.491 370.77 364.578 370.671 364.647 C 373.295 365.289 373.771 367.003 373.69 368.365 L 366.421 397.149 C 366.106 397.935 365.29 399.115 363.451 398.665 C 363.52 398.758 358.745 397.51 358.745 397.51 L 355.531 404.827 L 363.955 406.902 C 365.525 407.287 367.065 407.697 368.58 408.077 L 365.896 418.703 L 372.365 420.298 L 375.015 409.786 C 376.785 410.254 378.501 410.694 380.181 411.104 L 377.535 421.578 L 384.01 423.162 L 386.691 412.56 C 397.73 414.619 406.035 413.789 409.535 403.924 C 412.346 395.988 409.395 391.401 403.58 388.414 C 407.81 387.451 411 384.701 411.85 379.027 Z M 397.055 399.515 C 395.051 407.46 381.511 403.168 377.12 402.092 L 380.68 388.008 C 385.07 389.09 399.15 391.228 397.055 399.515 Z M 399.055 378.908 C 397.23 386.138 385.965 382.464 382.306 381.565 L 385.531 368.795 C 389.185 369.693 400.96 371.373 399.055 378.908 Z" style="" transform="matrix(1, 0, 0, 1, 0, -7.105427357601002e-15)">
    <title>BTC</title>
  </path>
</svg>