<?xml version="1.0" encoding="utf-8"?>
<svg viewBox="0 0 1024 375" xmlns="http://www.w3.org/2000/svg">
  <path d="M 0 375 L 1024 375 L 1024 0 L 0 0 L 0 375 Z" style="fill: none;" transform="matrix(1, 0, 0, 1, 0, -1.0658141036401503e-13)">
    <title>Area</title>
  </path>
  <g transform="matrix(5.226583957672119, 0, 0, -5.226583957672119, -0.000007000001154722213, 338.5805125465496)">
    <title>icon</title>
    <path d="M 0 0 L 61.56 0 L 61.56 61.56 L 0 61.56 L 0 0 Z" style="fill: none;">
      <title>icon area</title>
    </path>
    <path d="M 42.958 13.932 C 42.257 14.324 45.748 18.978 49.348 24.007 C 52.947 29.036 55.38 32.841 56.138 33.966 C 56.895 35.092 57.014 35.064 56.615 36.893 C 56.216 38.723 55.946 39.507 55.31 41.012 C 53.625 45.004 51.356 48.203 48.263 50.771 C 45.168 53.339 41.545 55.417 37.686 56.411 C 33.828 57.404 29.955 57.6 25.978 56.868 C 22.002 56.137 17.91 54.133 14.46 51.525 C 9.7314 47.948 6.7248 42.819 5.4331 38.573 C 4.1414 34.326 4.254 27.708 5.8242 22.946 C 7.3945 18.184 9.4566 14.378 13.266 10.94 C 17.074 7.5015 22.067 5.1851 27.798 4.4642 C 29.236 4.2831 30.912 4.2831 32.374 4.356 C 33.838 4.429 35.25 4.6593 36.689 4.9724 C 38.127 5.2854 39.522 5.6841 40.882 6.2232 C 42.243 6.7624 43.527 7.5544 44.783 8.2631 C 47.058 9.545 48.904 12.759 48.771 12.853 C 48.503 13.048 45.112 12.729 42.958 13.932 Z" style="fill: rgb(247, 147, 26); fill-opacity: 1;">
      <title>ball</title>
    </path>
    <path d="M 0.085236 0.034412 L 61.525236 0.034412 L 61.525236 61.474412 L 0.085236 61.474412 Z" style="fill: none;">
      <title>ball area</title>
    </path>
    <path d="M 56.299 31.589 C 56.299 31.589 57.702 34.396 57.186 30.862 C 57.095 30.24 54.622 19.367 54.622 19.367 C 54.622 19.364 59.415 19.073 59.415 19.073 C 60.284 19.082 59.863 18.441 59.863 18.441 L 47.08 1.784 C 45.242 -0.735 46.112 2.226 46.137 2.658 C 48.372 9.135 49.709 12.805 50.151 13.657 C 50.151 13.657 44.504 14.38 44.536 14.84 L 44.536 14.923 C 44.554 15.136 45.986 17.173 48.841 21.03 C 53.152 27.091 48.851 21.013 56.299 31.589 Z" style="fill: rgb(247, 147, 26); fill-opacity: 1;">
      <title>bolt</title>
    </path>
    <path d="M 44.291 34.152 C 44.855 37.798 41.984 39.758 38.057 41.064 L 39.334 46.001 L 36.221 46.751 L 34.982 41.945 C 34.165 42.14 33.325 42.325 32.491 42.509 L 33.74 47.352 L 30.633 48.096 L 29.357 43.166 C 28.681 43.312 28.016 43.458 27.372 43.614 L 27.374 43.63 L 23.087 44.662 L 22.261 41.454 C 22.261 41.454 24.565 40.942 24.518 40.91 C 25.778 40.608 26.006 39.803 25.967 39.163 L 22.476 25.636 C 22.325 25.268 21.934 24.713 21.05 24.925 C 21.084 24.88 18.792 25.467 18.792 25.467 L 17.248 22.029 L 21.294 21.053 C 22.047 20.873 22.787 20.68 23.514 20.502 L 22.225 15.508 L 25.332 14.758 L 26.604 19.699 C 27.454 19.477 28.277 19.271 29.084 19.078 L 27.813 14.157 L 30.923 13.412 L 32.21 18.394 C 37.511 17.427 41.499 17.817 43.18 22.453 C 44.528 26.182 43.113 28.338 40.319 29.741 C 42.351 30.194 43.882 31.487 44.291 34.152 Z M 37.187 24.525 C 36.224 20.792 29.723 22.809 27.614 23.314 L 29.324 29.932 C 31.432 29.424 38.193 28.419 37.187 24.525 Z M 38.147 34.208 C 37.27 30.811 31.862 32.538 30.104 32.961 L 31.654 38.961 C 33.407 38.538 39.062 37.75 38.147 34.208 Z" style="fill: rgb(250, 250, 250); fill-opacity: 1;">
      <title>B</title>
    </path>
  </g>
  <path d="M 390.974 110.993 C 397.827 110.993 403.749 112.207 408.746 114.632 C 413.741 117.058 417.88 120.343 421.163 124.483 C 424.445 128.622 426.872 133.474 428.444 139.041 C 430.013 144.607 430.799 150.603 430.799 157.025 C 430.799 166.875 428.978 176.19 425.338 184.967 C 421.698 193.745 416.739 201.383 410.457 207.878 C 404.178 214.372 396.755 219.512 388.191 223.294 C 379.627 227.076 370.348 228.967 360.356 228.967 C 359.072 228.967 356.824 228.931 353.612 228.86 C 350.401 228.788 346.726 228.468 342.586 227.896 C 338.447 227.326 334.057 226.469 329.418 225.327 C 324.779 224.187 320.389 222.616 316.249 220.616 L 353.291 64.959 L 386.477 59.821 L 373.203 115.06 C 376.058 113.776 378.913 112.777 381.766 112.064 C 384.623 111.35 387.691 110.993 390.974 110.993 Z M 363.14 202.632 C 368.136 202.632 372.847 201.418 377.272 198.992 C 381.695 196.565 385.515 193.318 388.726 189.249 C 391.937 185.181 394.471 180.578 396.327 175.44 C 398.182 170.301 399.11 164.95 399.11 159.382 C 399.11 152.531 397.968 147.177 395.684 143.323 C 393.401 139.469 389.19 137.542 383.052 137.542 C 381.054 137.542 378.45 137.901 375.236 138.613 C 372.025 139.327 369.136 140.826 366.565 143.109 L 352.435 201.776 C 353.291 201.919 354.041 202.061 354.681 202.204 C 355.325 202.347 356.004 202.454 356.717 202.525 C 357.43 202.596 358.286 202.632 359.285 202.632 C 360.285 202.632 361.57 202.632 363.14 202.632 Z M 471.051 225.97 L 439.363 225.97 L 466.127 113.347 L 498.029 113.347 L 471.051 225.97 Z M 486.467 99.644 C 482.043 99.644 478.044 98.324 474.476 95.684 C 470.908 93.042 469.124 89.011 469.124 83.587 C 469.124 80.587 469.731 77.769 470.944 75.129 C 472.158 72.488 473.763 70.206 475.763 68.279 C 477.76 66.35 480.08 64.816 482.718 63.675 C 485.36 62.534 488.181 61.962 491.178 61.962 C 495.603 61.962 499.598 63.282 503.166 65.924 C 506.734 68.563 508.52 72.596 508.52 78.019 C 508.52 81.018 507.913 83.837 506.7 86.477 C 505.487 89.118 503.882 91.401 501.883 93.329 C 499.886 95.256 497.565 96.791 494.924 97.933 C 492.285 99.073 489.465 99.644 486.467 99.644 Z M 530.574 85.3 L 563.76 80.161 L 555.624 113.347 L 591.166 113.347 L 584.743 139.469 L 549.415 139.469 L 539.994 178.866 C 539.139 182.148 538.604 185.217 538.387 188.073 C 538.174 190.927 538.53 193.389 539.46 195.459 C 540.387 197.529 541.991 199.135 544.276 200.276 C 546.559 201.418 549.701 201.989 553.698 201.989 C 557.123 201.989 560.441 201.669 563.653 201.026 C 566.866 200.383 570.113 199.49 573.395 198.349 L 575.75 222.759 C 571.468 224.328 566.829 225.684 561.834 226.826 C 556.838 227.967 550.913 228.539 544.062 228.539 C 534.214 228.539 526.578 227.076 521.153 224.149 C 515.73 221.224 511.874 217.227 509.591 212.159 C 507.306 207.091 506.308 201.275 506.594 194.711 C 506.879 188.143 507.877 181.221 509.591 173.941 L 530.574 85.3 Z M 595.448 181.006 C 595.448 171.3 597.019 162.165 600.159 153.602 C 603.299 145.038 607.795 137.542 613.647 131.12 C 619.5 124.696 626.601 119.628 634.952 115.917 C 643.302 112.207 652.614 110.35 662.892 110.35 C 669.315 110.35 675.062 110.957 680.129 112.171 C 685.195 113.383 689.799 114.989 693.939 116.987 L 683.019 141.824 C 680.165 140.683 677.202 139.648 674.133 138.72 C 671.064 137.794 667.317 137.33 662.892 137.33 C 652.186 137.33 643.766 140.934 637.629 148.142 C 631.491 155.349 628.422 165.162 628.422 177.58 C 628.422 184.86 629.991 190.748 633.13 195.246 C 636.27 199.743 642.052 201.989 650.475 201.989 C 654.614 201.989 658.611 201.561 662.464 200.704 C 666.319 199.849 669.744 198.778 672.741 197.493 L 675.095 222.971 C 671.1 224.541 666.711 225.934 661.928 227.146 C 657.147 228.36 651.331 228.967 644.478 228.967 C 635.63 228.967 628.134 227.682 621.998 225.113 C 615.86 222.542 610.793 219.081 606.796 214.727 C 602.8 210.376 599.909 205.273 598.124 199.419 C 596.34 193.568 595.448 187.431 595.448 181.006 Z M 742.756 228.967 C 735.191 228.967 728.624 227.825 723.058 225.541 C 717.491 223.258 712.889 220.045 709.248 215.906 C 705.608 211.768 702.86 206.879 701.004 201.24 C 699.147 195.602 698.221 189.357 698.221 182.505 C 698.221 173.941 699.614 165.376 702.397 156.813 C 705.18 148.248 709.284 140.539 714.708 133.688 C 720.13 126.837 726.77 121.235 734.62 116.882 C 742.471 112.528 751.462 110.35 761.597 110.35 C 769.02 110.35 775.549 111.492 781.189 113.776 C 786.826 116.06 791.465 119.272 795.107 123.412 C 798.745 127.55 801.494 132.438 803.349 138.078 C 805.205 143.716 806.133 149.96 806.133 156.813 C 806.133 165.376 804.777 173.941 802.065 182.505 C 799.354 191.07 795.355 198.778 790.075 205.629 C 784.793 212.48 778.191 218.084 770.27 222.437 C 762.347 226.789 753.176 228.967 742.756 228.967 Z M 758.6 137.33 C 753.89 137.33 749.751 138.684 746.183 141.396 C 742.614 144.107 739.615 147.535 737.188 151.675 C 734.763 155.813 732.943 160.344 731.73 165.269 C 730.516 170.193 729.909 174.868 729.909 179.294 C 729.909 186.573 731.052 192.177 733.336 196.102 C 735.618 200.026 739.758 201.989 745.754 201.989 C 750.465 201.989 754.602 200.633 758.172 197.921 C 761.74 195.21 764.737 191.782 767.166 187.643 C 769.591 183.505 771.41 178.973 772.624 174.048 C 773.838 169.125 774.445 164.45 774.445 160.024 C 774.445 152.745 773.303 147.141 771.019 143.216 C 768.735 139.292 764.595 137.33 758.6 137.33 Z M 846.386 225.97 L 814.696 225.97 L 841.461 113.347 L 873.362 113.347 L 846.386 225.97 Z M 861.802 99.644 C 857.375 99.644 853.378 98.324 849.81 95.684 C 846.242 93.042 844.458 89.011 844.458 83.587 C 844.458 80.587 845.065 77.769 846.279 75.129 C 847.492 72.488 849.098 70.206 851.095 68.279 C 853.094 66.35 855.413 64.816 858.053 63.675 C 860.695 62.534 863.513 61.962 866.511 61.962 C 870.935 61.962 874.933 63.282 878.501 65.924 C 882.069 68.563 883.855 72.596 883.855 78.019 C 883.855 81.018 883.248 83.837 882.034 86.477 C 880.822 89.118 879.215 91.401 877.216 93.329 C 875.218 95.256 872.897 96.791 870.258 97.933 C 867.617 99.073 864.797 99.644 861.802 99.644 Z M 901.196 118.486 C 903.623 117.774 906.299 116.951 909.225 116.025 C 912.151 115.096 915.433 114.24 919.073 113.454 C 922.715 112.67 926.782 112.027 931.279 111.528 C 935.774 111.029 940.878 110.779 946.586 110.779 C 963.43 110.779 974.994 115.632 981.273 125.339 C 987.553 135.045 988.624 148.318 984.484 165.161 L 969.925 225.97 L 938.023 225.97 L 952.154 166.448 C 953.011 162.736 953.689 159.132 954.188 155.635 C 954.686 152.138 954.651 149.068 954.082 146.428 C 953.51 143.787 952.19 141.646 950.12 140.005 C 948.05 138.363 944.875 137.542 940.592 137.542 C 936.452 137.542 932.241 137.97 927.959 138.828 L 907.192 225.97 L 875.287 225.97 L 901.196 118.486 Z" style="fill: rgb(204, 204, 204);" transform="matrix(1, 0, 0, 1, 0, -1.0658141036401503e-13)">
    <title>bitcoin</title>
  </path>
  <path d="M 326.959 314.69 C 323.159 314.69 320.174 314.196 318.006 313.205 C 315.836 312.213 314.284 310.863 313.348 309.151 C 312.41 307.435 311.955 305.469 311.982 303.247 C 312.009 301.025 312.316 298.658 312.907 296.139 L 323.105 253.496 L 335.553 251.569 L 324.389 297.825 C 324.176 298.79 324.055 299.674 324.028 300.476 C 324.001 301.278 324.15 301.988 324.469 302.606 C 324.791 303.22 325.341 303.716 326.117 304.091 C 326.894 304.465 327.977 304.706 329.37 304.813 L 326.959 314.69 Z M 346.636 313.888 L 334.749 313.888 L 344.789 271.645 L 356.754 271.645 L 346.636 313.888 Z M 352.419 266.506 C 350.757 266.506 349.259 266.01 347.919 265.02 C 346.581 264.029 345.913 262.517 345.913 260.483 C 345.913 259.358 346.14 258.302 346.596 257.31 C 347.05 256.32 347.652 255.464 348.402 254.74 C 349.152 254.018 350.021 253.443 351.011 253.015 C 352.002 252.587 353.059 252.372 354.184 252.372 C 355.844 252.372 357.343 252.867 358.681 253.857 C 360.02 254.849 360.69 256.361 360.69 258.394 C 360.69 259.52 360.461 260.576 360.007 261.567 C 359.552 262.557 358.949 263.414 358.198 264.137 C 357.451 264.859 356.581 265.434 355.59 265.865 C 354.598 266.292 353.541 266.506 352.419 266.506 Z M 393.938 308.586 C 393.133 312.066 392.077 315.078 390.764 317.622 C 389.452 320.166 387.821 322.278 385.866 323.967 C 383.912 325.654 381.57 326.91 378.839 327.742 C 376.107 328.572 372.923 328.986 369.283 328.986 C 365.909 328.986 363.072 328.679 360.769 328.061 C 358.467 327.446 356.38 326.684 354.506 325.774 L 358.52 316.297 C 360.182 317.047 361.906 317.689 363.702 318.224 C 365.495 318.76 367.703 319.028 370.327 319.028 C 373.753 319.028 376.335 318.265 378.077 316.738 C 379.816 315.212 380.953 313.245 381.488 310.836 L 381.809 309.311 C 380.74 309.846 379.603 310.274 378.397 310.594 C 377.192 310.917 375.922 311.077 374.582 311.077 C 372.065 311.077 369.899 310.689 368.077 309.914 C 366.256 309.136 364.771 308.052 363.62 306.66 C 362.468 305.268 361.612 303.622 361.051 301.721 C 360.488 299.821 360.207 297.746 360.207 295.498 C 360.207 291.43 360.957 287.828 362.456 284.696 C 363.954 281.563 365.948 278.955 368.438 276.865 C 370.929 274.777 373.793 273.198 377.033 272.128 C 380.27 271.055 383.658 270.522 387.191 270.522 C 389.762 270.522 392.303 270.789 394.82 271.324 C 397.336 271.86 399.799 272.69 402.207 273.813 L 393.938 308.586 Z M 388.636 280.881 C 387.727 280.667 386.603 280.56 385.263 280.56 C 383.229 280.56 381.408 280.921 379.802 281.644 C 378.196 282.368 376.817 283.343 375.666 284.575 C 374.515 285.807 373.632 287.292 373.017 289.033 C 372.4 290.772 372.092 292.632 372.092 294.613 C 372.092 295.579 372.172 296.475 372.335 297.304 C 372.494 298.134 372.79 298.856 373.217 299.473 C 373.645 300.088 374.235 300.584 374.985 300.957 C 375.735 301.332 376.67 301.52 377.795 301.52 C 378.544 301.52 379.547 301.386 380.806 301.119 C 382.066 300.85 383.203 300.235 384.221 299.272 L 388.636 280.881 Z M 431.52 270.923 C 433.823 270.923 435.803 271.257 437.465 271.927 C 439.124 272.595 440.49 273.534 441.559 274.737 C 442.63 275.943 443.433 277.375 443.97 279.035 C 444.504 280.694 444.772 282.486 444.772 284.414 C 444.772 286.664 444.504 288.884 443.97 291.08 L 438.507 313.888 L 426.543 313.888 L 431.842 291.561 C 432.056 290.652 432.256 289.688 432.444 288.671 C 432.632 287.653 432.727 286.691 432.727 285.78 C 432.727 284.387 432.366 283.198 431.641 282.207 C 430.918 281.217 429.54 280.721 427.505 280.721 C 426.65 280.721 425.833 280.773 425.056 280.881 C 424.28 280.988 423.518 281.122 422.768 281.282 L 414.977 313.888 L 403.012 313.888 L 417.467 253.496 L 429.914 251.569 L 425.016 271.725 C 426.087 271.513 427.171 271.324 428.269 271.164 C 429.366 271.003 430.45 270.923 431.52 270.923 Z M 459.871 261.126 L 472.319 259.199 L 469.266 271.645 L 482.597 271.645 L 480.188 281.442 L 466.937 281.442 L 463.404 296.22 C 463.083 297.451 462.881 298.602 462.801 299.674 C 462.721 300.743 462.855 301.667 463.202 302.444 C 463.551 303.22 464.153 303.822 465.011 304.251 C 465.867 304.679 467.044 304.893 468.544 304.893 C 469.828 304.893 471.072 304.773 472.279 304.532 C 473.482 304.291 474.7 303.956 475.931 303.528 L 476.815 312.684 C 475.208 313.272 473.469 313.781 471.596 314.209 C 469.722 314.637 467.5 314.851 464.931 314.851 C 461.236 314.851 458.372 314.303 456.336 313.205 C 454.302 312.106 452.857 310.608 452 308.707 C 451.143 306.808 450.769 304.625 450.874 302.163 C 450.982 299.699 451.357 297.105 452 294.372 L 459.871 261.126 Z M 491.674 273.574 C 492.583 273.305 493.585 272.998 494.683 272.649 C 495.782 272.303 497.012 271.982 498.379 271.685 C 499.743 271.391 501.268 271.15 502.956 270.963 C 504.642 270.776 506.557 270.681 508.697 270.681 C 515.016 270.681 519.353 272.503 521.708 276.145 C 524.063 279.783 524.466 284.763 522.912 291.08 L 517.45 313.888 L 505.486 313.888 L 510.785 291.561 C 511.107 290.17 511.36 288.819 511.55 287.506 C 511.737 286.195 511.723 285.044 511.509 284.053 C 511.293 283.063 510.798 282.261 510.023 281.644 C 509.246 281.028 508.056 280.721 506.45 280.721 C 504.896 280.721 503.317 280.881 501.711 281.203 L 493.92 313.888 L 481.955 313.888 L 491.674 273.574 Z M 539.375 313.888 L 527.49 313.888 L 537.528 271.645 L 549.494 271.645 L 539.375 313.888 Z M 545.156 266.506 C 543.495 266.506 541.997 266.01 540.66 265.02 C 539.321 264.029 538.652 262.517 538.652 260.483 C 538.652 259.358 538.878 258.302 539.334 257.31 C 539.79 256.32 540.391 255.464 541.141 254.74 C 541.891 254.018 542.76 253.443 543.752 253.015 C 544.741 252.587 545.799 252.372 546.923 252.372 C 548.583 252.372 550.082 252.867 551.421 253.857 C 552.758 254.849 553.428 256.361 553.428 258.394 C 553.428 259.52 553.201 260.576 552.745 261.567 C 552.29 262.557 551.687 263.414 550.939 264.137 C 550.187 264.859 549.319 265.434 548.329 265.865 C 547.337 266.292 546.28 266.506 545.156 266.506 Z M 559.934 273.574 C 560.845 273.305 561.847 272.998 562.943 272.649 C 564.042 272.303 565.273 271.982 566.64 271.685 C 568.005 271.391 569.53 271.15 571.217 270.963 C 572.904 270.776 574.817 270.681 576.959 270.681 C 583.278 270.681 587.613 272.503 589.97 276.145 C 592.325 279.783 592.726 284.763 591.173 291.08 L 585.712 313.888 L 573.746 313.888 L 579.047 291.561 C 579.367 290.17 579.621 288.819 579.811 287.506 C 579.997 286.195 579.984 285.044 579.771 284.053 C 579.555 283.063 579.06 282.261 578.285 281.644 C 577.508 281.028 576.317 280.721 574.711 280.721 C 573.158 280.721 571.579 280.881 569.972 281.203 L 562.181 313.888 L 550.216 313.888 L 559.934 273.574 Z M 632.212 308.586 C 631.408 312.066 630.351 315.078 629.039 317.622 C 627.727 320.166 626.094 322.278 624.14 323.967 C 622.186 325.654 619.844 326.91 617.114 327.742 C 614.383 328.572 611.197 328.986 607.556 328.986 C 604.184 328.986 601.346 328.679 599.044 328.061 C 596.741 327.446 594.655 326.684 592.78 325.774 L 596.796 316.297 C 598.456 317.047 600.182 317.689 601.976 318.224 C 603.77 318.76 605.977 319.028 608.601 319.028 C 612.029 319.028 614.61 318.265 616.35 316.738 C 618.091 315.212 619.229 313.245 619.765 310.836 L 620.086 309.311 C 619.013 309.846 617.876 310.274 616.673 310.594 C 615.467 310.917 614.194 311.077 612.857 311.077 C 610.34 311.077 608.173 310.689 606.352 309.914 C 604.53 309.136 603.046 308.052 601.895 306.66 C 600.744 305.268 599.888 303.622 599.325 301.721 C 598.763 299.821 598.481 297.746 598.481 295.498 C 598.481 291.43 599.231 287.828 600.731 284.696 C 602.231 281.563 604.224 278.955 606.713 276.865 C 609.204 274.777 612.069 273.198 615.306 272.128 C 618.547 271.055 621.932 270.522 625.465 270.522 C 628.036 270.522 630.578 270.789 633.094 271.324 C 635.613 271.86 638.074 272.69 640.483 273.813 L 632.212 308.586 Z M 626.911 280.881 C 626.001 280.667 624.878 280.56 623.537 280.56 C 621.503 280.56 619.684 280.921 618.076 281.644 C 616.471 282.368 615.094 283.343 613.942 284.575 C 612.791 285.807 611.907 287.292 611.291 289.033 C 610.674 290.772 610.368 292.632 610.368 294.613 C 610.368 295.579 610.448 296.475 610.607 297.304 C 610.769 298.134 611.063 298.856 611.491 299.473 C 611.922 300.088 612.51 300.584 613.258 300.957 C 614.008 301.332 614.944 301.52 616.07 301.52 C 616.818 301.52 617.822 301.386 619.082 301.119 C 620.338 300.85 621.476 300.235 622.494 299.272 L 626.911 280.881 Z M 669.716 273.574 C 670.625 273.305 671.628 272.998 672.725 272.649 C 673.824 272.303 675.055 271.982 676.422 271.685 C 677.785 271.391 679.31 271.15 680.999 270.963 C 682.686 270.776 684.599 270.681 686.74 270.681 C 693.058 270.681 697.395 272.503 699.75 276.145 C 702.107 279.783 702.508 284.763 700.955 291.08 L 695.494 313.888 L 683.528 313.888 L 688.829 291.561 C 689.149 290.17 689.403 288.819 689.592 287.506 C 689.779 286.195 689.766 285.044 689.552 284.053 C 689.337 283.063 688.842 282.261 688.065 281.644 C 687.29 281.028 686.099 280.721 684.492 280.721 C 682.939 280.721 681.36 280.881 679.753 281.203 L 671.963 313.888 L 659.997 313.888 L 669.716 273.574 Z M 707.94 297.344 C 707.94 293.918 708.543 290.598 709.748 287.386 C 710.951 284.174 712.651 281.323 714.847 278.833 C 717.043 276.344 719.705 274.336 722.837 272.811 C 725.971 271.284 729.436 270.522 733.238 270.522 C 735.112 270.522 736.852 270.789 738.459 271.324 C 740.065 271.86 741.47 272.635 742.674 273.653 C 743.879 274.67 744.814 275.915 745.485 277.388 C 746.155 278.861 746.488 280.533 746.488 282.408 C 746.488 285.405 745.82 287.947 744.48 290.035 C 743.143 292.125 741.282 293.824 738.9 295.134 C 736.517 296.448 733.692 297.397 730.426 297.987 C 727.162 298.576 723.6 298.87 719.746 298.87 C 720.121 301.12 720.937 302.712 722.195 303.648 C 723.453 304.585 725.447 305.053 728.178 305.053 C 729.891 305.053 731.631 304.906 733.399 304.612 C 735.165 304.318 736.826 303.876 738.378 303.287 L 739.261 312.684 C 737.761 313.272 735.848 313.808 733.518 314.289 C 731.19 314.771 728.66 315.013 725.929 315.013 C 722.611 315.013 719.813 314.543 717.538 313.606 C 715.261 312.669 713.415 311.398 711.997 309.792 C 710.577 308.185 709.546 306.313 708.905 304.171 C 708.262 302.028 707.94 299.753 707.94 297.344 Z M 731.31 279.997 C 728.579 279.997 726.184 280.975 724.123 282.929 C 722.06 284.883 720.709 287.466 720.067 290.678 C 723.387 290.572 726.064 290.291 728.097 289.836 C 730.132 289.382 731.711 288.832 732.836 288.189 C 733.959 287.546 734.709 286.851 735.085 286.101 C 735.461 285.351 735.646 284.601 735.646 283.851 C 735.646 281.282 734.201 279.997 731.31 279.997 Z M 759.578 261.126 L 772.027 259.199 L 768.975 271.645 L 782.307 271.645 L 779.898 281.442 L 766.646 281.442 L 763.113 296.22 C 762.79 297.451 762.591 298.602 762.511 299.674 C 762.431 300.743 762.565 301.667 762.912 302.444 C 763.26 303.22 763.861 303.822 764.718 304.251 C 765.576 304.679 766.753 304.893 768.253 304.893 C 769.537 304.893 770.782 304.773 771.986 304.532 C 773.191 304.291 774.407 303.956 775.641 303.528 L 776.524 312.684 C 774.917 313.272 773.178 313.781 771.305 314.209 C 769.43 314.637 767.21 314.851 764.639 314.851 C 760.946 314.851 758.08 314.303 756.045 313.205 C 754.01 312.106 752.565 310.608 751.71 308.707 C 750.851 306.808 750.477 304.625 750.584 302.163 C 750.691 299.699 751.065 297.105 751.71 294.372 L 759.578 261.126 Z M 814.591 289.153 C 813.572 291.35 812.434 293.582 811.178 295.859 C 809.919 298.135 808.635 300.356 807.321 302.525 C 806.011 304.694 804.74 306.754 803.507 308.707 C 802.276 310.661 801.178 312.388 800.215 313.888 L 790.9 313.888 C 790.471 311.638 790.029 308.962 789.575 305.857 C 789.119 302.753 788.678 299.365 788.249 295.698 C 787.821 292.031 787.433 288.148 787.084 284.053 C 786.735 279.957 786.483 275.821 786.321 271.645 L 798.046 271.645 C 798.046 273.574 798.06 275.659 798.086 277.909 C 798.114 280.159 798.168 282.486 798.248 284.895 C 798.328 287.306 798.449 289.769 798.609 292.285 C 798.77 294.803 798.983 297.29 799.251 299.753 C 800.59 297.506 801.915 295.163 803.226 292.726 C 804.539 290.291 805.796 287.855 807 285.417 C 808.206 282.981 809.329 280.587 810.373 278.23 C 811.418 275.875 812.341 273.68 813.144 271.645 L 823.102 271.645 C 823.102 275.5 823.169 279.81 823.303 284.575 C 823.438 289.34 823.772 294.4 824.307 299.753 C 825.753 297.344 827.091 294.869 828.322 292.325 C 829.555 289.783 830.693 287.279 831.737 284.817 C 832.779 282.353 833.717 279.997 834.547 277.749 C 835.377 275.5 836.112 273.467 836.755 271.645 L 849.444 271.645 C 848.373 274.323 847.102 277.334 845.629 280.68 C 844.156 284.026 842.458 287.546 840.529 291.24 C 838.601 294.935 836.433 298.71 834.024 302.565 C 831.615 306.419 828.939 310.193 825.994 313.888 L 816.677 313.888 C 816.036 309.497 815.553 305.295 815.234 301.278 C 814.912 297.264 814.698 293.222 814.591 289.153 Z M 866.39 315.013 C 863.55 315.013 861.089 314.583 859.001 313.727 C 856.912 312.871 855.187 311.666 853.821 310.113 C 852.456 308.56 851.425 306.727 850.729 304.612 C 850.032 302.496 849.683 300.155 849.683 297.586 C 849.683 294.372 850.206 291.16 851.252 287.947 C 852.294 284.736 853.833 281.845 855.868 279.275 C 857.903 276.705 860.393 274.606 863.338 272.971 C 866.281 271.337 869.654 270.522 873.456 270.522 C 876.241 270.522 878.69 270.95 880.806 271.805 C 882.921 272.664 884.66 273.868 886.023 275.421 C 887.391 276.973 888.42 278.805 889.115 280.921 C 889.812 283.036 890.159 285.377 890.159 287.947 C 890.159 291.16 889.652 294.372 888.634 297.586 C 887.617 300.797 886.118 303.69 884.137 306.259 C 882.156 308.83 879.68 310.93 876.708 312.562 C 873.735 314.196 870.297 315.013 866.39 315.013 Z M 872.332 280.64 C 870.564 280.64 869.012 281.148 867.674 282.167 C 866.335 283.184 865.212 284.468 864.301 286.021 C 863.391 287.573 862.708 289.272 862.253 291.12 C 861.799 292.968 861.57 294.72 861.57 296.381 C 861.57 299.112 861.998 301.213 862.855 302.686 C 863.713 304.158 865.265 304.893 867.514 304.893 C 869.281 304.893 870.833 304.384 872.171 303.368 C 873.511 302.349 874.635 301.066 875.544 299.513 C 876.456 297.96 877.138 296.26 877.592 294.414 C 878.048 292.565 878.275 290.812 878.275 289.153 C 878.275 286.422 877.846 284.322 876.991 282.849 C 876.134 281.376 874.582 280.64 872.332 280.64 Z M 925.656 281.924 C 924.586 281.658 923.529 281.402 922.484 281.162 C 921.44 280.921 919.902 280.801 917.866 280.801 C 917.118 280.801 916.288 280.868 915.377 281.001 C 914.467 281.135 913.718 281.282 913.13 281.442 L 905.339 313.888 L 893.373 313.888 L 903.01 273.895 C 905.314 273.145 907.896 272.436 910.76 271.765 C 913.625 271.095 916.85 270.763 920.437 270.763 C 921.775 270.763 923.26 270.883 924.894 271.124 C 926.528 271.364 927.959 271.752 929.189 272.289 L 925.656 281.924 Z M 945.974 286.905 C 949.187 284.335 952.212 281.712 955.05 279.035 C 957.887 276.357 960.322 273.895 962.357 271.645 L 975.849 271.645 C 972.851 274.964 969.732 278.217 966.493 281.402 C 963.254 284.588 959.547 287.974 955.371 291.561 C 956.495 292.955 957.633 294.561 958.784 296.381 C 959.935 298.201 961.032 300.102 962.076 302.082 C 963.12 304.063 964.083 306.071 964.968 308.105 C 965.851 310.14 966.587 312.066 967.175 313.888 L 953.845 313.888 C 953.363 312.495 952.76 310.97 952.038 309.311 C 951.315 307.651 950.513 306.004 949.628 304.37 C 948.745 302.738 947.822 301.146 946.858 299.594 C 945.895 298.04 944.93 296.647 943.968 295.416 L 939.469 313.888 L 927.584 313.888 L 942.04 253.496 L 954.488 251.569 L 945.974 286.905 Z" style="fill: rgb(204, 204, 204);" transform="matrix(1, 0, 0, 1, 0, -1.0658141036401503e-13)">
    <title>lightning network</title>
  </path>
</svg>