<?xml version="1.0" encoding="utf-8"?>
<svg viewBox="0 0 500 500" xmlns="http://www.w3.org/2000/svg">
  <defs>
    <clipPath id="clippath1" transform="matrix(3.81675568 -0.0000002199 -0.0000000281 3.81675568 15.84 150)" style="clip-path: url('#clippath0');">
      <rect x="0" y="0" width="61.56" height="61.56" style="clip-rule: nonzero;"/>
    </clipPath>
    <clipPath id="clippath0" transform="">
      <path d="M 15.84 150 L 250.8 150 L 250.8 384.96 L 15.84 384.96 Z" style="fill: none; clip-rule: evenodd;"/>
    </clipPath>
    <clipPath id="clippath2" transform="matrix(3.81675568 -0.0000002199 -0.0000000281 3.81675568 15.84 150)" style="clip-path: url('#clippath1');">
      <path d="M 0.085236 0.034412 L 61.525236 0.034412 L 61.525236 61.474412 L 0.085236 61.474412 Z" style="fill: none; clip-rule: evenodd;"/>
    </clipPath>
  </defs>
  <g class="page-1" transform="matrix(0.6798280477523804, 0, 0, -0.6798280477523804, -10.768481254577637, 431.8404235839844)">
    <g transform="">
      <path d="M 344.52 217.8 L 333.78 173.3 C 333.57 172.38 333.46 171.53 333.43 170.75 C 333.41 169.98 333.55 169.3 333.86 168.71 C 334.17 168.11 334.69 167.64 335.44 167.28 C 336.19 166.92 337.23 166.69 338.57 166.58 L 336.25 157.08 C 332.59 157.08 329.72 157.56 327.64 158.51 C 325.55 159.46 324.06 160.76 323.15 162.41 C 322.25 164.06 321.82 165.95 321.84 168.09 C 321.87 170.23 322.16 172.5 322.73 174.93 L 332.54 215.95 L 344.52 217.8 Z" style="fill: rgb(77, 77, 77); fill-rule: evenodd; fill-opacity: 1;"/>
      <path d="M 632.49 217.8 L 624.3 183.78 C 627.39 186.25 630.3 188.78 633.03 191.36 C 635.76 193.93 638.1 196.31 640.06 198.47 L 653.04 198.47 C 650.16 195.27 647.15 192.14 644.04 189.08 C 640.92 186.01 637.35 182.75 633.34 179.29 C 634.42 177.95 635.51 176.41 636.62 174.66 C 637.73 172.9 638.78 171.07 639.79 169.17 C 640.79 167.26 641.72 165.33 642.57 163.37 C 643.42 161.41 644.13 159.55 644.69 157.8 L 631.87 157.8 C 631.4 159.14 630.82 160.61 630.13 162.21 C 629.43 163.81 628.66 165.39 627.81 166.96 C 626.96 168.53 626.07 170.07 625.15 171.56 C 624.22 173.06 623.29 174.4 622.36 175.58 L 618.04 157.8 L 606.6 157.8 L 620.51 215.94 L 632.49 217.8 Z" style="fill: rgb(77, 77, 77); fill-rule: evenodd; fill-opacity: 1;"/>
      <path d="M 673.77 217.8 L 665.58 183.78 C 668.67 186.25 671.58 188.78 674.31 191.36 C 677.04 193.93 679.38 196.31 681.34 198.47 L 694.32 198.47 C 691.44 195.27 688.43 192.14 685.32 189.08 C 682.2 186.01 678.63 182.75 674.62 179.29 C 675.7 177.95 676.79 176.41 677.9 174.66 C 679.01 172.9 680.06 171.07 681.07 169.17 C 682.07 167.26 683 165.33 683.85 163.37 C 684.7 161.41 685.41 159.55 685.97 157.8 L 673.15 157.8 C 672.68 159.14 672.1 160.61 671.41 162.21 C 670.71 163.81 669.94 165.39 669.09 166.96 C 668.24 168.53 667.35 170.07 666.43 171.56 C 665.5 173.06 664.57 174.4 663.64 175.58 L 659.32 157.8 L 647.88 157.8 L 661.79 215.94 L 673.77 217.8 Z" style="fill: rgb(77, 77, 77); fill-rule: evenodd; fill-opacity: 1;"/>
      <path d="M 262.97 199.56 C 265.75 199.56 268.22 199.25 270.39 198.63 C 272.55 198.01 274.3 197.34 275.64 196.62 L 271.7 188.04 C 270.62 188.61 269.23 189.15 267.53 189.66 C 265.83 190.18 264.15 190.44 262.5 190.44 C 261.78 190.44 261.08 190.4 260.38 190.32 C 259.68 190.24 259.04 190.07 258.45 189.82 C 257.86 189.56 257.38 189.2 257.02 188.73 C 256.66 188.27 256.48 187.65 256.48 186.88 C 256.48 185.85 256.88 185.07 257.68 184.56 C 258.47 184.04 259.59 183.42 261.04 182.7 C 263.05 181.72 264.72 180.82 266.06 180 C 267.4 179.17 268.47 178.29 269.27 177.37 C 270.06 176.44 270.64 175.38 271 174.2 C 271.36 173.01 271.54 171.62 271.54 170.02 C 271.54 168.37 271.2 166.75 270.5 165.15 C 269.81 163.55 268.71 162.13 267.22 160.9 C 265.72 159.66 263.82 158.65 261.5 157.88 C 259.18 157.11 256.4 156.72 253.16 156.72 C 251.15 156.72 249.33 156.85 247.71 157.11 C 246.09 157.36 244.66 157.69 243.42 158.07 C 242.18 158.46 241.14 158.86 240.29 159.27 C 239.44 159.68 238.78 160.02 238.32 160.28 L 242.26 169.09 C 243.14 168.58 244.5 167.93 246.36 167.16 C 248.21 166.39 250.45 166 253.08 166 C 255.71 166 257.51 166.37 258.49 167.12 C 259.47 167.87 259.95 168.68 259.95 169.56 C 259.95 170.12 259.86 170.61 259.68 171.03 C 259.5 171.44 259.21 171.82 258.8 172.19 C 258.38 172.55 257.82 172.92 257.1 173.31 C 256.37 173.69 255.45 174.14 254.31 174.66 C 253.03 175.23 251.82 175.83 250.68 176.48 C 249.55 177.12 248.56 177.9 247.71 178.8 C 246.86 179.7 246.19 180.73 245.7 181.89 C 245.21 183.05 244.96 184.43 244.96 186.03 C 244.96 190.2 246.5 193.5 249.56 195.93 C 252.63 198.35 257.1 199.56 262.97 199.56 Z" style="fill: rgb(77, 77, 77); fill-rule: evenodd; fill-opacity: 1;"/>
      <path d="M 562.77 199.56 C 564.58 199.56 566.25 199.3 567.79 198.79 C 569.34 198.27 570.69 197.52 571.85 196.54 C 573.01 195.56 573.91 194.37 574.55 192.95 C 575.2 191.53 575.52 189.92 575.52 188.12 C 575.52 185.23 574.88 182.78 573.59 180.77 C 572.3 178.76 570.51 177.12 568.22 175.86 C 565.93 174.6 563.21 173.68 560.07 173.11 C 556.93 172.55 553.5 172.26 549.8 172.26 C 550.16 170.1 550.94 168.56 552.15 167.66 C 553.36 166.76 555.28 166.31 557.91 166.31 C 559.55 166.31 561.23 166.45 562.93 166.73 C 564.63 167.02 566.22 167.44 567.72 168.01 L 568.57 158.96 C 567.13 158.4 565.28 157.88 563.04 157.42 C 560.8 156.95 558.37 156.72 555.74 156.72 C 552.55 156.72 549.86 157.17 547.67 158.07 C 545.48 158.98 543.71 160.2 542.34 161.75 C 540.98 163.29 539.98 165.1 539.37 167.16 C 538.75 169.22 538.44 171.41 538.44 173.73 C 538.44 177.03 539.02 180.23 540.18 183.32 C 541.34 186.41 542.97 189.16 545.08 191.56 C 547.19 193.95 549.76 195.89 552.77 197.36 C 555.78 198.83 559.12 199.56 562.77 199.56 Z M 560.92 190.44 C 558.29 190.44 555.99 189.49 554.01 187.61 C 552.02 185.73 550.72 183.24 550.1 180.15 C 553.3 180.25 555.87 180.52 557.83 180.96 C 559.79 181.4 561.31 181.93 562.39 182.55 C 563.47 183.17 564.19 183.84 564.55 184.56 C 564.91 185.28 565.09 186 565.09 186.72 C 565.09 189.2 563.7 190.44 560.92 190.44 Z" style="fill: rgb(77, 77, 77); fill-rule: evenodd; fill-opacity: 1;"/>
      <path d="M 715.11 199.56 C 717.79 199.56 720.14 199.15 722.17 198.32 C 724.2 197.5 725.88 196.34 727.19 194.84 C 728.5 193.35 729.49 191.58 730.16 189.55 C 730.83 187.51 731.16 185.25 731.16 182.78 C 731.16 179.69 730.67 176.59 729.69 173.5 C 728.72 170.41 727.28 167.62 725.37 165.15 C 723.47 162.67 721.09 160.65 718.24 159.08 C 715.38 157.51 712.08 156.72 708.33 156.72 C 705.6 156.72 703.23 157.13 701.23 157.96 C 699.22 158.78 697.56 159.94 696.25 161.44 C 694.94 162.93 693.95 164.7 693.28 166.73 C 692.61 168.77 692.28 171.03 692.28 173.5 C 692.28 176.59 692.78 179.69 693.78 182.78 C 694.79 185.87 696.27 188.66 698.22 191.13 C 700.17 193.61 702.57 195.63 705.39 197.2 C 708.22 198.77 711.46 199.56 715.11 199.56 Z M 714.03 189.82 C 712.34 189.82 710.85 189.33 709.56 188.35 C 708.27 187.37 707.19 186.13 706.32 184.64 C 705.45 183.14 704.79 181.5 704.35 179.73 C 703.92 177.95 703.7 176.26 703.7 174.66 C 703.7 172.03 704.11 170.01 704.93 168.59 C 705.75 167.17 707.25 166.46 709.41 166.46 C 711.1 166.46 712.59 166.95 713.88 167.93 C 715.17 168.91 716.25 170.15 717.12 171.64 C 717.99 173.14 718.65 174.78 719.09 176.55 C 719.52 178.33 719.74 180.02 719.74 181.62 C 719.74 184.25 719.33 186.27 718.51 187.69 C 717.69 189.11 716.19 189.82 714.03 189.82 Z" style="fill: rgb(77, 77, 77); fill-rule: evenodd; fill-opacity: 1;"/>
      <path d="M 303.17 199.44 C 303.63 199.44 304.44 199.41 305.59 199.36 C 306.75 199.31 308.07 199.19 309.56 199.01 C 311.05 198.83 312.62 198.54 314.26 198.12 C 315.9 197.71 317.47 197.14 318.96 196.42 L 313.95 175.37 C 313.23 172.43 313.03 169.48 313.34 166.51 C 313.64 163.54 314.23 160.9 315.11 158.58 L 304.86 157.11 C 304.55 157.73 304.27 158.32 304.01 158.89 C 303.76 159.45 303.5 160.1 303.24 160.82 C 301.8 159.64 300.21 158.65 298.47 157.88 C 296.72 157.11 294.77 156.72 292.61 156.72 C 290.04 156.72 287.85 157.17 286.02 158.07 C 284.2 158.98 282.71 160.19 281.55 161.71 C 280.4 163.23 279.56 165.01 279.05 167.05 C 278.54 169.09 278.28 171.27 278.28 173.59 C 278.28 177.15 278.91 180.5 280.17 183.65 C 281.43 186.8 283.17 189.55 285.41 191.89 C 287.64 194.24 290.27 196.09 293.3 197.43 C 296.33 198.77 299.62 199.44 303.17 199.44 Z M 302.16 189.92 C 300.42 189.92 298.79 189.48 297.27 188.61 C 295.76 187.73 294.43 186.58 293.3 185.16 C 292.17 183.74 291.29 182.1 290.65 180.25 C 290 178.39 289.68 176.45 289.68 174.44 C 289.68 171.97 290.09 170.01 290.92 168.56 C 291.74 167.12 293.25 166.39 295.46 166.39 C 296.64 166.39 297.71 166.63 298.66 167.09 C 299.61 167.55 300.62 168.33 301.7 169.41 C 301.8 170.7 301.97 172.06 302.2 173.48 C 302.43 174.89 302.68 176.2 302.93 177.38 L 305.94 189.61 C 305.27 189.71 304.67 189.79 304.13 189.84 C 303.59 189.9 302.93 189.92 302.16 189.92 Z" style="fill: rgb(77, 77, 77); fill-rule: evenodd; fill-opacity: 1;"/>
      <path d="M 370.68 199.44 C 371.14 199.44 371.95 199.41 373.11 199.36 C 374.27 199.31 375.6 199.19 377.09 199.01 C 378.59 198.83 380.16 198.54 381.81 198.12 C 383.45 197.71 385.03 197.14 386.52 196.42 L 381.5 175.37 C 380.78 172.43 380.57 169.48 380.88 166.51 C 381.19 163.54 381.78 160.9 382.66 158.58 L 372.38 157.11 C 372.07 157.73 371.79 158.32 371.53 158.89 C 371.27 159.45 371.01 160.1 370.76 160.82 C 369.31 159.64 367.72 158.65 365.97 157.88 C 364.21 157.11 362.26 156.72 360.09 156.72 C 357.52 156.72 355.31 157.17 353.49 158.07 C 351.66 158.98 350.16 160.19 349 161.71 C 347.84 163.23 347.01 165.01 346.49 167.05 C 345.98 169.09 345.72 171.27 345.72 173.59 C 345.72 177.15 346.35 180.5 347.61 183.65 C 348.88 186.8 350.63 189.55 352.87 191.89 C 355.11 194.24 357.75 196.09 360.79 197.43 C 363.83 198.77 367.12 199.44 370.68 199.44 Z M 369.67 189.92 C 367.92 189.92 366.29 189.48 364.77 188.61 C 363.25 187.73 361.92 186.58 360.79 185.16 C 359.65 183.74 358.77 182.1 358.12 180.25 C 357.48 178.39 357.16 176.45 357.16 174.44 C 357.16 171.97 357.57 170.01 358.39 168.56 C 359.22 167.12 360.74 166.39 362.95 166.39 C 364.14 166.39 365.21 166.63 366.16 167.09 C 367.11 167.55 368.13 168.33 369.21 169.41 C 369.31 170.7 369.48 172.06 369.71 173.48 C 369.95 174.89 370.19 176.2 370.45 177.38 L 373.46 189.61 C 372.79 189.71 372.19 189.79 371.64 189.84 C 371.1 189.9 370.45 189.92 369.67 189.92 Z" style="fill: rgb(77, 77, 77); fill-rule: evenodd; fill-opacity: 1;"/>
      <path d="M 412.16 199.44 C 414.63 199.44 416.68 199.13 418.3 198.51 C 419.93 197.89 421.41 196.96 422.75 195.72 C 424.66 196.81 426.55 197.7 428.43 198.4 C 430.31 199.09 432.51 199.44 435.04 199.44 C 437.46 199.44 439.54 199.12 441.26 198.47 C 442.99 197.83 444.42 196.9 445.55 195.69 C 446.69 194.47 447.51 193.03 448.03 191.35 C 448.54 189.68 448.8 187.83 448.8 185.82 C 448.8 184.89 448.74 183.91 448.61 182.88 C 448.48 181.84 448.28 180.81 448.03 179.78 L 442.77 157.8 L 431.25 157.8 L 436.35 179.32 C 436.51 180.04 436.68 180.85 436.86 181.75 C 437.04 182.66 437.13 183.55 437.13 184.42 C 437.13 185.87 436.79 187.12 436.12 188.18 C 435.45 189.24 434.14 189.77 432.18 189.77 C 431.1 189.77 430.07 189.57 429.09 189.18 C 428.11 188.8 427.23 188.4 426.46 187.99 C 426.56 187.57 426.61 187.19 426.61 186.82 C 426.61 186.46 426.61 186.13 426.61 185.82 C 426.61 184.89 426.55 183.91 426.42 182.88 C 426.29 181.84 426.1 180.81 425.84 179.78 L 420.58 157.8 L 409.07 157.8 L 414.17 179.32 C 414.32 180.04 414.49 180.85 414.67 181.75 C 414.85 182.66 414.94 183.55 414.94 184.42 C 414.94 185.87 414.61 187.12 413.94 188.18 C 413.27 189.24 411.95 189.77 409.99 189.77 C 409.17 189.77 408.47 189.73 407.91 189.65 C 407.34 189.57 406.67 189.46 405.9 189.3 L 398.4 157.8 L 386.88 157.8 L 396.23 196.65 C 397.11 196.91 398.05 197.21 399.06 197.54 C 400.06 197.88 401.19 198.19 402.46 198.47 C 403.72 198.76 405.14 198.99 406.71 199.17 C 408.28 199.35 410.1 199.44 412.16 199.44 Z" style="fill: rgb(77, 77, 77); fill-rule: evenodd; fill-opacity: 1;"/>
      <path d="M 478.68 199.44 C 479.14 199.44 479.95 199.41 481.11 199.36 C 482.27 199.31 483.6 199.19 485.09 199.01 C 486.59 198.83 488.16 198.54 489.81 198.12 C 491.45 197.71 493.03 197.14 494.52 196.42 L 489.5 175.37 C 488.78 172.43 488.57 169.48 488.88 166.51 C 489.19 163.54 489.78 160.9 490.66 158.58 L 480.38 157.11 C 480.07 157.73 479.79 158.32 479.53 158.89 C 479.27 159.45 479.01 160.1 478.76 160.82 C 477.31 159.64 475.72 158.65 473.97 157.88 C 472.21 157.11 470.26 156.72 468.09 156.72 C 465.52 156.72 463.31 157.17 461.49 158.07 C 459.66 158.98 458.16 160.19 457 161.71 C 455.84 163.23 455.01 165.01 454.49 167.05 C 453.98 169.09 453.72 171.27 453.72 173.59 C 453.72 177.15 454.35 180.5 455.61 183.65 C 456.88 186.8 458.63 189.55 460.87 191.89 C 463.11 194.24 465.75 196.09 468.79 197.43 C 471.83 198.77 475.12 199.44 478.68 199.44 Z M 477.67 189.92 C 475.92 189.92 474.29 189.48 472.77 188.61 C 471.25 187.73 469.92 186.58 468.79 185.16 C 467.65 183.74 466.77 182.1 466.12 180.25 C 465.48 178.39 465.16 176.45 465.16 174.44 C 465.16 171.97 465.57 170.01 466.39 168.56 C 467.22 167.12 468.74 166.39 470.95 166.39 C 472.14 166.39 473.21 166.63 474.16 167.09 C 475.11 167.55 476.13 168.33 477.21 169.41 C 477.31 170.7 477.48 172.06 477.71 173.48 C 477.94 174.89 478.19 176.2 478.45 177.38 L 481.46 189.61 C 480.79 189.71 480.19 189.79 479.64 189.84 C 479.1 189.9 478.45 189.92 477.67 189.92 Z" style="fill: rgb(77, 77, 77); fill-rule: evenodd; fill-opacity: 1;"/>
      <path d="M 601.18 199.32 C 602.47 199.32 603.9 199.2 605.47 198.97 C 607.04 198.74 608.42 198.37 609.6 197.85 L 606.2 188.57 C 605.17 188.83 604.16 189.08 603.15 189.31 C 602.15 189.54 600.67 189.66 598.71 189.66 C 597.99 189.66 597.19 189.59 596.32 189.46 C 595.44 189.33 594.72 189.19 594.16 189.04 L 586.67 157.8 L 575.16 157.8 L 584.43 196.3 C 586.64 197.03 589.12 197.71 591.88 198.35 C 594.63 199 597.73 199.32 601.18 199.32 Z" style="fill: rgb(77, 77, 77); fill-rule: evenodd; fill-opacity: 1;"/>
      <path d="M 499.2 198.48 L 511.08 198.48 C 511.13 196.47 511.21 194.27 511.31 191.87 C 511.42 189.47 511.55 187.06 511.7 184.64 C 511.85 182.21 512.03 179.85 512.24 177.56 C 512.45 175.27 512.68 173.19 512.93 171.33 C 514.07 172.88 515.34 174.79 516.75 177.06 C 518.17 179.33 519.54 181.7 520.88 184.17 C 522.22 186.65 523.45 189.13 524.59 191.64 C 525.72 194.14 526.59 196.42 527.21 198.48 L 539.4 198.48 C 538.06 194.82 536.4 191.06 534.42 187.19 C 532.44 183.32 530.32 179.58 528.06 175.97 C 525.79 172.37 523.49 168.99 521.15 165.84 C 518.81 162.7 516.64 160.02 514.63 157.8 L 505.06 157.8 C 503.73 162.96 502.52 168.98 501.44 175.86 C 500.36 182.74 499.61 190.28 499.2 198.48 Z" style="fill: rgb(77, 77, 77); fill-rule: evenodd; fill-opacity: 1;"/>
      <path d="M 15.84 150 L 250.8 150 L 250.8 384.96 L 15.84 384.96 Z" style="fill: none;"/>
    </g>
    <g style="clip-path: url('#clippath1');">
      <g transform="matrix(3.81675568 -0.0000002199 -0.0000000281 3.81675568 15.84 150)">
        <path d="M 42.958 13.932 C 42.257 14.324 45.748 18.978 49.348 24.007 C 52.947 29.036 55.38 32.841 56.138 33.966 C 56.895 35.092 57.014 35.064 56.615 36.893 C 56.216 38.723 55.946 39.507 55.31 41.012 C 53.625 45.004 51.356 48.203 48.263 50.771 C 45.168 53.339 41.545 55.417 37.686 56.411 C 33.828 57.404 29.955 57.6 25.978 56.868 C 22.002 56.137 17.91 54.133 14.46 51.525 C 9.7314 47.948 6.7248 42.819 5.4331 38.573 C 4.1414 34.326 4.254 27.708 5.8242 22.946 C 7.3945 18.184 9.4566 14.378 13.266 10.94 C 17.074 7.5015 22.067 5.1851 27.798 4.4642 C 29.236 4.2831 30.912 4.2831 32.374 4.356 C 33.838 4.429 35.25 4.6593 36.689 4.9724 C 38.127 5.2854 39.522 5.6841 40.882 6.2232 C 42.243 6.7624 43.527 7.5544 44.783 8.2631 C 47.058 9.545 48.904 12.759 48.771 12.853 C 48.503 13.048 45.112 12.729 42.958 13.932 Z" style="fill: rgb(247, 147, 26); fill-opacity: 1;"/>
        <path d="M 0.085236 0.034412 L 61.525236 0.034412 L 61.525236 61.474412 L 0.085236 61.474412 Z" style="fill: none;"/>
      </g>
    </g>
    <g style="clip-path: url('#clippath2');">
      <g transform="matrix(3.81675568 -0.0000002199 -0.0000000281 3.81675568 15.84 150)">
        <path d="M 56.299 31.589 C 56.299 31.589 57.702 34.396 57.186 30.862 C 57.095 30.24 54.622 19.367 54.622 19.367 C 54.622 19.364 59.415 19.073 59.415 19.073 C 60.284 19.082 59.863 18.441 59.863 18.441 L 47.08 1.7837 C 45.242 -0.73506 46.112 2.2256 46.137 2.6584 C 48.372 9.1353 49.709 12.805 50.151 13.657 C 50.151 13.657 44.504 14.38 44.536 14.84 L 44.536 14.923 C 44.554 15.136 45.986 17.173 48.841 21.03 C 53.152 27.091 48.851 21.013 56.299 31.589 Z" style="fill: rgb(255, 186, 0); fill-opacity: 1;"/>
      </g>
    </g>
    <g style="clip-path: url('#clippath1');">
      <g transform="matrix(3.81675568 -0.0000002199 -0.0000000281 3.81675568 15.84 150)">
        <path d="M 44.291 34.152 C 44.855 37.798 41.984 39.758 38.057 41.064 L 39.334 46.001 L 36.221 46.751 L 34.982 41.945 C 34.165 42.14 33.325 42.325 32.491 42.509 L 33.74 47.352 L 30.633 48.096 L 29.357 43.166 C 28.681 43.312 28.016 43.458 27.372 43.614 L 27.374 43.63 L 23.087 44.662 L 22.261 41.454 C 22.261 41.454 24.565 40.942 24.518 40.91 C 25.778 40.608 26.006 39.803 25.967 39.163 L 22.476 25.636 C 22.325 25.268 21.934 24.713 21.05 24.925 C 21.084 24.88 18.792 25.467 18.792 25.467 L 17.248 22.029 L 21.294 21.053 C 22.047 20.873 22.787 20.68 23.514 20.502 L 22.225 15.508 L 25.332 14.758 L 26.604 19.699 C 27.454 19.477 28.277 19.271 29.084 19.078 L 27.813 14.157 L 30.923 13.412 L 32.21 18.394 C 37.511 17.427 41.499 17.817 43.18 22.453 C 44.528 26.182 43.113 28.338 40.319 29.741 C 42.351 30.194 43.882 31.487 44.291 34.152 Z M 37.187 24.525 C 36.224 20.792 29.723 22.809 27.614 23.314 L 29.324 29.932 C 31.432 29.424 38.193 28.419 37.187 24.525 Z M 38.147 34.208 C 37.27 30.811 31.862 32.538 30.104 32.961 L 31.654 38.961 C 33.407 38.538 39.062 37.75 38.147 34.208 Z" style="fill: rgb(250, 250, 250); fill-opacity: 1;"/>
      </g>
    </g>
    <g transform="">
      <path d="M 284.7 256.71 C 288.6 256.7 292.44 257.69 295.86 259.59 C 299.37 261.47 302.45 264.05 304.93 267.16 C 307.5 270.46 309.53 274.15 310.92 278.1 C 312.4 282.17 313.14 286.47 313.14 290.81 C 313.37 295.2 312.43 299.58 310.42 303.5 C 308.62 306.53 305.28 308.07 300.43 308.07 C 298.32 308 296.22 307.72 294.16 307.22 C 291.61 306.65 289.25 305.42 287.31 303.66 L 276.23 257.34 L 278.01 257 C 278.54 256.87 279.08 256.79 279.62 256.75 C 280.31 256.67 281.01 256.63 281.71 256.65 L 284.69 256.71 Z M 306.7 329.13 C 311.54 329.24 316.34 328.25 320.74 326.24 C 324.57 324.42 327.93 321.75 330.57 318.44 C 333.27 315.02 335.26 311.09 336.42 306.88 C 337.69 302.24 338.31 297.45 338.28 292.64 C 338.27 277.68 332.48 263.31 322.1 252.53 C 317.07 247.37 311.09 243.24 304.49 240.36 C 297.56 237.31 290.07 235.75 282.5 235.8 L 277.15 235.8 C 274.24 235.9 271.34 236.15 268.46 236.55 C 264.94 237.06 261.45 237.76 258.01 238.64 C 254.4 239.5 250.9 240.75 247.56 242.37 L 276.92 365.42 L 303.15 369.6 L 292.7 325.93 C 294.88 326.91 297.14 327.7 299.45 328.29 C 301.84 328.87 304.29 329.16 306.75 329.15 L 306.7 329.12 Z" style="fill: rgb(77, 77, 77); fill-rule: evenodd; fill-opacity: 1;"/>
      <path d="M 377.62 338.03 C 374.2 338 370.86 339.09 368.12 341.14 C 365.22 343.44 363.65 347.02 363.94 350.71 C 363.93 353.01 364.42 355.29 365.38 357.38 C 366.31 359.41 367.6 361.25 369.21 362.81 C 370.82 364.33 372.68 365.56 374.71 366.44 C 376.83 367.35 379.11 367.81 381.41 367.8 C 384.81 367.81 388.11 366.71 390.82 364.67 C 393.72 362.37 395.29 358.78 395.01 355.1 C 395.03 352.79 394.54 350.51 393.59 348.42 C 392.66 346.39 391.37 344.56 389.78 343.01 C 388.17 341.47 386.31 340.24 384.27 339.37 C 382.16 338.46 379.88 338.01 377.58 338.03 L 377.62 338.03 Z M 365.43 238.2 L 340.32 238.2 L 361.53 327.19 L 386.79 327.19 L 365.42 238.2 Z" style="fill: rgb(77, 77, 77); fill-rule: evenodd; fill-opacity: 1;"/>
      <path d="M 408.68 349.35 L 434.91 353.4 L 428.39 327.17 L 456.48 327.17 L 451.42 306.52 L 423.56 306.52 L 416.12 275.46 C 415.48 273.08 415.08 270.65 414.93 268.19 C 414.78 266.2 415.07 264.2 415.78 262.34 C 416.48 260.67 417.78 259.32 419.42 258.55 C 421.78 257.51 424.36 257.03 426.95 257.17 C 429.59 257.16 432.23 257.42 434.82 257.95 C 437.44 258.46 440.01 259.15 442.52 260.04 L 444.4 240.72 C 440.8 239.43 437.12 238.36 433.38 237.53 C 428.77 236.55 424.06 236.09 419.34 236.17 C 411.54 236.17 405.52 237.34 401.22 239.64 C 397.19 241.69 393.96 245.03 392.06 249.13 C 390.21 253.48 389.4 258.2 389.7 262.92 C 389.98 268.46 390.77 273.96 392.06 279.35 L 408.68 349.43 L 408.68 349.35 Z" style="fill: rgb(77, 77, 77); fill-rule: evenodd; fill-opacity: 1;"/>
      <path d="M 455.58 273.75 C 455.53 281.14 456.79 288.48 459.3 295.43 C 461.66 302 465.28 308.04 469.96 313.22 C 474.67 318.36 480.41 322.44 486.79 325.23 C 493.76 328.24 501.29 329.74 508.87 329.63 C 513.46 329.69 518.03 329.21 522.5 328.19 C 526.25 327.3 529.9 326.03 533.4 324.39 L 524.69 304.8 C 522.43 305.72 520.09 306.51 517.67 307.24 C 514.78 308.05 511.79 308.42 508.79 308.35 C 501.22 308.63 493.93 305.42 489.01 299.65 C 484.12 293.9 481.67 286.16 481.65 276.45 C 481.42 271.52 482.72 266.64 485.37 262.48 C 487.85 258.92 492.42 257.15 499.08 257.15 C 502.27 257.14 505.45 257.49 508.56 258.17 C 511.34 258.76 514.06 259.61 516.69 260.7 L 518.55 240.54 C 515.13 239.25 511.64 238.15 508.1 237.24 C 503.61 236.23 499.01 235.75 494.4 235.82 C 488.28 235.64 482.19 236.67 476.47 238.85 C 471.93 240.69 467.84 243.49 464.48 247.07 C 461.3 250.54 458.95 254.69 457.61 259.2 C 456.19 263.94 455.49 268.88 455.52 273.83 L 455.58 273.75 Z" style="fill: rgb(77, 77, 77); fill-rule: evenodd; fill-opacity: 1;"/>
      <path d="M 579.38 308.26 C 575.84 308.31 572.39 307.18 569.56 305.06 C 566.69 302.84 564.28 300.07 562.47 296.93 C 560.48 293.58 558.99 289.96 558.04 286.18 C 557.12 282.56 556.64 278.84 556.62 275.11 C 556.39 270.54 557.32 266 559.32 261.9 C 561.14 258.74 564.4 257.15 569.14 257.15 C 572.68 257.09 576.14 258.22 578.96 260.37 C 581.84 262.59 584.25 265.36 586.07 268.5 C 588.03 271.85 589.48 275.47 590.4 279.24 C 591.31 282.87 591.78 286.6 591.82 290.34 C 592.05 294.9 591.12 299.45 589.12 303.55 C 587.3 306.69 584.02 308.28 579.3 308.28 L 579.38 308.26 Z M 566.84 235.81 C 561.51 235.69 556.22 236.61 551.25 238.53 C 547.07 240.18 543.33 242.78 540.34 246.14 C 537.4 249.52 535.18 253.47 533.82 257.74 C 532.34 262.53 531.63 267.52 531.73 272.54 C 531.74 279.44 532.85 286.29 535.01 292.85 C 537.11 299.45 540.38 305.62 544.66 311.06 C 548.97 316.5 554.32 321.02 560.4 324.35 C 566.95 327.87 574.29 329.65 581.72 329.51 C 587.01 329.61 592.28 328.69 597.23 326.79 C 601.41 325.17 605.17 322.6 608.2 319.29 C 611.12 315.9 613.34 311.96 614.7 307.69 C 616.19 302.9 616.89 297.89 616.79 292.87 C 616.77 285.98 615.69 279.12 613.59 272.56 C 611.53 265.95 608.32 259.76 604.1 254.27 C 599.86 248.81 594.53 244.29 588.45 240.99 C 581.8 237.46 574.37 235.67 566.84 235.81 Z" style="fill: rgb(77, 77, 77); fill-rule: evenodd; fill-opacity: 1;"/>
      <path d="M 656.37 338.03 C 652.96 338 649.62 339.09 646.89 341.14 C 643.99 343.44 642.42 347.02 642.71 350.71 C 642.7 353.01 643.19 355.29 644.15 357.38 C 645.05 359.4 646.31 361.24 647.88 362.81 C 649.49 364.33 651.36 365.56 653.4 366.44 C 655.51 367.35 657.78 367.81 660.08 367.8 C 663.5 367.83 666.85 366.73 669.58 364.67 C 672.48 362.37 674.05 358.78 673.77 355.1 C 673.77 352.79 673.27 350.51 672.3 348.42 C 671.39 346.39 670.11 344.55 668.51 343.01 C 666.91 341.47 665.05 340.24 663.01 339.37 C 660.91 338.47 658.65 338.02 656.37 338.03 Z M 644.2 238.2 L 619.08 238.2 L 640.26 327.19 L 665.54 327.19 L 644.2 238.2 Z" style="fill: rgb(77, 77, 77); fill-rule: evenodd; fill-opacity: 1;"/>
      <path d="M 683.62 323.12 C 685.53 323.66 687.64 324.33 689.89 325.06 C 692.15 325.79 694.78 326.46 697.69 327.15 C 700.87 327.82 704.09 328.33 707.32 328.67 C 711.34 329.1 715.38 329.3 719.42 329.28 C 732.63 329.28 741.74 325.44 746.76 317.77 C 749.76 313.18 751.28 307.57 751.32 300.96 L 751.32 300.48 C 751.3 296.18 750.65 291.45 749.39 286.31 L 737.88 238.28 L 712.72 238.28 L 723.9 285.31 C 724.56 288.23 725.11 291.07 725.51 293.85 C 725.94 296.25 725.94 298.71 725.51 301.11 C 725.09 303.12 723.98 304.91 722.37 306.19 C 720.14 307.65 717.49 308.33 714.83 308.13 C 711.48 308.12 708.14 307.78 704.86 307.1 L 688.43 238.2 L 663.12 238.2 L 683.62 323.12 Z" style="fill: rgb(77, 77, 77); fill-rule: evenodd; fill-opacity: 1;"/>
    </g>
  </g>
</svg>