<svg width="3573" height="1169" xmlns="http://www.w3.org/2000/svg" xmlns:xlink="http://www.w3.org/1999/xlink" xml:space="preserve" overflow="hidden"><g transform="matrix(1 0 0 1 0 -675)"><g><g><g><path d="M4225.09 4799.59C4213.21 4792.72 4272.35 4711.13 4333.35 4622.99 4394.32 4534.82 4435.54 4468.13 4448.38 4448.4 4461.22 4428.67 4463.23 4429.17 4456.47 4397.1 4449.7 4365.03 4445.14 4351.27 4434.36 4324.89 4405.8 4254.92 4367.36 4198.85 4314.96 4153.83 4262.53 4108.82 4201.14 4072.39 4135.76 4054.97 4070.4 4037.56 4004.78 4034.13 3937.41 4046.96 3870.04 4059.77 3800.71 4094.9 3742.25 4140.62 3662.14 4203.32 3611.2 4293.23 3589.32 4367.66 3567.43 4442.09 3569.34 4558.1 3595.95 4641.58 3622.55 4725.06 3657.49 4791.78 3722.02 4852.04 3786.55 4912.31 3871.14 4952.92 3968.23 4965.55 3992.6 4968.73 4021 4968.73 4045.77 4967.45 4070.58 4966.17 4094.5 4962.13 4118.86 4956.65 4143.24 4951.16 4166.87 4944.17 4189.91 4934.72 4212.98 4925.27 4234.72 4911.39 4256.01 4898.96 4294.55 4876.49 4325.82 4820.16 4323.57 4818.51 4319.03 4815.08 4261.57 4820.68 4225.09 4799.59Z" fill="#F7931A" transform="matrix(1.03463 0 0 1 -3546.89 -3255.21)"/><path d="M4451.11 4490.07C4451.11 4490.07 4474.88 4440.87 4466.14 4502.82 4464.61 4513.72 4422.7 4704.31 4422.7 4704.31 4422.7 4704.37 4503.91 4709.47 4503.91 4709.47 4518.64 4709.32 4511.5 4720.55 4511.5 4720.55L4294.92 5012.54C4263.78 5056.69 4278.52 5004.8 4278.94 4997.21 4316.82 4883.67 4339.47 4819.35 4346.96 4804.41 4346.96 4804.41 4251.28 4791.75 4251.81 4783.67L4251.81 4782.22C4252.12 4778.49 4276.38 4742.78 4324.76 4675.16 4397.79 4568.92 4324.93 4675.46 4451.11 4490.07Z" fill="#FFBA00" transform="matrix(1.03463 0 0 1 -3546.89 -3255.21)"/><path d="M4247.67 4445.14C4257.22 4381.23 4208.59 4346.87 4142.05 4323.99L4163.68 4237.44 4110.95 4224.3 4089.96 4308.54C4076.11 4305.12 4061.87 4301.88 4047.75 4298.66L4068.9 4213.76 4016.26 4200.72 3994.65 4287.14C3983.19 4284.59 3971.94 4282.03 3961.03 4279.28L3961.06 4279 3888.41 4260.91 3874.43 4317.16C3874.43 4317.16 3913.46 4326.13 3912.66 4326.68 3934.02 4331.98 3937.87 4346.08 3937.21 4357.3L3878.07 4594.42C3875.51 4600.88 3868.89 4610.61 3853.9 4606.9 3854.49 4607.69 3815.65 4597.4 3815.65 4597.4L3789.5 4657.66 3858.04 4674.76C3870.8 4677.92 3883.34 4681.3 3895.65 4684.43L3873.82 4771.97 3926.46 4785.12 3948.01 4698.51C3962.4 4702.39 3976.35 4706.01 3990.02 4709.39L3968.5 4795.65 4021.18 4808.71 4042.99 4721.38C4132.8 4738.32 4200.37 4731.49 4228.85 4650.23 4251.68 4584.85 4227.71 4547.06 4180.37 4522.47 4214.8 4514.52 4240.74 4491.86 4247.67 4445.14ZM4127.3 4613.9C4110.99 4679.34 4000.84 4643.99 3965.12 4635.12L3994.09 4519.12C4029.8 4528.02 4144.35 4545.65 4127.3 4613.9ZM4143.57 4444.16C4128.72 4503.71 4037.09 4473.44 4007.31 4466.03L4033.56 4360.85C4063.27 4368.27 4159.07 4382.09 4143.57 4444.16Z" fill="#FAFAFA" transform="matrix(1.03463 0 0 1 -3546.89 -3255.21)"/></g></g></g><path d="M1579 1477 1529.75 1680.73C1528.8 1684.97 1528.27 1688.86 1528.15 1692.4 1528.04 1695.93 1528.69 1699.06 1530.1 1701.77 1531.52 1704.48 1533.94 1706.66 1537.37 1708.31 1540.79 1709.96 1545.58 1711.02 1551.72 1711.5L1541.09 1755C1524.32 1755 1511.15 1752.82 1501.58 1748.46 1492.01 1744.09 1485.16 1738.14 1481.03 1730.6 1476.9 1723.05 1474.89 1714.38 1475.01 1704.6 1475.12 1694.81 1476.48 1684.38 1479.08 1673.3L1524.08 1485.49 1579 1477Z" fill="#4D4D4D" fill-rule="evenodd"/><path d="M2899.17 1477 2861.78 1632.36C2875.89 1621.06 2889.18 1609.53 2901.64 1597.76 2914.1 1585.99 2924.8 1575.16 2933.74 1565.27L2993 1565.27C2979.83 1579.87 2966.13 1594.17 2951.91 1608.17 2937.68 1622.18 2921.39 1637.07 2903.05 1652.84 2907.99 1658.96 2912.99 1666.02 2918.04 1674.03 2923.1 1682.03 2927.92 1690.39 2932.5 1699.1 2937.09 1707.81 2941.32 1716.63 2945.2 1725.58 2949.08 1734.52 2952.32 1743 2954.9 1751L2896.35 1751C2894.23 1744.88 2891.59 1738.17 2888.41 1730.87 2885.24 1723.58 2881.71 1716.34 2877.83 1709.16 2873.95 1701.98 2869.89 1694.98 2865.66 1688.15 2861.43 1681.32 2857.19 1675.2 2852.96 1669.79L2833.21 1751 2781 1751 2844.49 1485.47 2899.17 1477Z" fill="#4D4D4D" fill-rule="evenodd"/><path d="M3088.17 1477 3050.78 1632.36C3064.89 1621.06 3078.18 1609.53 3090.64 1597.76 3103.1 1585.99 3113.8 1575.16 3122.74 1565.27L3182 1565.27C3168.83 1579.87 3155.13 1594.17 3140.91 1608.17 3126.68 1622.18 3110.39 1637.07 3092.05 1652.84 3096.99 1658.96 3101.99 1666.02 3107.04 1674.03 3112.1 1682.03 3116.92 1690.39 3121.5 1699.1 3126.09 1707.81 3130.32 1716.63 3134.2 1725.58 3138.08 1734.52 3141.32 1743 3143.9 1751L3085.35 1751C3083.23 1744.88 3080.59 1738.17 3077.41 1730.87 3074.24 1723.58 3070.71 1716.34 3066.83 1709.16 3062.95 1701.98 3058.89 1694.98 3054.66 1688.15 3050.43 1681.32 3046.19 1675.2 3041.96 1669.79L3022.21 1751 2970 1751 3033.49 1485.47 3088.17 1477Z" fill="#4D4D4D" fill-rule="evenodd"/><path d="M1205.6 1560C1218.42 1560 1229.81 1561.42 1239.78 1564.25 1249.76 1567.08 1257.83 1570.14 1264 1573.44L1245.84 1612.71C1240.85 1610.12 1234.44 1607.64 1226.61 1605.29 1218.77 1602.93 1211.06 1601.75 1203.46 1601.75 1200.14 1601.75 1196.87 1601.92 1193.67 1602.28 1190.46 1602.63 1187.5 1603.4 1184.77 1604.58 1182.04 1605.76 1179.84 1607.41 1178.18 1609.53 1176.52 1611.65 1175.69 1614.48 1175.69 1618.02 1175.69 1622.74 1177.53 1626.28 1181.2 1628.64 1184.88 1630.99 1190.05 1633.82 1196.7 1637.13 1205.95 1641.61 1213.67 1645.73 1219.84 1649.51 1226.02 1653.28 1230.94 1657.29 1234.62 1661.54 1238.3 1665.78 1240.97 1670.62 1242.63 1676.04 1244.3 1681.47 1245.13 1687.84 1245.13 1695.15 1245.13 1702.7 1243.52 1710.12 1240.32 1717.44 1237.11 1724.75 1232.07 1731.23 1225.18 1736.9 1218.3 1742.56 1209.52 1747.16 1198.83 1750.69 1188.15 1754.23 1175.33 1756 1160.37 1756 1151.11 1756 1142.75 1755.41 1135.27 1754.23 1127.79 1753.05 1121.2 1751.58 1115.5 1749.81 1109.81 1748.04 1105 1746.21 1101.08 1744.32 1097.16 1742.44 1094.14 1740.9 1092 1739.73L1110.16 1699.39C1114.2 1701.75 1120.49 1704.7 1129.04 1708.24 1137.58 1711.78 1147.91 1713.54 1160.02 1713.54 1172.12 1713.54 1180.43 1711.83 1184.94 1708.41 1189.45 1704.99 1191.71 1701.28 1191.71 1697.27 1191.71 1694.68 1191.29 1692.44 1190.46 1690.55 1189.63 1688.66 1188.27 1686.89 1186.37 1685.24 1184.47 1683.59 1181.86 1681.88 1178.53 1680.11 1175.21 1678.34 1170.94 1676.28 1165.71 1673.92 1159.78 1671.33 1154.2 1668.55 1148.98 1665.61 1143.75 1662.66 1139.18 1659.12 1135.27 1654.99 1131.35 1650.87 1128.26 1646.15 1126.01 1640.84 1123.75 1635.53 1122.63 1629.22 1122.63 1621.91 1122.63 1602.81 1129.69 1587.71 1143.81 1576.63 1157.94 1565.54 1178.53 1560 1205.6 1560Z" fill="#4D4D4D" fill-rule="evenodd"/><path d="M2579.56 1560C2587.83 1560 2595.5 1561.18 2602.58 1563.54 2609.67 1565.9 2615.86 1569.32 2621.18 1573.8 2626.49 1578.28 2630.62 1583.76 2633.57 1590.25 2636.52 1596.74 2638 1604.11 2638 1612.36 2638 1625.57 2635.05 1636.77 2629.15 1645.97 2623.24 1655.17 2615.04 1662.66 2604.53 1668.44 2594.02 1674.22 2581.57 1678.4 2567.17 1681 2552.76 1683.59 2537.06 1684.89 2520.06 1684.89 2521.72 1694.79 2525.32 1701.81 2530.86 1705.94 2536.41 1710.07 2545.21 1712.13 2557.25 1712.13 2564.81 1712.13 2572.48 1711.48 2580.27 1710.18 2588.06 1708.89 2595.38 1706.94 2602.23 1704.35L2606.12 1745.74C2599.51 1748.33 2591.07 1750.69 2580.8 1752.82 2570.53 1754.94 2559.38 1756 2547.33 1756 2532.69 1756 2520.36 1753.94 2510.32 1749.81 2500.29 1745.68 2492.14 1740.08 2485.89 1733 2479.63 1725.93 2475.08 1717.67 2472.25 1708.24 2469.42 1698.8 2468 1688.78 2468 1678.17 2468 1663.07 2470.66 1648.45 2475.97 1634.3 2481.28 1620.14 2488.78 1607.58 2498.46 1596.62 2508.14 1585.65 2519.89 1576.8 2533.7 1570.08 2547.51 1563.36 2562.8 1560 2579.56 1560ZM2571.06 1601.75C2559.02 1601.75 2548.45 1606.05 2539.36 1614.66 2530.27 1623.27 2524.31 1634.65 2521.48 1648.8 2536.12 1648.33 2547.92 1647.09 2556.9 1645.09 2565.87 1643.08 2572.83 1640.66 2577.79 1637.83 2582.75 1635 2586.06 1631.94 2587.71 1628.64 2589.36 1625.33 2590.19 1622.03 2590.19 1618.73 2590.19 1607.41 2583.81 1601.75 2571.06 1601.75Z" fill="#4D4D4D" fill-rule="evenodd"/><path d="M3277.54 1560C3289.78 1560 3300.55 1561.89 3309.86 1565.66 3319.16 1569.43 3326.81 1574.74 3332.81 1581.58 3338.82 1588.42 3343.35 1596.5 3346.41 1605.82 3349.47 1615.13 3351 1625.45 3351 1636.77 3351 1650.92 3348.76 1665.08 3344.29 1679.23 3339.82 1693.38 3333.22 1706.12 3324.51 1717.44 3315.8 1728.76 3304.91 1738.02 3291.84 1745.21 3278.78 1752.4 3263.65 1756 3246.46 1756 3233.98 1756 3223.15 1754.11 3213.97 1750.34 3204.79 1746.57 3197.19 1741.26 3191.19 1734.42 3185.18 1727.58 3180.65 1719.5 3177.59 1710.18 3174.53 1700.87 3173 1690.55 3173 1679.23 3173 1665.08 3175.3 1650.92 3179.89 1636.77 3184.48 1622.62 3191.25 1609.88 3200.19 1598.56 3209.14 1587.24 3220.09 1577.98 3233.04 1570.79 3245.99 1563.6 3260.82 1560 3277.54 1560ZM3272.59 1604.58C3264.83 1604.58 3258 1606.82 3252.11 1611.3 3246.22 1615.78 3241.28 1621.44 3237.28 1628.28 3233.28 1635.12 3230.27 1642.61 3228.27 1650.75 3226.27 1658.88 3225.27 1666.61 3225.27 1673.92 3225.27 1685.95 3227.15 1695.21 3230.92 1701.69 3234.69 1708.18 3241.52 1711.42 3251.4 1711.42 3259.17 1711.42 3266 1709.18 3271.89 1704.7 3277.78 1700.22 3282.72 1694.56 3286.72 1687.72 3290.73 1680.88 3293.73 1673.39 3295.73 1665.25 3297.73 1657.12 3298.73 1649.39 3298.73 1642.08 3298.73 1630.05 3296.85 1620.79 3293.08 1614.31 3289.31 1607.82 3282.48 1604.58 3272.59 1604.58Z" fill="#4D4D4D" fill-rule="evenodd"/><path d="M1389.4 1561C1391.52 1561 1395.24 1561.12 1400.55 1561.35 1405.86 1561.59 1411.94 1562.12 1418.79 1562.94 1425.64 1563.77 1432.84 1565.12 1440.4 1567.01 1447.95 1568.89 1455.15 1571.48 1462 1574.78L1438.98 1670.86C1435.67 1684.29 1434.73 1697.77 1436.15 1711.31 1437.56 1724.85 1440.28 1736.92 1444.29 1747.52L1397.19 1754.23C1395.77 1751.41 1394.47 1748.7 1393.29 1746.11 1392.11 1743.52 1390.93 1740.57 1389.75 1737.28 1383.14 1742.69 1375.82 1747.17 1367.79 1750.7 1359.76 1754.23 1350.79 1756 1340.88 1756 1329.07 1756 1318.98 1753.94 1310.59 1749.82 1302.21 1745.7 1295.36 1740.16 1290.05 1733.21 1284.74 1726.27 1280.9 1718.14 1278.54 1708.84 1276.18 1699.54 1275 1689.59 1275 1678.99 1275 1662.74 1277.89 1647.43 1283.68 1633.07 1289.46 1618.7 1297.49 1606.16 1307.76 1595.44 1318.03 1584.73 1330.13 1576.31 1344.06 1570.18 1357.99 1564.06 1373.1 1561 1389.4 1561ZM1384.79 1604.45C1376.76 1604.45 1369.27 1606.45 1362.3 1610.46 1355.34 1614.46 1349.26 1619.7 1344.06 1626.18 1338.87 1632.65 1334.8 1640.13 1331.84 1648.61 1328.89 1657.09 1327.42 1665.92 1327.42 1675.1 1327.42 1686.41 1329.31 1695.36 1333.08 1701.95 1336.86 1708.55 1343.83 1711.84 1353.98 1711.84 1359.41 1711.84 1364.31 1710.78 1368.68 1708.66 1373.05 1706.54 1377.71 1703.01 1382.67 1698.06 1383.14 1692.18 1383.91 1686 1384.97 1679.52 1386.03 1673.04 1387.15 1667.1 1388.33 1661.68L1402.15 1605.86C1399.08 1605.39 1396.3 1605.04 1393.82 1604.8 1391.34 1604.57 1388.33 1604.45 1384.79 1604.45Z" fill="#4D4D4D" fill-rule="evenodd"/><path d="M1699.4 1561C1701.52 1561 1705.24 1561.12 1710.55 1561.35 1715.86 1561.59 1721.94 1562.12 1728.79 1562.94 1735.64 1563.77 1742.84 1565.12 1750.4 1567.01 1757.95 1568.89 1765.15 1571.48 1772 1574.78L1748.98 1670.86C1745.67 1684.29 1744.73 1697.77 1746.15 1711.31 1747.56 1724.85 1750.28 1736.92 1754.29 1747.52L1707.19 1754.23C1705.77 1751.41 1704.47 1748.7 1703.29 1746.11 1702.11 1743.52 1700.93 1740.57 1699.75 1737.28 1693.14 1742.69 1685.82 1747.17 1677.79 1750.7 1669.76 1754.23 1660.79 1756 1650.88 1756 1639.07 1756 1628.98 1753.94 1620.59 1749.82 1612.21 1745.7 1605.36 1740.16 1600.05 1733.21 1594.74 1726.27 1590.9 1718.14 1588.54 1708.84 1586.18 1699.54 1585 1689.59 1585 1678.99 1585 1662.74 1587.89 1647.43 1593.68 1633.07 1599.46 1618.7 1607.49 1606.16 1617.76 1595.44 1628.03 1584.73 1640.13 1576.31 1654.06 1570.18 1667.99 1564.06 1683.1 1561 1699.4 1561ZM1694.79 1604.45C1686.76 1604.45 1679.27 1606.45 1672.3 1610.46 1665.34 1614.46 1659.26 1619.7 1654.06 1626.18 1648.87 1632.65 1644.8 1640.13 1641.84 1648.61 1638.89 1657.09 1637.42 1665.92 1637.42 1675.1 1637.42 1686.41 1639.31 1695.36 1643.08 1701.95 1646.86 1708.55 1653.83 1711.84 1663.98 1711.84 1669.41 1711.84 1674.31 1710.78 1678.68 1708.66 1683.05 1706.54 1687.71 1703.01 1692.67 1698.06 1693.14 1692.18 1693.91 1686 1694.97 1679.52 1696.03 1673.04 1697.15 1667.1 1698.33 1661.68L1712.15 1605.86C1709.08 1605.39 1706.3 1605.04 1703.82 1604.8 1701.34 1604.57 1698.33 1604.45 1694.79 1604.45Z" fill="#4D4D4D" fill-rule="evenodd"/><path d="M1888.94 1561C1900.29 1561 1909.68 1562.41 1917.13 1565.24 1924.57 1568.06 1931.37 1572.3 1937.51 1577.95 1946.26 1573.01 1954.95 1568.95 1963.57 1565.77 1972.2 1562.59 1982.31 1561 1993.89 1561 2005 1561 2014.51 1562.47 2022.43 1565.41 2030.35 1568.36 2036.91 1572.6 2042.11 1578.13 2047.31 1583.66 2051.09 1590.25 2053.45 1597.91 2055.82 1605.56 2057 1613.97 2057 1623.16 2057 1627.39 2056.7 1631.87 2056.11 1636.58 2055.52 1641.28 2054.64 1645.99 2053.45 1650.7L2029.34 1751 1976.52 1751 1999.92 1652.82C2000.63 1649.53 2001.39 1645.82 2002.22 1641.7 2003.05 1637.58 2003.46 1633.52 2003.46 1629.51 2003.46 1622.92 2001.93 1617.21 1998.85 1612.38 1995.78 1607.56 1989.75 1605.15 1980.77 1605.15 1975.81 1605.15 1971.08 1606.03 1966.59 1607.79 1962.1 1609.56 1958.08 1611.38 1954.53 1613.27 1955.01 1615.15 1955.24 1616.92 1955.24 1618.57 1955.24 1620.21 1955.24 1621.74 1955.24 1623.16 1955.24 1627.39 1954.95 1631.87 1954.36 1636.58 1953.76 1641.28 1952.88 1645.99 1951.7 1650.7L1927.59 1751 1874.76 1751 1898.16 1652.82C1898.87 1649.53 1899.64 1645.82 1900.46 1641.7 1901.29 1637.58 1901.7 1633.52 1901.7 1629.51 1901.7 1622.92 1900.17 1617.21 1897.09 1612.38 1894.02 1607.56 1887.99 1605.15 1879.01 1605.15 1875.23 1605.15 1872.04 1605.32 1869.44 1605.67 1866.84 1606.03 1863.77 1606.56 1860.22 1607.26L1825.83 1751 1773 1751 1815.9 1573.71C1819.92 1572.54 1824.23 1571.18 1828.84 1569.65 1833.45 1568.12 1838.65 1566.71 1844.44 1565.41 1850.23 1564.12 1856.73 1563.06 1863.94 1562.24 1871.15 1561.41 1879.49 1561 1888.94 1561Z" fill="#4D4D4D" fill-rule="evenodd"/><path d="M2194.4 1561C2196.52 1561 2200.24 1561.12 2205.55 1561.35 2210.86 1561.59 2216.94 1562.12 2223.79 1562.94 2230.64 1563.77 2237.84 1565.12 2245.4 1567.01 2252.95 1568.89 2260.15 1571.48 2267 1574.78L2243.98 1670.86C2240.67 1684.29 2239.73 1697.77 2241.15 1711.31 2242.56 1724.85 2245.28 1736.92 2249.29 1747.52L2202.19 1754.23C2200.77 1751.41 2199.47 1748.7 2198.29 1746.11 2197.11 1743.52 2195.93 1740.57 2194.75 1737.28 2188.14 1742.69 2180.82 1747.17 2172.79 1750.7 2164.76 1754.23 2155.79 1756 2145.88 1756 2134.07 1756 2123.98 1753.94 2115.59 1749.82 2107.21 1745.7 2100.36 1740.16 2095.05 1733.21 2089.74 1726.27 2085.9 1718.14 2083.54 1708.84 2081.18 1699.54 2080 1689.59 2080 1678.99 2080 1662.74 2082.89 1647.43 2088.68 1633.07 2094.46 1618.7 2102.49 1606.16 2112.76 1595.44 2123.03 1584.73 2135.13 1576.31 2149.06 1570.18 2162.99 1564.06 2178.1 1561 2194.4 1561ZM2189.79 1604.45C2181.76 1604.45 2174.27 1606.45 2167.3 1610.46 2160.34 1614.46 2154.26 1619.7 2149.06 1626.18 2143.87 1632.65 2139.8 1640.13 2136.84 1648.61 2133.89 1657.09 2132.42 1665.92 2132.42 1675.1 2132.42 1686.41 2134.31 1695.36 2138.08 1701.95 2141.86 1708.55 2148.83 1711.84 2158.98 1711.84 2164.41 1711.84 2169.31 1710.78 2173.68 1708.66 2178.05 1706.54 2182.71 1703.01 2187.67 1698.06 2188.14 1692.18 2188.91 1686 2189.97 1679.52 2191.03 1673.04 2192.15 1667.1 2193.33 1661.68L2207.15 1605.86C2204.08 1605.39 2201.3 1605.04 2198.82 1604.8 2196.34 1604.57 2193.33 1604.45 2189.79 1604.45Z" fill="#4D4D4D" fill-rule="evenodd"/><path d="M2755.39 1561C2761.29 1561 2767.84 1561.53 2775.05 1562.59 2782.25 1563.65 2788.57 1565.36 2794 1567.72L2778.41 1610.18C2773.69 1609 2769.02 1607.88 2764.42 1606.82 2759.81 1605.76 2753.02 1605.23 2744.05 1605.23 2740.74 1605.23 2737.08 1605.52 2733.07 1606.11 2729.05 1606.7 2725.75 1607.35 2723.15 1608.06L2688.78 1751 2636 1751 2678.51 1574.8C2688.67 1571.5 2700.06 1568.37 2712.7 1565.42 2725.33 1562.47 2739.56 1561 2755.39 1561Z" fill="#4D4D4D" fill-rule="evenodd"/><path d="M2288 1565 2342.39 1565C2342.62 1574.19 2342.98 1584.27 2343.45 1595.23 2343.92 1606.2 2344.51 1617.22 2345.21 1628.3 2345.92 1639.38 2346.74 1650.16 2347.69 1660.65 2348.63 1671.14 2349.69 1680.63 2350.86 1689.12 2356.04 1682.05 2361.87 1673.32 2368.35 1662.95 2374.82 1652.58 2381.12 1641.73 2387.24 1630.42 2393.36 1619.1 2399.01 1607.73 2404.19 1596.29 2409.37 1584.86 2413.37 1574.43 2416.2 1565L2472 1565C2465.88 1581.74 2458.29 1598.95 2449.22 1616.63 2440.16 1634.31 2430.44 1651.4 2420.08 1667.9 2409.72 1684.4 2399.19 1699.84 2388.48 1714.22 2377.76 1728.6 2367.82 1740.86 2358.63 1751L2314.84 1751C2308.72 1727.43 2303.19 1699.9 2298.24 1668.43 2293.3 1636.96 2289.88 1602.48 2288 1565Z" fill="#4D4D4D" fill-rule="evenodd"/><path d="M1305.29 1298.21C1323.2 1298.26 1340.82 1293.7 1356.46 1284.99 1372.56 1276.41 1386.72 1264.6 1398.05 1250.31 1409.87 1235.21 1419.15 1218.29 1425.56 1200.22 1432.31 1181.54 1435.74 1161.84 1435.71 1141.99 1436.79 1121.84 1432.48 1101.78 1423.25 1083.85 1415.01 1069.96 1399.68 1062.87 1377.44 1062.87 1367.76 1063.21 1358.13 1064.52 1348.69 1066.8 1336.98 1069.41 1326.15 1075.03 1317.26 1083.08L1266.47 1295.33 1274.62 1296.86C1277.04 1297.46 1279.52 1297.84 1281.99 1298.01 1285.17 1298.41 1288.38 1298.57 1291.58 1298.49L1305.28 1298.2ZM1406.2 966.425C1428.38 965.914 1450.4 970.438 1470.59 979.645 1488.12 987.996 1503.52 1000.21 1515.63 1015.37 1528.04 1031.06 1537.16 1049.06 1542.47 1068.34 1548.28 1089.59 1551.14 1111.53 1550.99 1133.57 1550.97 1202.12 1524.38 1267.98 1476.82 1317.37 1453.76 1341.01 1426.33 1359.94 1396.04 1373.11 1364.28 1387.09 1329.93 1394.21 1295.23 1394L1270.69 1394C1257.35 1393.56 1244.04 1392.42 1230.82 1390.55 1214.69 1388.21 1198.69 1385.02 1182.91 1380.97 1166.37 1377.04 1150.3 1371.33 1135 1363.92L1269.64 800.158 1389.91 781 1342 981.086C1351.98 976.576 1362.33 972.955 1372.95 970.266 1383.9 967.604 1395.14 966.28 1406.4 966.342L1406.2 966.439Z" fill="#4D4D4D" fill-rule="evenodd"/><path d="M1730.43 925.437C1714.79 925.589 1699.55 920.57 1687.03 911.174 1673.76 900.662 1666.59 884.221 1667.91 867.325 1667.85 856.784 1670.1 846.355 1674.5 836.779 1678.72 827.453 1684.65 819.008 1692 811.887 1699.34 804.897 1707.85 799.258 1717.14 795.225 1726.8 791.069 1737.21 788.952 1747.72 789.001 1763.25 788.952 1778.35 793.998 1790.73 803.36 1803.97 813.893 1811.14 830.32 1809.85 847.21 1809.93 857.777 1807.72 868.235 1803.36 877.844 1799.14 887.123 1793.24 895.526 1785.96 902.64 1778.63 909.658 1770.13 915.297 1760.82 919.302 1751.16 923.458 1740.74 925.547 1730.23 925.43L1730.43 925.43ZM1674.7 1383 1560 1383 1656.92 975.125 1772.29 975.125 1674.7 1383Z" fill="#4D4D4D" fill-rule="evenodd"/><path d="M1873.17 873.569 1993.25 855 1963.4 975.147 2092 975.147 2068.83 1069.73 1941.29 1069.73 1907.23 1211.99C1904.28 1222.88 1902.46 1234.04 1901.77 1245.31 1901.07 1254.42 1902.42 1263.58 1905.69 1272.1 1908.9 1279.76 1914.83 1285.94 1922.34 1289.43 1933.16 1294.22 1944.97 1296.39 1956.79 1295.75 1968.9 1295.79 1980.98 1294.6 1992.86 1292.21 2004.81 1289.87 2016.59 1286.68 2028.07 1282.64L2036.68 1371.09C2020.2 1377.02 2003.35 1381.92 1986.25 1385.74 1965.12 1390.22 1943.56 1392.31 1921.96 1391.96 1886.27 1391.96 1858.71 1386.6 1839 1376.07 1820.57 1366.69 1805.8 1351.38 1797.09 1332.6 1788.6 1312.68 1784.89 1291.03 1786.29 1269.42 1787.57 1244.06 1791.19 1218.87 1797.09 1194.17L1873.16 873.183 1873.16 873.569Z" fill="#4D4D4D" fill-rule="evenodd"/><path d="M2088.29 1220.11C2088.05 1186.25 2093.82 1152.6 2105.34 1120.76 2116.14 1090.65 2132.74 1062.96 2154.18 1039.23 2175.79 1015.7 2202.07 996.976 2231.36 984.228 2263.29 970.432 2297.79 963.541 2332.57 964.024 2353.57 963.775 2374.53 965.99 2395.01 970.625 2412.23 974.709 2428.98 980.551 2445 988.063L2405.07 1077.83C2394.73 1073.62 2384 1069.99 2372.89 1066.63 2359.65 1062.93 2345.94 1061.22 2332.19 1061.55 2297.47 1060.29 2264.07 1074.98 2241.51 1101.41 2219.1 1127.78 2207.85 1163.23 2207.8 1207.75 2206.74 1230.34 2212.7 1252.69 2224.84 1271.76 2236.2 1288.05 2257.15 1296.18 2287.66 1296.18 2302.28 1296.19 2316.86 1294.62 2331.14 1291.49 2343.87 1288.77 2356.35 1284.89 2368.39 1279.89L2376.91 1372.26C2361.25 1378.19 2345.27 1383.25 2329.04 1387.38 2308.43 1392.03 2287.34 1394.23 2266.22 1393.91 2238.18 1394.72 2210.26 1390 2184.05 1380.01 2163.21 1371.61 2144.45 1358.76 2129.08 1342.37 2114.5 1326.47 2103.73 1307.46 2097.58 1286.79 2091.08 1265.03 2087.85 1242.43 2088.01 1219.73L2088.29 1220.11Z" fill="#4D4D4D" fill-rule="evenodd"/><path d="M2655.46 1062.34C2639.25 1062.11 2623.41 1067.25 2610.43 1076.97 2597.28 1087.14 2586.24 1099.8 2577.96 1114.19 2568.85 1129.52 2562 1146.1 2557.65 1163.39 2553.44 1179.96 2551.24 1196.97 2551.14 1214.08 2550.11 1234.96 2554.36 1255.75 2563.5 1274.55 2571.84 1288.99 2586.78 1296.27 2608.53 1296.27 2624.77 1296.54 2640.63 1291.36 2653.56 1281.53 2666.74 1271.37 2677.8 1258.71 2686.13 1244.33 2695.11 1228.98 2701.79 1212.41 2705.97 1195.14 2710.13 1178.53 2712.33 1161.47 2712.47 1144.33 2713.55 1123.47 2709.28 1102.66 2700.11 1083.86 2691.78 1069.51 2676.74 1062.24 2655.08 1062.24L2655.47 1062.34ZM2597.98 1393.95C2573.57 1394.51 2549.3 1390.29 2526.52 1381.51 2507.35 1373.96 2490.23 1362.04 2476.51 1346.68 2463.02 1331.21 2452.85 1313.14 2446.62 1293.58 2439.85 1271.66 2436.6 1248.78 2437.04 1225.85 2437.11 1194.25 2442.18 1162.86 2452.09 1132.85 2461.7 1102.64 2476.7 1074.42 2496.34 1049.52 2516.07 1024.62 2540.6 1003.93 2568.47 988.668 2598.48 972.555 2632.13 964.413 2666.2 965.033 2690.46 964.592 2714.6 968.822 2737.28 977.474 2756.47 984.9 2773.69 996.659 2787.57 1011.82 2800.98 1027.33 2811.12 1045.4 2817.37 1064.92 2824.2 1086.87 2827.43 1109.77 2826.95 1132.75 2826.86 1164.32 2821.91 1195.69 2812.3 1225.75 2802.85 1256 2788.13 1284.33 2768.8 1309.47 2749.36 1334.47 2724.92 1355.16 2697.04 1370.23 2666.57 1386.42 2632.49 1394.59 2597.98 1393.95Z" fill="#4D4D4D" fill-rule="evenodd"/><path d="M3008.39 925.438C2992.77 925.604 2977.54 920.585 2965.07 911.176 2951.79 900.663 2944.62 884.222 2945.95 867.326 2945.89 856.786 2948.14 846.356 2952.54 836.781 2956.64 827.503 2962.4 819.072 2969.56 811.889 2976.95 804.92 2985.49 799.281 2994.8 795.227 3004.44 791.078 3014.82 788.961 3025.31 789.003 3040.96 788.865 3056.23 793.924 3068.73 803.362 3081.97 813.895 3089.13 830.322 3087.85 847.211 3087.87 857.793 3085.59 868.25 3081.15 877.846 3077 887.131 3071.12 895.548 3063.85 902.642 3056.52 909.659 3048.01 915.298 3038.7 919.303 3029.11 923.419 3018.8 925.507 3008.38 925.431ZM2952.74 1383 2838 1383 2934.77 975.126 3050.28 975.126 2952.74 1383Z" fill="#4D4D4D" fill-rule="evenodd"/><path d="M3132.92 994.206C3141.63 991.722 3151.3 988.659 3161.64 985.32 3171.98 981.975 3184.04 978.912 3197.33 975.76 3211.92 972.67 3226.65 970.343 3241.47 968.781 3259.88 966.84 3278.39 965.91 3296.9 966.007 3357.4 966.007 3399.14 983.558 3422.12 1018.68 3435.87 1039.72 3442.83 1065.38 3443 1095.67L3443 1097.85C3442.9 1117.55 3439.95 1139.18 3434.18 1162.74L3381.43 1382.61 3266.17 1382.61 3317.39 1167.32C3320.45 1153.95 3322.94 1140.95 3324.76 1128.23 3326.75 1117.23 3326.75 1105.96 3324.76 1094.97 3322.86 1085.78 3317.77 1077.56 3310.4 1071.74 3300.19 1065.05 3288.03 1061.92 3275.84 1062.84 3260.5 1062.87 3245.2 1064.44 3230.18 1067.53L3154.94 1383 3039 1383 3132.92 994.206Z" fill="#4D4D4D" fill-rule="evenodd"/></g></svg>