<?xml version="1.0" encoding="UTF-8" standalone="no"?>
<svg
   width="945mm"
   height="360mm"
   xml:space="preserve"
   overflow="hidden"
   version="1.1"
   id="svg11"
   xmlns="http://www.w3.org/2000/svg"
   xmlns:svg="http://www.w3.org/2000/svg"><defs
     id="defs11" /><g
     id="layer3"
     transform="translate(0,80.948552)"><path
       d="m 1169.603,1040.582 q 18.003,0 24.71,-4.942 6.707,-5.295 6.707,-11.296 0,-3.883 -1.412,-6.707 -1.059,-2.824 -3.883,-5.295 -2.824,-2.471 -7.766,-4.942 -4.942,-2.824 -12.708,-6.354 -8.825,-3.883 -16.591,-8.119 -7.766,-4.589 -13.767,-10.59 -5.648,-6.354 -9.178,-14.12 -3.177,-8.119 -3.177,-19.062 0,-28.593 20.827,-45.184 21.18,-16.591 61.422,-16.591 19.062,0 33.888,4.236 14.826,4.236 24.004,9.178 l -18.003,39.183 q -7.413,-3.883 -19.062,-7.413 -11.649,-3.53 -22.945,-3.53 -4.942,0 -9.884,0.706 -4.589,0.353 -8.825,2.118 -3.883,1.765 -6.354,4.942 -2.471,3.177 -2.471,8.472 0,7.06 5.295,10.59 5.648,3.53 15.532,8.472 13.767,6.707 22.945,12.355 9.178,5.648 14.473,12.002 5.648,6.354 8.119,14.473 2.471,8.119 2.471,19.062 0,11.296 -4.942,22.239 -4.589,10.943 -14.826,19.415 -10.237,8.472 -26.122,13.767 -15.885,5.295 -38.124,5.295 -13.767,0 -25.063,-1.765 -10.943,-1.765 -19.415,-4.236 -8.472,-2.824 -14.473,-5.648 -5.648,-2.824 -8.825,-4.589 l 18.003,-40.242 q 6.001,3.53 18.709,8.825 12.708,5.295 30.711,5.295 z m 284.165,-42.713 q -4.942,20.121 -2.824,40.595 2.118,20.121 8.119,36.006 l -46.949,6.707 q -2.118,-4.236 -3.883,-8.119 -1.765,-3.883 -3.53,-8.825 -9.884,8.119 -21.886,13.414 -12.002,5.295 -26.828,5.295 -17.65,0 -30.358,-6.001 -12.355,-6.354 -20.474,-16.591 -7.766,-10.59 -11.296,-24.357 -3.53,-14.12 -3.53,-30.005 0,-24.357 8.472,-45.89 8.825,-21.533 24.004,-37.418 15.532,-16.238 36.359,-25.416 20.827,-9.178 45.184,-9.178 3.177,0 10.943,0.353 8.119,0.353 18.356,1.765 10.237,1.059 21.533,3.883 11.296,2.824 21.533,7.766 z m -36.712,-64.952 q -4.589,-0.706 -8.472,-1.059 -3.53,-0.353 -8.825,-0.353 -12.002,0 -22.592,6.001 -10.237,6.001 -18.003,15.885 -7.766,9.531 -12.355,22.239 -4.236,12.708 -4.236,26.475 0,16.944 5.648,26.828 5.648,9.884 20.827,9.884 8.119,0 14.473,-3.177 6.707,-3.177 14.12,-10.59 0.706,-8.825 2.118,-18.356 1.765,-9.884 3.53,-18.003 z m 147.2007,148.613 q -25.063,0 -39.536,-6.354 -14.12,-6.707 -20.474,-18.003 -6.001,-11.296 -6.001,-25.769 0.353,-14.826 4.236,-31.417 l 44.831,-187.443 54.715,-8.472 -49.067,203.328 q -1.412,6.354 -1.765,11.649 0,5.295 2.118,9.531 2.118,3.883 7.06,6.354 5.295,2.471 14.473,3.177 z m 203.681,-83.661 q -4.942,20.121 -2.824,40.595 2.118,20.121 8.119,36.006 l -46.949,6.707 q -2.118,-4.236 -3.883,-8.119 -1.765,-3.883 -3.53,-8.825 -9.884,8.119 -21.886,13.414 -12.002,5.295 -26.828,5.295 -17.65,0 -30.358,-6.001 -12.355,-6.354 -20.474,-16.591 -7.766,-10.59 -11.296,-24.357 -3.53,-14.12 -3.53,-30.005 0,-24.357 8.472,-45.89 8.825,-21.533 24.004,-37.418 15.532,-16.238 36.359,-25.416 20.827,-9.178 45.184,-9.178 3.177,0 10.943,0.353 8.119,0.353 18.356,1.765 10.237,1.059 21.533,3.883 11.296,2.824 21.533,7.766 z m -36.712,-64.952 q -4.589,-0.706 -8.472,-1.059 -3.53,-0.353 -8.825,-0.353 -12.002,0 -22.592,6.001 -10.237,6.001 -18.003,15.885 -7.766,9.531 -12.355,22.239 -4.236,12.708 -4.236,26.475 0,16.944 5.648,26.828 5.648,9.884 20.827,9.884 8.119,0 14.473,-3.177 6.707,-3.177 14.12,-10.59 0.706,-8.825 2.118,-18.356 1.765,-9.884 3.53,-18.003 z m 112.9598,-32.123 q 6.001,-1.765 12.708,-3.883 7.06,-2.471 15.532,-4.236 8.825,-2.118 19.415,-3.177 10.943,-1.412 25.063,-1.412 16.944,0 27.887,4.236 11.296,4.236 20.474,12.708 13.061,-7.413 25.769,-12.002 13.061,-4.942 30.358,-4.942 16.591,0 28.24,4.589 12.002,4.236 19.768,12.708 7.766,8.119 11.296,19.768 3.53,11.296 3.53,25.063 0,6.354 -1.059,13.414 -0.706,7.06 -2.471,14.12 L 2056.6915,1078 h -52.597 l 23.298,-98.134 q 1.059,-4.942 2.118,-10.943 1.412,-6.354 1.412,-12.355 0,-9.884 -4.589,-16.944 -4.589,-7.413 -18.003,-7.413 -7.413,0 -14.12,2.824 -6.707,2.471 -12.002,5.295 0.706,2.824 0.706,5.295 0,2.471 0,4.589 0,6.354 -1.059,13.414 -0.706,7.06 -2.471,14.12 L 1955.3805,1078 h -52.597 l 23.298,-98.134 q 1.059,-4.942 2.118,-10.943 1.412,-6.354 1.412,-12.355 0,-9.884 -4.589,-16.944 -4.589,-7.413 -18.003,-7.413 -5.648,0 -9.531,0.706 -3.883,0.353 -9.178,1.412 L 1854.0695,1078 h -52.597 z m 429.9543,97.075 q -4.942,20.121 -2.824,40.595 2.118,20.121 8.119,36.006 l -46.949,6.707 q -2.118,-4.236 -3.883,-8.119 -1.765,-3.883 -3.53,-8.825 -9.884,8.119 -21.886,13.414 -12.002,5.295 -26.828,5.295 -17.65,0 -30.358,-6.001 -12.355,-6.354 -20.474,-16.591 -7.766,-10.59 -11.296,-24.357 -3.53,-14.12 -3.53,-30.005 0,-24.357 8.472,-45.89 8.825,-21.533 24.004,-37.418 15.532,-16.238 36.359,-25.416 20.827,-9.178 45.184,-9.178 3.177,0 10.943,0.353 8.119,0.353 18.356,1.765 10.237,1.059 21.533,3.883 11.296,2.824 21.533,7.766 z m -36.712,-64.952 q -4.589,-0.706 -8.472,-1.059 -3.53,-0.353 -8.825,-0.353 -12.002,0 -22.592,6.001 -10.237,6.001 -18.003,15.885 -7.766,9.531 -12.355,22.239 -4.236,12.708 -4.236,26.475 0,16.944 5.648,26.828 5.648,9.884 20.827,9.884 8.119,0 14.473,-3.177 6.707,-3.177 14.12,-10.59 0.706,-8.825 2.118,-18.356 1.765,-9.884 3.53,-18.003 z M 2353.9175,1078 q -9.178,-35.3 -16.591,-82.249 -7.413,-47.302 -10.237,-103.429 h 54.362 q 0.353,13.767 1.059,30.358 0.706,16.238 1.765,32.829 1.059,16.591 2.471,32.476 1.412,15.532 3.177,28.24 7.766,-10.59 17.297,-26.122 9.884,-15.532 19.062,-32.476 9.178,-16.944 16.944,-33.888 7.766,-17.297 12.002,-31.417 h 55.774 q -9.178,25.063 -22.945,51.538 -13.414,26.475 -28.946,51.185 -15.532,24.71 -31.77,46.243 -15.885,21.533 -29.652,36.712 z m 157.0849,-72.718 q 0,-22.592 7.766,-43.772 8.119,-21.18 22.592,-37.418 14.473,-16.591 34.947,-26.475 20.827,-10.237 45.89,-10.237 12.355,0 22.945,3.53 10.59,3.53 18.356,10.237 8.119,6.707 12.355,16.591 4.589,9.531 4.589,21.886 0,19.768 -8.825,33.535 -8.825,13.767 -24.71,22.592 -15.532,8.472 -37.065,12.355 -21.533,3.883 -46.949,3.883 2.471,14.826 10.59,21.18 8.472,6.001 26.475,6.001 11.296,0 22.945,-1.765 11.649,-2.118 21.886,-6.001 l 3.883,41.301 q -9.884,3.883 -25.416,7.06 -15.179,3.177 -33.182,3.177 -21.886,0 -37.065,-6.001 -14.826,-6.354 -24.357,-16.944 -9.178,-10.59 -13.414,-24.71 -4.236,-14.12 -4.236,-30.005 z m 102.723,-76.248 q -18.003,0 -31.77,13.061 -13.414,12.708 -17.65,33.888 21.886,-0.706 35.3,-3.53 13.414,-3.177 20.827,-7.413 7.413,-4.236 9.884,-9.178 2.471,-4.942 2.471,-9.884 0,-16.944 -19.062,-16.944 z m 215.6832,8.472 q -7.06,-1.765 -14.12,-3.177 -6.707,-1.765 -20.121,-1.765 -4.942,0 -10.943,1.059 -6.001,0.706 -9.884,1.765 L 2740.0996,1078 h -52.597 l 42.36,-175.794 q 15.179,-4.942 33.888,-9.178 19.062,-4.589 42.713,-4.589 8.825,0 19.415,1.765 10.943,1.412 19.062,4.942 z m 84.0144,21.886 q 21.18,-16.944 39.889,-34.594 18.709,-17.65 32.123,-32.476 h 59.304 q -19.768,21.886 -41.301,43.066 -21.18,20.827 -48.714,44.478 7.413,9.178 14.826,21.18 7.766,12.002 14.473,25.063 7.06,13.061 12.708,26.475 6.001,13.414 9.884,25.416 h -58.598 q -3.177,-9.178 -8.119,-20.121 -4.589,-10.943 -10.59,-21.533 -5.648,-10.943 -12.002,-21.18 -6.354,-10.237 -12.708,-18.356 L 2884.83,1078 h -52.244 l 63.54,-265.456 54.715,-8.472 z m 198.0333,0 q 21.18,-16.944 39.889,-34.594 18.709,-17.65 32.123,-32.476 h 59.304 q -19.768,21.886 -41.301,43.066 -21.18,20.827 -48.714,44.478 7.413,9.178 14.826,21.18 7.766,12.002 14.473,25.063 7.06,13.061 12.708,26.475 6.001,13.414 9.884,25.416 h -58.598 q -3.177,-9.178 -8.119,-20.121 -4.589,-10.943 -10.59,-21.533 -5.648,-10.943 -12.002,-21.18 -6.354,-10.237 -12.708,-18.356 l -19.768,81.19 h -52.244 l 63.54,-265.456 54.715,-8.472 z m 197.6803,123.55 q -18.709,0 -32.476,-5.648 -13.767,-5.648 -22.945,-15.885 -8.825,-10.237 -13.414,-24.004 -4.589,-14.12 -4.589,-31.064 0,-21.18 6.707,-42.36 7.06,-21.18 20.474,-38.124 13.414,-16.944 32.829,-27.534 19.415,-10.943 44.478,-10.943 18.356,0 32.123,5.648 14.12,5.648 22.945,15.885 9.178,10.237 13.767,24.357 4.589,13.767 4.589,30.711 0,21.18 -6.707,42.36 -6.707,21.18 -19.768,38.124 -13.061,16.944 -32.829,27.887 -19.415,10.59 -45.184,10.59 z m 26.122,-151.084 q -11.649,0 -20.474,6.707 -8.825,6.707 -14.826,16.944 -6.001,10.237 -9.178,22.592 -2.824,12.002 -2.824,22.945 0,18.003 5.648,27.887 5.648,9.531 20.474,9.531 11.649,0 20.474,-6.707 8.825,-6.707 14.826,-16.944 6.001,-10.237 8.825,-22.239 3.177,-12.355 3.177,-23.298 0,-18.003 -5.648,-27.534 -5.648,-9.884 -20.474,-9.884 z"
       id="text1"
       style="font-style:italic;font-weight:700;font-size:353px;font-family:Ubuntu, Ubuntu_MSFontService, sans-serif;fill:#4d4d4d"
       aria-label="salamaverkko" /><g
       id="layer2"><path
         d="m 3132.92,319.206 c 8.71,-2.484 18.38,-5.547 28.72,-8.886 10.34,-3.345 22.4,-6.408 35.69,-9.56 14.59,-3.09 29.32,-5.417 44.14,-6.979 18.41,-1.941 36.92,-2.871 55.43,-2.774 60.5,0 102.24,17.551 125.22,52.673 13.75,21.04 20.71,46.7 20.88,76.99 v 2.18 c -0.1,19.7 -3.05,41.33 -8.82,64.89 l -52.75,219.87 h -115.26 l 51.22,-215.29 c 3.06,-13.37 5.55,-26.37 7.37,-39.09 1.99,-11 1.99,-22.27 0,-33.26 -1.9,-9.19 -6.99,-17.41 -14.36,-23.23 -10.21,-6.69 -22.37,-9.82 -34.56,-8.9 -15.34,0.03 -30.64,1.6 -45.66,4.69 L 3154.94,708 H 3039 Z"
         fill="#4d4d4d"
         fill-rule="evenodd"
         id="path11" /><path
         d="m 3008.39,250.438 c -15.62,0.166 -30.85,-4.853 -43.32,-14.262 -13.28,-10.513 -20.45,-26.954 -19.12,-43.85 -0.06,-10.54 2.19,-20.97 6.59,-30.545 4.1,-9.278 9.86,-17.709 17.02,-24.892 7.39,-6.969 15.93,-12.608 25.24,-16.662 9.64,-4.149 20.02,-6.266 30.51,-6.224 15.65,-0.138 30.92,4.921 43.42,14.359 13.24,10.533 20.4,26.96 19.12,43.849 0.02,10.582 -2.26,21.039 -6.7,30.635 -4.15,9.285 -10.03,17.702 -17.3,24.796 -7.33,7.017 -15.84,12.656 -25.15,16.661 -9.59,4.116 -19.9,6.204 -30.32,6.128 z M 2952.74,708 H 2838 l 96.77,-407.874 h 115.51 z"
         fill="#4d4d4d"
         fill-rule="evenodd"
         id="path10" /><path
         d="m 2655.46,387.34 c -16.21,-0.23 -32.05,4.91 -45.03,14.63 -13.15,10.17 -24.19,22.83 -32.47,37.22 -9.11,15.33 -15.96,31.91 -20.31,49.2 -4.21,16.57 -6.41,33.58 -6.51,50.69 -1.03,20.88 3.22,41.67 12.36,60.47 8.34,14.44 23.28,21.72 45.03,21.72 16.24,0.27 32.1,-4.91 45.03,-14.74 13.18,-10.16 24.24,-22.82 32.57,-37.2 8.98,-15.35 15.66,-31.92 19.84,-49.19 4.16,-16.61 6.36,-33.67 6.5,-50.81 1.08,-20.86 -3.19,-41.67 -12.36,-60.47 -8.33,-14.35 -23.37,-21.62 -45.03,-21.62 l 0.39,0.1 z m -57.48,331.61 c -24.41,0.56 -48.68,-3.66 -71.46,-12.44 -19.17,-7.55 -36.29,-19.47 -50.01,-34.83 -13.49,-15.47 -23.66,-33.54 -29.89,-53.1 -6.77,-21.92 -10.02,-44.8 -9.58,-67.73 0.07,-31.6 5.14,-62.99 15.05,-93 9.61,-30.21 24.61,-58.43 44.25,-83.33 19.73,-24.9 44.26,-45.59 72.13,-60.852 30.01,-16.113 63.66,-24.255 97.73,-23.635 24.26,-0.441 48.4,3.789 71.08,12.441 19.19,7.426 36.41,19.185 50.29,34.346 13.41,15.51 23.55,33.58 29.8,53.1 6.83,21.95 10.06,44.85 9.58,67.83 -0.09,31.57 -5.04,62.94 -14.65,93 -9.45,30.25 -24.17,58.58 -43.5,83.72 -19.44,25 -43.88,45.69 -71.76,60.76 -30.47,16.19 -64.55,24.36 -99.06,23.72 z"
         fill="#4d4d4d"
         fill-rule="evenodd"
         id="path9" /><path
         d="m 2088.29,545.11 c -0.24,-33.86 5.53,-67.51 17.05,-99.35 10.8,-30.11 27.4,-57.8 48.84,-81.53 21.61,-23.53 47.89,-42.254 77.18,-55.002 31.93,-13.796 66.43,-20.687 101.21,-20.204 21,-0.249 41.96,1.966 62.44,6.601 17.22,4.084 33.97,9.926 49.99,17.438 l -39.93,89.767 c -10.34,-4.21 -21.07,-7.84 -32.18,-11.2 -13.24,-3.7 -26.95,-5.41 -40.7,-5.08 -34.72,-1.26 -68.12,13.43 -90.68,39.86 -22.41,26.37 -33.66,61.82 -33.71,106.34 -1.06,22.59 4.9,44.94 17.04,64.01 11.36,16.29 32.31,24.42 62.82,24.42 14.62,0.01 29.2,-1.56 43.48,-4.69 12.73,-2.72 25.21,-6.6 37.25,-11.6 l 8.52,92.37 c -15.66,5.93 -31.64,10.99 -47.87,15.12 -20.61,4.65 -41.7,6.85 -62.82,6.53 -28.04,0.81 -55.96,-3.91 -82.17,-13.9 -20.84,-8.4 -39.6,-21.25 -54.97,-37.64 -14.58,-15.9 -25.35,-34.91 -31.5,-55.58 -6.5,-21.76 -9.73,-44.36 -9.57,-67.06 z"
         fill="#4d4d4d"
         fill-rule="evenodd"
         id="path8" /><path
         d="M 1873.17,198.569 1993.25,180 1963.4,300.147 H 2092 l -23.17,94.583 h -127.54 l -34.06,142.26 c -2.95,10.89 -4.77,22.05 -5.46,33.32 -0.7,9.11 0.65,18.27 3.92,26.79 3.21,7.66 9.14,13.84 16.65,17.33 10.82,4.79 22.63,6.96 34.45,6.32 12.11,0.04 24.19,-1.15 36.07,-3.54 11.95,-2.34 23.73,-5.53 35.21,-9.57 l 8.61,88.45 c -16.48,5.93 -33.33,10.83 -50.43,14.65 -21.13,4.48 -42.69,6.57 -64.29,6.22 -35.69,0 -63.25,-5.36 -82.96,-15.89 -18.43,-9.38 -33.2,-24.69 -41.91,-43.47 -8.49,-19.92 -12.2,-41.57 -10.8,-63.18 1.28,-25.36 4.9,-50.55 10.8,-75.25 l 76.07,-320.987 v 0.386 z"
         fill="#4d4d4d"
         fill-rule="evenodd"
         id="path7" /><path
         d="m 1730.43,250.437 c -15.64,0.152 -30.88,-4.867 -43.4,-14.263 -13.27,-10.512 -20.44,-26.953 -19.12,-43.849 -0.06,-10.541 2.19,-20.97 6.59,-30.546 4.22,-9.326 10.15,-17.771 17.5,-24.892 7.34,-6.99 15.85,-12.629 25.14,-16.662 9.66,-4.156 20.07,-6.273 30.58,-6.224 15.53,-0.049 30.63,4.997 43.01,14.359 13.24,10.533 20.41,26.96 19.12,43.85 0.08,10.567 -2.13,21.025 -6.49,30.634 -4.22,9.279 -10.12,17.682 -17.4,24.796 -7.33,7.018 -15.83,12.657 -25.14,16.662 -9.66,4.156 -20.08,6.245 -30.59,6.128 h 0.2 z M 1674.7,708 H 1560 l 96.92,-407.875 h 115.37 z"
         fill="#4d4d4d"
         fill-rule="evenodd"
         id="path6" /><path
         d="m 1305.29,623.21 c 17.91,0.05 35.53,-4.51 51.17,-13.22 16.1,-8.58 30.26,-20.39 41.59,-34.68 11.82,-15.1 21.1,-32.02 27.51,-50.09 6.75,-18.68 10.18,-38.38 10.15,-58.23 1.08,-20.15 -3.23,-40.21 -12.46,-58.14 -8.24,-13.89 -23.57,-20.98 -45.81,-20.98 -9.68,0.34 -19.31,1.65 -28.75,3.93 -11.71,2.61 -22.54,8.23 -31.43,16.28 l -50.79,212.25 8.15,1.53 c 2.42,0.6 4.9,0.98 7.37,1.15 3.18,0.4 6.39,0.56 9.59,0.48 l 13.7,-0.29 z M 1406.2,291.425 c 22.18,-0.511 44.2,4.013 64.39,13.22 17.53,8.351 32.93,20.565 45.04,35.725 12.41,15.69 21.53,33.69 26.84,52.97 5.81,21.25 8.67,43.19 8.52,65.23 -0.02,68.55 -26.61,134.41 -74.17,183.8 -23.06,23.64 -50.49,42.57 -80.78,55.74 -31.76,13.98 -66.11,21.1 -100.81,20.89 h -24.54 c -13.34,-0.44 -26.65,-1.58 -39.87,-3.45 -16.13,-2.34 -32.13,-5.53 -47.91,-9.58 -16.54,-3.93 -32.61,-9.64 -47.91,-17.05 L 1269.64,125.158 1389.91,106 1342,306.086 c 9.98,-4.51 20.33,-8.131 30.95,-10.82 10.95,-2.662 22.19,-3.986 33.45,-3.924 l -0.2,0.097 z"
         fill="#4d4d4d"
         fill-rule="evenodd"
         id="path5" /></g><g
       id="layer1"
       style="clip-rule:evenodd;display:inline;fill-rule:evenodd;image-rendering:optimizeQuality;shape-rendering:geometricPrecision;text-rendering:geometricPrecision"
       transform="matrix(1.2853934,0,0,1.2853934,3.1046519,-39.702073)"><g
         transform="matrix(8.5727987,0,0,8.2276115,-2760.2653,-3003.3283)"
         id="bitcoin and bolt"
         style="display:inline;opacity:1"><path
           d="m 396.52772,450.42357 c -1.115,-0.645 4.436,-8.302 10.161,-16.575 5.722,-8.275 9.591,-14.534 10.796,-16.386 1.205,-1.852 1.31693,-1.64491 0.66447,-4.65085 -4.0095,-18.47207 -22.7294,-37.82779 -48.31055,-32.9575 -25.5072,4.43281 -39.97419,32.69528 -32.4151,55.87864 9.20154,28.22067 37.51935,35.73348 55.80214,27.513 10.66445,-5.11841 12.81872,-10.84521 12.545,-11.04629 -0.426,-0.322 -5.819,0.204 -9.243,-1.776 z"
           fill="#f7931a"
           id="path5-5"><title
             id="ball">B ball Zapped</title></path><path
           d="m 417.763,421.42 c 0,0 1.69628,-2.94654 1.411,1.197 -0.144,1.023 -4.077,18.911 -4.077,18.911 0,0.005 7.622,0.484 7.622,0.484 1.382,-0.014 0.712,1.04 0.712,1.04 l -20.327,27.405 c -2.923,4.144 -1.539,-0.727 -1.5,-1.439 3.555,-10.656 5.681,-16.693 6.384,-18.095 0,0 -8.98,-1.189 -8.93,-1.947 v -0.136 c 0.029,-0.35 2.306,-3.702 6.847,-10.048 6.854,-9.972 0.016,0.028 11.858,-17.372 z"
           style="fill:#ffba00;fill-opacity:1"
           id="path6-7"><title
             id="bolt">Lightning bolt</title></path><path
           fill="white"
           fill-rule="nonzero"
           d="m 2947.77,1754.38 c 40.72,-272.26 -166.56,-418.61 -450,-516.24 l 91.95,-368.8 -224.5,-55.94 -89.51,359.09 c -59.02,-14.72 -119.63,-28.59 -179.87,-42.34 l 90.16,-361.46 -224.36,-55.94 -92,368.68 c -48.84,-11.12 -96.81,-22.11 -143.35,-33.69 l 0.26,-1.16 -309.59,-77.31 -59.72,239.78 c 0,0 166.56,38.18 163.05,40.53 90.91,22.69 107.35,82.87 104.62,130.57 l -251.94,1010.34 c -11.11,27.62 -39.31,69.07 -102.87,53.33 2.25,3.26 -163.17,-40.72 -163.17,-40.72 l -111.46,256.98 292.15,72.83 c 54.35,13.63 107.61,27.89 160.06,41.3 l -92.9,373.03 224.24,55.94 92,-369.07 c 61.26,16.63 120.71,31.97 178.91,46.43 l -91.69,367.33 224.51,55.94 92.89,-372.33 c 382.82,72.45 670.67,43.24 791.83,-303.02 97.63,-278.78 -4.86,-439.58 -206.26,-544.44 146.69,-33.83 257.18,-130.31 286.64,-329.61 l -0.07,-0.05 z m -512.93,719.26 c -69.38,278.78 -538.76,128.08 -690.94,90.29 l 123.28,-494.2 c 152.17,37.99 640.17,113.17 567.67,403.91 z m 69.43,-723.3 c -63.29,253.58 -453.96,124.75 -580.69,93.16 l 111.77,-448.21 c 126.73,31.59 534.85,90.55 468.94,355.05 z"
           id="path2-6"
           style="display:inline;opacity:1;fill:#ffffff;fill-opacity:1"
           transform="matrix(0.02399203,0,0,0.02482302,328.14558,372.00896)" /></g><rect
         style="display:none;fill:#ff0000;fill-opacity:0;stroke:#ff0000;stroke-width:0.140244"
         id="rect2"
         width="1.6855859"
         height="983.15735"
         x="471.59814"
         y="9.9150181" /><rect
         style="display:none;fill:#ff0000;fill-opacity:0;stroke:#ff0000;stroke-width:0.209818"
         id="rect1"
         width="990.91046"
         height="3.7432735"
         x="2.9973774"
         y="470.56931" /><circle
         style="display:none;opacity:0.634921;fill:#fafafa;stroke:#ff0000"
         id="path1-8"
         cx="472.44095"
         cy="472.44095"
         r="395.70917" /></g></g></svg>
