<?xml version="1.0" encoding="UTF-8" standalone="no"?>
<svg
   width="945mm"
   height="360mm"
   xml:space="preserve"
   overflow="hidden"
   version="1.1"
   id="svg11"
   sodipodi:docname="bitcoin logo lightning fi_FI-Inkscape-fonts.svg"
   inkscape:export-filename="bitcoin logo lightning fi_FI-Inkscape-fonts.svg"
   inkscape:export-xdpi="96"
   inkscape:export-ydpi="96"
   inkscape:version="1.3.2 (091e20e, 2023-11-25, custom)"
   xmlns:inkscape="http://www.inkscape.org/namespaces/inkscape"
   xmlns:sodipodi="http://sodipodi.sourceforge.net/DTD/sodipodi-0.dtd"
   xmlns="http://www.w3.org/2000/svg"
   xmlns:svg="http://www.w3.org/2000/svg"><defs
     id="defs11" /><sodipodi:namedview
     id="namedview11"
     pagecolor="#ffffff"
     bordercolor="#000000"
     borderopacity="0.25"
     inkscape:showpageshadow="2"
     inkscape:pageopacity="0.0"
     inkscape:pagecheckerboard="0"
     inkscape:deskcolor="#d1d1d1"
     inkscape:zoom="0.15897005"
     inkscape:cx="868.08803"
     inkscape:cy="934.1382"
     inkscape:window-width="1920"
     inkscape:window-height="1017"
     inkscape:window-x="1912"
     inkscape:window-y="-8"
     inkscape:window-maximized="1"
     inkscape:current-layer="layer3"
     inkscape:document-units="mm" /><g
     inkscape:groupmode="layer"
     id="layer3"
     inkscape:label="logo Lightning fi_FI"
     transform="translate(0,80.948552)"><g
       inkscape:groupmode="layer"
       id="layer2"
       inkscape:label="bitcoin"><path
         d="m 3132.92,319.206 c 8.71,-2.484 18.38,-5.547 28.72,-8.886 10.34,-3.345 22.4,-6.408 35.69,-9.56 14.59,-3.09 29.32,-5.417 44.14,-6.979 18.41,-1.941 36.92,-2.871 55.43,-2.774 60.5,0 102.24,17.551 125.22,52.673 13.75,21.04 20.71,46.7 20.88,76.99 v 2.18 c -0.1,19.7 -3.05,41.33 -8.82,64.89 l -52.75,219.87 h -115.26 l 51.22,-215.29 c 3.06,-13.37 5.55,-26.37 7.37,-39.09 1.99,-11 1.99,-22.27 0,-33.26 -1.9,-9.19 -6.99,-17.41 -14.36,-23.23 -10.21,-6.69 -22.37,-9.82 -34.56,-8.9 -15.34,0.03 -30.64,1.6 -45.66,4.69 L 3154.94,708 H 3039 Z"
         fill="#4d4d4d"
         fill-rule="evenodd"
         id="path11"
         inkscape:label="n" /><path
         d="m 3008.39,250.438 c -15.62,0.166 -30.85,-4.853 -43.32,-14.262 -13.28,-10.513 -20.45,-26.954 -19.12,-43.85 -0.06,-10.54 2.19,-20.97 6.59,-30.545 4.1,-9.278 9.86,-17.709 17.02,-24.892 7.39,-6.969 15.93,-12.608 25.24,-16.662 9.64,-4.149 20.02,-6.266 30.51,-6.224 15.65,-0.138 30.92,4.921 43.42,14.359 13.24,10.533 20.4,26.96 19.12,43.849 0.02,10.582 -2.26,21.039 -6.7,30.635 -4.15,9.285 -10.03,17.702 -17.3,24.796 -7.33,7.017 -15.84,12.656 -25.15,16.661 -9.59,4.116 -19.9,6.204 -30.32,6.128 z M 2952.74,708 H 2838 l 96.77,-407.874 h 115.51 z"
         fill="#4d4d4d"
         fill-rule="evenodd"
         id="path10"
         inkscape:label="i" /><path
         d="m 2655.46,387.34 c -16.21,-0.23 -32.05,4.91 -45.03,14.63 -13.15,10.17 -24.19,22.83 -32.47,37.22 -9.11,15.33 -15.96,31.91 -20.31,49.2 -4.21,16.57 -6.41,33.58 -6.51,50.69 -1.03,20.88 3.22,41.67 12.36,60.47 8.34,14.44 23.28,21.72 45.03,21.72 16.24,0.27 32.1,-4.91 45.03,-14.74 13.18,-10.16 24.24,-22.82 32.57,-37.2 8.98,-15.35 15.66,-31.92 19.84,-49.19 4.16,-16.61 6.36,-33.67 6.5,-50.81 1.08,-20.86 -3.19,-41.67 -12.36,-60.47 -8.33,-14.35 -23.37,-21.62 -45.03,-21.62 l 0.39,0.1 z m -57.48,331.61 c -24.41,0.56 -48.68,-3.66 -71.46,-12.44 -19.17,-7.55 -36.29,-19.47 -50.01,-34.83 -13.49,-15.47 -23.66,-33.54 -29.89,-53.1 -6.77,-21.92 -10.02,-44.8 -9.58,-67.73 0.07,-31.6 5.14,-62.99 15.05,-93 9.61,-30.21 24.61,-58.43 44.25,-83.33 19.73,-24.9 44.26,-45.59 72.13,-60.852 30.01,-16.113 63.66,-24.255 97.73,-23.635 24.26,-0.441 48.4,3.789 71.08,12.441 19.19,7.426 36.41,19.185 50.29,34.346 13.41,15.51 23.55,33.58 29.8,53.1 6.83,21.95 10.06,44.85 9.58,67.83 -0.09,31.57 -5.04,62.94 -14.65,93 -9.45,30.25 -24.17,58.58 -43.5,83.72 -19.44,25 -43.88,45.69 -71.76,60.76 -30.47,16.19 -64.55,24.36 -99.06,23.72 z"
         fill="#4d4d4d"
         fill-rule="evenodd"
         id="path9"
         inkscape:label="o" /><path
         d="m 2088.29,545.11 c -0.24,-33.86 5.53,-67.51 17.05,-99.35 10.8,-30.11 27.4,-57.8 48.84,-81.53 21.61,-23.53 47.89,-42.254 77.18,-55.002 31.93,-13.796 66.43,-20.687 101.21,-20.204 21,-0.249 41.96,1.966 62.44,6.601 17.22,4.084 33.97,9.926 49.99,17.438 l -39.93,89.767 c -10.34,-4.21 -21.07,-7.84 -32.18,-11.2 -13.24,-3.7 -26.95,-5.41 -40.7,-5.08 -34.72,-1.26 -68.12,13.43 -90.68,39.86 -22.41,26.37 -33.66,61.82 -33.71,106.34 -1.06,22.59 4.9,44.94 17.04,64.01 11.36,16.29 32.31,24.42 62.82,24.42 14.62,0.01 29.2,-1.56 43.48,-4.69 12.73,-2.72 25.21,-6.6 37.25,-11.6 l 8.52,92.37 c -15.66,5.93 -31.64,10.99 -47.87,15.12 -20.61,4.65 -41.7,6.85 -62.82,6.53 -28.04,0.81 -55.96,-3.91 -82.17,-13.9 -20.84,-8.4 -39.6,-21.25 -54.97,-37.64 -14.58,-15.9 -25.35,-34.91 -31.5,-55.58 -6.5,-21.76 -9.73,-44.36 -9.57,-67.06 z"
         fill="#4d4d4d"
         fill-rule="evenodd"
         id="path8"
         inkscape:label="c" /><path
         d="M 1873.17,198.569 1993.25,180 1963.4,300.147 H 2092 l -23.17,94.583 h -127.54 l -34.06,142.26 c -2.95,10.89 -4.77,22.05 -5.46,33.32 -0.7,9.11 0.65,18.27 3.92,26.79 3.21,7.66 9.14,13.84 16.65,17.33 10.82,4.79 22.63,6.96 34.45,6.32 12.11,0.04 24.19,-1.15 36.07,-3.54 11.95,-2.34 23.73,-5.53 35.21,-9.57 l 8.61,88.45 c -16.48,5.93 -33.33,10.83 -50.43,14.65 -21.13,4.48 -42.69,6.57 -64.29,6.22 -35.69,0 -63.25,-5.36 -82.96,-15.89 -18.43,-9.38 -33.2,-24.69 -41.91,-43.47 -8.49,-19.92 -12.2,-41.57 -10.8,-63.18 1.28,-25.36 4.9,-50.55 10.8,-75.25 l 76.07,-320.987 v 0.386 z"
         fill="#4d4d4d"
         fill-rule="evenodd"
         id="path7"
         inkscape:label="t" /><path
         d="m 1730.43,250.437 c -15.64,0.152 -30.88,-4.867 -43.4,-14.263 -13.27,-10.512 -20.44,-26.953 -19.12,-43.849 -0.06,-10.541 2.19,-20.97 6.59,-30.546 4.22,-9.326 10.15,-17.771 17.5,-24.892 7.34,-6.99 15.85,-12.629 25.14,-16.662 9.66,-4.156 20.07,-6.273 30.58,-6.224 15.53,-0.049 30.63,4.997 43.01,14.359 13.24,10.533 20.41,26.96 19.12,43.85 0.08,10.567 -2.13,21.025 -6.49,30.634 -4.22,9.279 -10.12,17.682 -17.4,24.796 -7.33,7.018 -15.83,12.657 -25.14,16.662 -9.66,4.156 -20.08,6.245 -30.59,6.128 h 0.2 z M 1674.7,708 H 1560 l 96.92,-407.875 h 115.37 z"
         fill="#4d4d4d"
         fill-rule="evenodd"
         id="path6"
         inkscape:label="i" /><path
         d="m 1305.29,623.21 c 17.91,0.05 35.53,-4.51 51.17,-13.22 16.1,-8.58 30.26,-20.39 41.59,-34.68 11.82,-15.1 21.1,-32.02 27.51,-50.09 6.75,-18.68 10.18,-38.38 10.15,-58.23 1.08,-20.15 -3.23,-40.21 -12.46,-58.14 -8.24,-13.89 -23.57,-20.98 -45.81,-20.98 -9.68,0.34 -19.31,1.65 -28.75,3.93 -11.71,2.61 -22.54,8.23 -31.43,16.28 l -50.79,212.25 8.15,1.53 c 2.42,0.6 4.9,0.98 7.37,1.15 3.18,0.4 6.39,0.56 9.59,0.48 l 13.7,-0.29 z M 1406.2,291.425 c 22.18,-0.511 44.2,4.013 64.39,13.22 17.53,8.351 32.93,20.565 45.04,35.725 12.41,15.69 21.53,33.69 26.84,52.97 5.81,21.25 8.67,43.19 8.52,65.23 -0.02,68.55 -26.61,134.41 -74.17,183.8 -23.06,23.64 -50.49,42.57 -80.78,55.74 -31.76,13.98 -66.11,21.1 -100.81,20.89 h -24.54 c -13.34,-0.44 -26.65,-1.58 -39.87,-3.45 -16.13,-2.34 -32.13,-5.53 -47.91,-9.58 -16.54,-3.93 -32.61,-9.64 -47.91,-17.05 L 1269.64,125.158 1389.91,106 1342,306.086 c 9.98,-4.51 20.33,-8.131 30.95,-10.82 10.95,-2.662 22.19,-3.986 33.45,-3.924 l -0.2,0.097 z"
         fill="#4d4d4d"
         fill-rule="evenodd"
         id="path5"
         inkscape:label="b" /></g><g
       id="layer1"
       inkscape:label="icon Lightning"
       style="clip-rule:evenodd;display:inline;fill-rule:evenodd;image-rendering:optimizeQuality;shape-rendering:geometricPrecision;text-rendering:geometricPrecision"
       transform="matrix(1.2853934,0,0,1.2853934,3.1046519,-39.702073)"><g
         transform="matrix(8.5727987,0,0,8.2276115,-2760.2653,-3003.3283)"
         id="bitcoin and bolt"
         style="display:inline;opacity:1"><path
           d="m 396.52772,450.42357 c -1.115,-0.645 4.436,-8.302 10.161,-16.575 5.722,-8.275 9.591,-14.534 10.796,-16.386 1.205,-1.852 1.31693,-1.64491 0.66447,-4.65085 -4.0095,-18.47207 -22.7294,-37.82779 -48.31055,-32.9575 -25.5072,4.43281 -39.97419,32.69528 -32.4151,55.87864 9.20154,28.22067 37.51935,35.73348 55.80214,27.513 10.66445,-5.11841 12.81872,-10.84521 12.545,-11.04629 -0.426,-0.322 -5.819,0.204 -9.243,-1.776 z"
           fill="#f7931a"
           id="path5-5"
           sodipodi:nodetypes="ccsscscccc"><title
             id="ball">B ball Zapped</title></path><path
           d="m 417.763,421.42 c 0,0 1.69628,-2.94654 1.411,1.197 -0.144,1.023 -4.077,18.911 -4.077,18.911 0,0.005 7.622,0.484 7.622,0.484 1.382,-0.014 0.712,1.04 0.712,1.04 l -20.327,27.405 c -2.923,4.144 -1.539,-0.727 -1.5,-1.439 3.555,-10.656 5.681,-16.693 6.384,-18.095 0,0 -8.98,-1.189 -8.93,-1.947 v -0.136 c 0.029,-0.35 2.306,-3.702 6.847,-10.048 6.854,-9.972 0.016,0.028 11.858,-17.372 z"
           style="fill:#ffba00;fill-opacity:1"
           id="path6-7"
           sodipodi:nodetypes="cccccccccccc"><title
             id="bolt">Lightning bolt</title></path><path
           fill="white"
           fill-rule="nonzero"
           d="m 2947.77,1754.38 c 40.72,-272.26 -166.56,-418.61 -450,-516.24 l 91.95,-368.8 -224.5,-55.94 -89.51,359.09 c -59.02,-14.72 -119.63,-28.59 -179.87,-42.34 l 90.16,-361.46 -224.36,-55.94 -92,368.68 c -48.84,-11.12 -96.81,-22.11 -143.35,-33.69 l 0.26,-1.16 -309.59,-77.31 -59.72,239.78 c 0,0 166.56,38.18 163.05,40.53 90.91,22.69 107.35,82.87 104.62,130.57 l -251.94,1010.34 c -11.11,27.62 -39.31,69.07 -102.87,53.33 2.25,3.26 -163.17,-40.72 -163.17,-40.72 l -111.46,256.98 292.15,72.83 c 54.35,13.63 107.61,27.89 160.06,41.3 l -92.9,373.03 224.24,55.94 92,-369.07 c 61.26,16.63 120.71,31.97 178.91,46.43 l -91.69,367.33 224.51,55.94 92.89,-372.33 c 382.82,72.45 670.67,43.24 791.83,-303.02 97.63,-278.78 -4.86,-439.58 -206.26,-544.44 146.69,-33.83 257.18,-130.31 286.64,-329.61 l -0.07,-0.05 z m -512.93,719.26 c -69.38,278.78 -538.76,128.08 -690.94,90.29 l 123.28,-494.2 c 152.17,37.99 640.17,113.17 567.67,403.91 z m 69.43,-723.3 c -63.29,253.58 -453.96,124.75 -580.69,93.16 l 111.77,-448.21 c 126.73,31.59 534.85,90.55 468.94,355.05 z"
           id="path2-6"
           style="display:inline;opacity:1;fill:#ffffff;fill-opacity:1"
           transform="matrix(0.02399203,0,0,0.02482302,328.14558,372.00896)" /></g><rect
         style="display:none;fill:#ff0000;fill-opacity:0;stroke:#ff0000;stroke-width:0.140244"
         id="rect2"
         width="1.6855859"
         height="983.15735"
         x="471.59814"
         y="9.9150181"
         inkscape:label="AIm Horizontal" /><rect
         style="display:none;fill:#ff0000;fill-opacity:0;stroke:#ff0000;stroke-width:0.209818"
         id="rect1"
         width="990.91046"
         height="3.7432735"
         x="2.9973774"
         y="470.56931"
         inkscape:label="Aim Vertical" /><circle
         style="display:none;opacity:0.634921;fill:#fafafa;stroke:#ff0000"
         id="path1-8"
         cx="472.44095"
         cy="472.44095"
         inkscape:label="Aim Ball"
         r="395.70917" /></g><text
       fill="#4d4d4d"
       font-family="Ubuntu, Ubuntu_MSFontService, sans-serif"
       font-style="italic"
       font-weight="700"
       font-size="353px"
       id="text1"
       x="1084.53"
       y="1078"
       inkscape:label="salamaverkko">salamaverkko</text></g></svg>
