<svg width="4109" height="1988" xmlns="http://www.w3.org/2000/svg" xmlns:xlink="http://www.w3.org/1999/xlink" xml:space="preserve" overflow="hidden"><g transform="matrix(1 0 0 1 0 -368)"><path d="M735.93 1327.39C686.293 1527.55 483.784 1649.57 283.612 1599.93 83.4473 1550.31-38.5718 1347.79 11.0661 1147.63 60.7037 947.455 263.212 825.428 463.376 875.065 463.712 875.149 464.057 875.233 464.393 875.326 664.028 925.425 785.484 1127.61 735.93 1327.39Z" fill="#F7931A" fill-rule="evenodd"/><path d="M458.318 1183.25C446.629 1229.81 375.332 1205.94 352.189 1200.24L372.639 1118.77C395.428 1124.36 470.008 1135.06 457.965 1183.25L458.318 1183.25ZM445.577 1314.9C432.954 1365.64 347.165 1338.18 319.343 1331.3L341.897 1241.33C369.719 1248.31 458.781 1261.93 445.577 1314.9ZM539.083 1183.95C546.447 1134.36 508.577 1107.71 457.266 1090.02L474.098 1022.86 432.609 1012.62 416.249 1078.04C405.494 1075.37 394.394 1072.8 383.403 1070.35L399.763 1004.24 358.736 994 341.905 1061.16 315.724 1055.34 259.037 1041.26 248.164 1084.91C248.164 1084.91 278.552 1091.89 277.972 1092.36 289.577 1093.76 298.043 1104.03 297.142 1115.64L251.084 1299.55C248.576 1307.39 240.16 1311.71 232.275 1309.21L232.266 1309.21C232.266 1309.79 202.341 1301.88 202.341 1301.88L182 1348.44 235.414 1361.6 264.633 1369.17 247.684 1437.02 288.71 1447.26 305.541 1380.1C316.599 1383.13 327.481 1385.92 338.152 1388.48L321.556 1455.88 362.582 1466 379.531 1398.26C449.659 1411.43 502.139 1406.17 524.348 1343.09 542.231 1292.34 523.413 1263.13 486.595 1244.04 513.475 1237.87 533.352 1220.76 539.075 1183.98L539.083 1183.95Z" fill="#FFFFFF" fill-rule="evenodd"/><text fill="#4D4D4D" font-family="Ubuntu,Ubuntu_MSFontService,sans-serif" font-style="italic" font-weight="700" font-size="946" transform="matrix(1 0 0 1 698.189 1597)">b</text><text fill="#4D4D4D" font-family="Ubuntu,Ubuntu_MSFontService,sans-serif" font-style="italic" font-weight="700" font-size="946" transform="matrix(1 0 0 1 1462.17 1597)">t</text><text fill="#4D4D4D" font-family="Ubuntu,Ubuntu_MSFontService,sans-serif" font-style="italic" font-weight="700" font-size="946" transform="matrix(1 0 0 1 1829.26 1597)">c</text><text fill="#4D4D4D" font-family="Ubuntu,Ubuntu_MSFontService,sans-serif" font-style="italic" font-weight="700" font-size="946" transform="matrix(1 0 0 1 2253.61 1597)">o</text><text fill="#4D4D4D" font-family="Ubuntu,Ubuntu_MSFontService,sans-serif" font-style="italic" font-weight="700" font-size="946" transform="matrix(1 0 0 1 2771.74 1597)">i</text><text fill="#4D4D4D" font-family="Ubuntu,Ubuntu_MSFontService,sans-serif" font-style="italic" font-weight="700" font-size="946" transform="matrix(1 0 0 1 3016.4 1597)">n</text><text fill="#4D4D4D" font-family="Ubuntu,Ubuntu_MSFontService,sans-serif" font-style="italic" font-weight="700" font-size="946" transform="matrix(1 0 0 1 1216.05 1597)">i</text><text fill="#4D4D4D" font-family="Ubuntu,Ubuntu_MSFontService,sans-serif" font-style="italic" font-weight="700" font-size="223" transform="matrix(1 0 0 1 1220.23 1925)">banner template text</text></g></svg>