<?xml version="1.0" encoding="utf-8"?>
<svg viewBox="0 0 1280 640" xmlns="http://www.w3.org/2000/svg">
  <rect x="0" y="0" width="1280" height="640" style="fill: none; stroke: none;">
    <title>Area</title>
  </rect>
  <rect width="1280" height="475" style="fill: none; stroke: none;" y="82.5">
    <title>1280x475</title>
  </rect>
  <g transform="matrix(1.6566429138183594, 0, 0, 1.6566429138183594, -876.7990112304689, -213.70721435546875)" style="">
    <path d="M 834.554 264.676 C 839.675 264.676 844.102 265.583 847.836 267.396 C 851.57 269.21 854.664 271.664 857.118 274.758 C 859.571 277.852 861.385 281.479 862.559 285.64 C 863.732 289.801 864.319 294.281 864.319 299.082 C 864.319 306.443 862.959 313.405 860.238 319.966 C 857.518 326.527 853.811 332.235 849.116 337.089 C 844.422 341.944 838.874 345.785 832.473 348.612 C 826.072 351.439 819.137 352.852 811.669 352.852 C 810.709 352.852 809.029 352.825 806.628 352.772 C 804.228 352.719 801.481 352.479 798.387 352.052 C 795.293 351.625 792.012 350.985 788.545 350.132 C 785.078 349.279 781.797 348.105 778.703 346.611 L 806.388 230.269 L 831.193 226.429 L 821.271 267.716 C 823.405 266.756 825.539 266.009 827.672 265.476 C 829.806 264.943 832.1 264.676 834.554 264.676 Z M 813.75 333.169 C 817.484 333.169 821.005 332.262 824.312 330.448 C 827.619 328.635 830.473 326.208 832.873 323.167 C 835.274 320.126 837.167 316.686 838.554 312.845 C 839.941 309.004 840.635 305.004 840.635 300.843 C 840.635 295.722 839.781 291.721 838.074 288.84 C 836.367 285.96 833.22 284.52 828.632 284.52 C 827.139 284.52 825.192 284.787 822.791 285.32 C 820.391 285.853 818.231 286.973 816.31 288.68 L 805.748 332.529 C 806.388 332.636 806.948 332.742 807.428 332.849 C 807.909 332.956 808.416 333.036 808.949 333.089 C 809.482 333.142 810.122 333.169 810.869 333.169 C 811.616 333.169 812.576 333.169 813.75 333.169 Z M 894.405 350.612 L 870.72 350.612 L 890.724 266.436 L 914.569 266.436 L 894.405 350.612 Z M 905.927 256.194 C 902.62 256.194 899.632 255.207 896.965 253.234 C 894.298 251.26 892.965 248.246 892.965 244.192 C 892.965 241.951 893.418 239.844 894.325 237.871 C 895.232 235.897 896.432 234.19 897.926 232.75 C 899.419 231.309 901.153 230.162 903.126 229.309 C 905.1 228.456 907.207 228.029 909.448 228.029 C 912.755 228.029 915.742 229.016 918.409 230.99 C 921.076 232.963 922.41 235.977 922.41 240.031 C 922.41 242.272 921.957 244.379 921.05 246.352 C 920.143 248.326 918.943 250.033 917.449 251.473 C 915.956 252.914 914.222 254.061 912.248 254.914 C 910.275 255.767 908.168 256.194 905.927 256.194 Z M 938.893 245.472 L 963.698 241.632 L 957.617 266.436 L 984.182 266.436 L 979.381 285.96 L 952.976 285.96 L 945.935 315.405 C 945.295 317.859 944.895 320.153 944.734 322.287 C 944.574 324.42 944.841 326.261 945.535 327.808 C 946.228 329.355 947.428 330.555 949.135 331.408 C 950.842 332.262 953.19 332.689 956.177 332.689 C 958.737 332.689 961.217 332.449 963.618 331.969 C 966.019 331.488 968.446 330.821 970.899 329.968 L 972.66 348.212 C 969.459 349.385 965.992 350.399 962.258 351.252 C 958.524 352.105 954.096 352.532 948.975 352.532 C 941.614 352.532 935.906 351.439 931.852 349.252 C 927.798 347.065 924.917 344.077 923.21 340.29 C 921.503 336.503 920.757 332.155 920.97 327.248 C 921.183 322.34 921.93 317.166 923.21 311.725 L 938.893 245.472 Z M 987.382 317.006 C 987.382 309.751 988.556 302.923 990.903 296.522 C 993.25 290.121 996.61 284.52 1000.985 279.719 C 1005.359 274.918 1010.667 271.13 1016.908 268.357 C 1023.149 265.583 1030.11 264.196 1037.791 264.196 C 1042.592 264.196 1046.887 264.649 1050.674 265.556 C 1054.461 266.463 1057.902 267.663 1060.996 269.157 L 1052.834 287.72 C 1050.701 286.867 1048.487 286.093 1046.193 285.4 C 1043.899 284.707 1041.098 284.36 1037.791 284.36 C 1029.79 284.36 1023.495 287.054 1018.908 292.441 C 1014.321 297.829 1012.027 305.164 1012.027 314.445 C 1012.027 319.886 1013.2 324.287 1015.547 327.648 C 1017.894 331.009 1022.215 332.689 1028.51 332.689 C 1031.604 332.689 1034.591 332.369 1037.471 331.728 C 1040.352 331.088 1042.912 330.288 1045.153 329.328 L 1046.913 348.372 C 1043.926 349.545 1040.645 350.585 1037.071 351.492 C 1033.497 352.399 1029.15 352.852 1024.029 352.852 C 1017.414 352.852 1011.813 351.892 1007.226 349.972 C 1002.638 348.051 998.851 345.464 995.864 342.21 C 992.877 338.957 990.716 335.143 989.382 330.768 C 988.049 326.394 987.382 321.807 987.382 317.006 Z M 1097.483 352.852 C 1091.829 352.852 1086.921 351.999 1082.76 350.292 C 1078.599 348.585 1075.159 346.184 1072.439 343.091 C 1069.718 339.997 1067.664 336.343 1066.277 332.129 C 1064.89 327.914 1064.197 323.247 1064.197 318.126 C 1064.197 311.725 1065.237 305.323 1067.318 298.922 C 1069.398 292.521 1072.465 286.76 1076.519 281.639 C 1080.573 276.518 1085.534 272.331 1091.402 269.077 C 1097.27 265.823 1103.991 264.196 1111.566 264.196 C 1117.113 264.196 1121.994 265.049 1126.209 266.756 C 1130.423 268.463 1133.89 270.864 1136.611 273.958 C 1139.331 277.051 1141.385 280.705 1142.772 284.92 C 1144.159 289.134 1144.852 293.801 1144.852 298.922 C 1144.852 305.323 1143.839 311.725 1141.812 318.126 C 1139.785 324.527 1136.797 330.288 1132.85 335.409 C 1128.903 340.53 1123.968 344.718 1118.047 347.972 C 1112.126 351.225 1105.271 352.852 1097.483 352.852 Z M 1109.325 284.36 C 1105.804 284.36 1102.711 285.373 1100.044 287.4 C 1097.377 289.427 1095.136 291.988 1093.322 295.082 C 1091.509 298.175 1090.149 301.562 1089.242 305.243 C 1088.335 308.924 1087.881 312.418 1087.881 315.725 C 1087.881 321.166 1088.735 325.354 1090.442 328.288 C 1092.149 331.222 1095.243 332.689 1099.724 332.689 C 1103.245 332.689 1106.338 331.675 1109.005 329.648 C 1111.672 327.621 1113.913 325.06 1115.727 321.967 C 1117.54 318.873 1118.9 315.486 1119.807 311.805 C 1120.714 308.124 1121.168 304.63 1121.168 301.323 C 1121.168 295.882 1120.314 291.694 1118.607 288.76 C 1116.9 285.827 1113.806 284.36 1109.325 284.36 Z M 1174.938 350.612 L 1151.253 350.612 L 1171.257 266.436 L 1195.101 266.436 L 1174.938 350.612 Z M 1186.46 256.194 C 1183.153 256.194 1180.165 255.207 1177.498 253.234 C 1174.831 251.26 1173.497 248.246 1173.497 244.192 C 1173.497 241.951 1173.951 239.844 1174.858 237.871 C 1175.765 235.897 1176.965 234.19 1178.458 232.75 C 1179.952 231.309 1181.686 230.162 1183.659 229.309 C 1185.633 228.456 1187.74 228.029 1189.98 228.029 C 1193.287 228.029 1196.275 229.016 1198.942 230.99 C 1201.609 232.963 1202.943 235.977 1202.943 240.031 C 1202.943 242.272 1202.49 244.379 1201.583 246.352 C 1200.676 248.326 1199.475 250.033 1197.982 251.473 C 1196.488 252.914 1194.754 254.061 1192.781 254.914 C 1190.807 255.767 1188.7 256.194 1186.46 256.194 Z M 1215.905 270.277 C 1217.718 269.744 1219.719 269.13 1221.906 268.437 C 1224.093 267.743 1226.546 267.103 1229.267 266.516 C 1231.988 265.929 1235.028 265.449 1238.389 265.076 C 1241.75 264.703 1245.564 264.516 1249.831 264.516 C 1262.42 264.516 1271.062 268.143 1275.756 275.398 C 1280.45 282.653 1281.25 292.574 1278.156 305.163 L 1267.274 350.612 L 1243.43 350.612 L 1253.992 306.124 C 1254.632 303.35 1255.139 300.656 1255.512 298.042 C 1255.885 295.428 1255.859 293.134 1255.432 291.161 C 1255.005 289.187 1254.019 287.587 1252.472 286.36 C 1250.925 285.133 1248.551 284.52 1245.35 284.52 C 1242.256 284.52 1239.109 284.84 1235.908 285.48 L 1220.386 350.612 L 1196.541 350.612 L 1215.905 270.277 Z" style="fill: rgb(77, 77, 77);">
      <title>bitcoin</title>
    </path>
    <path d="M 785.398 409.974 C 785.398 410.063 785.385 410.206 785.358 410.403 C 785.331 410.6 785.295 410.814 785.25 411.047 C 785.205 411.28 785.152 411.512 785.089 411.745 C 785.026 411.978 784.941 412.192 784.834 412.389 C 784.727 412.586 784.602 412.747 784.459 412.872 C 784.316 412.997 784.155 413.06 783.976 413.06 L 768.599 413.06 C 768.384 413.06 768.183 413.029 767.995 412.966 C 767.807 412.903 767.641 412.796 767.498 412.644 C 767.355 412.492 767.257 412.295 767.203 412.054 C 767.15 411.812 767.168 411.521 767.257 411.181 L 773.671 379.005 C 773.688 378.88 773.751 378.763 773.858 378.656 C 773.965 378.549 774.118 378.464 774.315 378.401 C 774.512 378.338 774.762 378.285 775.066 378.24 C 775.37 378.195 775.737 378.173 776.166 378.173 C 776.595 378.173 776.958 378.195 777.253 378.24 C 777.548 378.285 777.776 378.338 777.937 378.401 C 778.098 378.464 778.206 378.549 778.259 378.656 C 778.313 378.763 778.322 378.88 778.286 379.005 L 772.302 409.061 L 784.754 409.061 C 784.987 409.061 785.152 409.142 785.25 409.303 C 785.349 409.464 785.398 409.687 785.398 409.974 Z M 794.714 412.389 C 794.696 412.514 794.638 412.631 794.54 412.738 C 794.441 412.845 794.294 412.93 794.097 412.993 C 793.9 413.056 793.65 413.109 793.346 413.154 C 793.041 413.199 792.674 413.221 792.245 413.221 C 791.78 413.221 791.405 413.199 791.118 413.154 C 790.832 413.109 790.608 413.056 790.447 412.993 C 790.286 412.93 790.179 412.845 790.125 412.738 C 790.072 412.631 790.063 412.514 790.098 412.389 L 796.754 379.005 C 796.772 378.88 796.839 378.763 796.955 378.656 C 797.071 378.549 797.228 378.464 797.425 378.401 C 797.622 378.338 797.868 378.285 798.163 378.24 C 798.458 378.195 798.82 378.173 799.249 378.173 C 799.679 378.173 800.037 378.195 800.323 378.24 C 800.609 378.285 800.837 378.338 801.007 378.401 C 801.177 378.464 801.289 378.549 801.343 378.656 C 801.396 378.763 801.405 378.88 801.37 379.005 L 794.714 412.389 Z M 836.017 382.118 C 836.017 382.243 836.004 382.4 835.977 382.588 C 835.95 382.776 835.915 382.973 835.87 383.178 C 835.825 383.384 835.767 383.599 835.695 383.822 C 835.624 384.046 835.543 384.243 835.454 384.413 C 835.365 384.583 835.266 384.717 835.159 384.815 C 835.051 384.914 834.935 384.963 834.81 384.963 C 834.541 384.963 834.179 384.802 833.723 384.48 C 833.266 384.158 832.658 383.796 831.898 383.393 C 831.137 382.99 830.211 382.624 829.12 382.293 C 828.029 381.962 826.723 381.796 825.202 381.796 C 823.61 381.796 822.121 382.033 820.734 382.507 C 819.347 382.981 818.073 383.634 816.91 384.466 C 815.747 385.298 814.71 386.282 813.797 387.418 C 812.884 388.554 812.111 389.789 811.476 391.122 C 810.841 392.455 810.358 393.854 810.027 395.321 C 809.696 396.788 809.53 398.273 809.53 399.776 C 809.53 401.351 809.758 402.742 810.215 403.949 C 810.671 405.157 811.328 406.172 812.187 406.995 C 813.046 407.818 814.083 408.44 815.3 408.86 C 816.517 409.281 817.876 409.491 819.379 409.491 C 820.488 409.491 821.647 409.361 822.854 409.102 C 824.062 408.843 825.185 408.445 826.222 407.908 L 828.235 397.844 L 820.211 397.844 C 819.996 397.844 819.831 397.768 819.714 397.616 C 819.598 397.464 819.54 397.245 819.54 396.958 C 819.54 396.833 819.553 396.668 819.58 396.462 C 819.607 396.256 819.643 396.046 819.688 395.831 C 819.733 395.616 819.795 395.402 819.875 395.187 C 819.956 394.972 820.05 394.78 820.157 394.61 C 820.264 394.44 820.385 394.306 820.52 394.208 C 820.654 394.109 820.801 394.06 820.962 394.06 L 831.992 394.06 C 832.493 394.06 832.855 394.23 833.079 394.57 C 833.302 394.91 833.351 395.366 833.226 395.939 L 830.543 409.303 C 830.471 409.643 830.377 409.916 830.261 410.121 C 830.145 410.327 830.015 410.511 829.872 410.672 C 829.711 410.833 829.304 411.07 828.651 411.383 C 827.998 411.696 827.175 412.013 826.182 412.335 C 825.189 412.657 824.07 412.939 822.827 413.181 C 821.584 413.422 820.282 413.543 818.923 413.543 C 816.597 413.543 814.548 413.243 812.777 412.644 C 811.006 412.045 809.522 411.173 808.323 410.028 C 807.124 408.883 806.212 407.496 805.585 405.868 C 804.959 404.24 804.646 402.397 804.646 400.34 C 804.646 398.425 804.865 396.542 805.304 394.691 C 805.742 392.839 806.372 391.081 807.195 389.418 C 808.018 387.754 809.034 386.215 810.241 384.802 C 811.449 383.389 812.836 382.172 814.401 381.152 C 815.966 380.132 817.688 379.327 819.567 378.737 C 821.446 378.146 823.476 377.851 825.659 377.851 C 826.911 377.851 828.083 377.963 829.174 378.187 C 830.265 378.41 831.24 378.679 832.099 378.992 C 832.958 379.305 833.682 379.649 834.273 380.025 C 834.864 380.401 835.266 380.687 835.481 380.884 C 835.696 381.081 835.839 381.268 835.91 381.447 C 835.981 381.626 836.017 381.85 836.017 382.118 Z M 863.639 412.389 C 863.604 412.514 863.537 412.631 863.438 412.738 C 863.339 412.845 863.196 412.93 863.009 412.993 C 862.821 413.056 862.579 413.109 862.284 413.154 C 861.989 413.199 861.608 413.221 861.143 413.221 C 860.714 413.221 860.356 413.199 860.07 413.154 C 859.784 413.109 859.556 413.056 859.386 412.993 C 859.216 412.93 859.104 412.845 859.05 412.738 C 858.997 412.631 858.997 412.514 859.05 412.389 L 862.11 396.958 L 846.303 396.958 L 843.244 412.389 C 843.208 412.514 843.145 412.631 843.056 412.738 C 842.967 412.845 842.824 412.93 842.627 412.993 C 842.43 413.056 842.179 413.109 841.875 413.154 C 841.571 413.199 841.204 413.221 840.775 413.221 C 840.31 413.221 839.934 413.199 839.648 413.154 C 839.362 413.109 839.138 413.056 838.977 412.993 C 838.816 412.93 838.708 412.845 838.655 412.738 C 838.601 412.631 838.592 412.514 838.628 412.389 L 845.283 379.005 C 845.301 378.88 845.364 378.763 845.471 378.656 C 845.578 378.549 845.73 378.464 845.927 378.401 C 846.124 378.338 846.37 378.285 846.665 378.24 C 846.96 378.195 847.332 378.173 847.779 378.173 C 848.208 378.173 848.571 378.195 848.866 378.24 C 849.161 378.285 849.389 378.338 849.55 378.401 C 849.711 378.464 849.814 378.549 849.859 378.656 C 849.904 378.763 849.917 378.88 849.899 379.005 L 847.135 392.933 L 862.915 392.933 L 865.706 379.005 C 865.723 378.88 865.781 378.763 865.88 378.656 C 865.979 378.549 866.126 378.464 866.323 378.401 C 866.52 378.338 866.766 378.285 867.061 378.24 C 867.356 378.195 867.736 378.173 868.201 378.173 C 868.63 378.173 868.988 378.195 869.275 378.24 C 869.561 378.285 869.789 378.338 869.959 378.401 C 870.129 378.464 870.236 378.549 870.281 378.656 C 870.326 378.763 870.33 378.88 870.295 379.005 L 863.639 412.389 Z M 901.18 379.274 C 901.18 379.381 901.176 379.529 901.167 379.716 C 901.158 379.904 901.131 380.105 901.086 380.32 C 901.041 380.535 900.983 380.763 900.912 381.004 C 900.84 381.246 900.75 381.456 900.643 381.635 C 900.536 381.814 900.406 381.961 900.254 382.078 C 900.102 382.194 899.937 382.252 899.758 382.252 L 889.99 382.252 L 883.951 412.362 C 883.916 412.505 883.849 412.631 883.75 412.738 C 883.652 412.845 883.509 412.93 883.321 412.993 C 883.133 413.056 882.887 413.109 882.583 413.154 C 882.279 413.199 881.903 413.221 881.456 413.221 C 881.009 413.221 880.642 413.199 880.355 413.154 C 880.069 413.109 879.846 413.056 879.685 412.993 C 879.524 412.93 879.416 412.845 879.363 412.738 C 879.309 412.631 879.3 412.505 879.336 412.362 L 885.347 382.252 L 875.632 382.252 C 875.382 382.252 875.212 382.172 875.122 382.011 C 875.033 381.85 874.988 381.626 874.988 381.34 C 874.988 381.215 875.002 381.058 875.029 380.87 C 875.056 380.683 875.091 380.473 875.136 380.24 C 875.181 380.007 875.239 379.784 875.31 379.569 C 875.382 379.354 875.472 379.153 875.579 378.965 C 875.686 378.777 875.807 378.625 875.941 378.509 C 876.075 378.392 876.232 378.334 876.411 378.334 L 900.563 378.334 C 900.796 378.334 900.957 378.419 901.046 378.589 C 901.135 378.759 901.18 378.987 901.18 379.274 Z M 926.04 411.155 C 925.986 411.512 925.879 411.816 925.718 412.067 C 925.557 412.318 925.373 412.523 925.168 412.684 C 924.962 412.845 924.743 412.962 924.51 413.033 C 924.277 413.105 924.045 413.141 923.812 413.141 L 922.068 413.141 C 921.603 413.141 921.209 413.087 920.887 412.979 C 920.565 412.872 920.283 412.688 920.042 412.429 C 919.801 412.17 919.586 411.83 919.398 411.41 C 919.21 410.989 919.009 410.466 918.794 409.84 L 912.273 391.323 C 911.826 389.999 911.383 388.68 910.945 387.365 C 910.506 386.05 910.081 384.73 909.67 383.406 L 909.616 383.406 C 909.383 384.873 909.133 386.332 908.865 387.781 C 908.596 389.23 908.319 390.679 908.033 392.128 L 904.007 412.362 C 903.972 412.505 903.905 412.631 903.806 412.738 C 903.708 412.845 903.565 412.93 903.377 412.993 C 903.189 413.056 902.947 413.109 902.652 413.154 C 902.357 413.199 902.003 413.221 901.592 413.221 C 901.181 413.221 900.836 413.199 900.559 413.154 C 900.282 413.109 900.071 413.056 899.928 412.993 C 899.785 412.93 899.692 412.845 899.647 412.738 C 899.602 412.631 899.598 412.505 899.633 412.362 L 906.02 380.32 C 906.163 379.605 906.463 379.095 906.919 378.791 C 907.375 378.486 907.836 378.334 908.301 378.334 L 910.421 378.334 C 910.85 378.334 911.226 378.379 911.548 378.468 C 911.87 378.558 912.147 378.719 912.38 378.952 C 912.613 379.184 912.819 379.484 912.998 379.851 C 913.177 380.218 913.373 380.687 913.588 381.259 L 920.163 400.018 C 920.574 401.181 920.981 402.343 921.384 403.506 C 921.787 404.669 922.185 405.841 922.578 407.022 L 922.632 407.022 C 922.882 405.555 923.155 404.034 923.45 402.46 C 923.745 400.885 924.036 399.365 924.322 397.898 L 928.106 379.086 C 928.142 378.943 928.205 378.822 928.294 378.723 C 928.383 378.625 928.518 378.54 928.697 378.468 C 928.876 378.397 929.104 378.343 929.381 378.307 C 929.658 378.272 930.012 378.254 930.441 378.254 C 930.852 378.254 931.197 378.272 931.474 378.307 C 931.751 378.343 931.966 378.397 932.118 378.468 C 932.27 378.54 932.373 378.625 932.427 378.723 C 932.48 378.822 932.498 378.943 932.48 379.086 L 926.04 411.155 Z M 939.699 412.389 C 939.681 412.514 939.623 412.631 939.525 412.738 C 939.426 412.845 939.279 412.93 939.082 412.993 C 938.885 413.056 938.635 413.109 938.33 413.154 C 938.026 413.199 937.659 413.221 937.23 413.221 C 936.765 413.221 936.389 413.199 936.103 413.154 C 935.817 413.109 935.593 413.056 935.432 412.993 C 935.271 412.93 935.164 412.845 935.11 412.738 C 935.057 412.631 935.048 412.514 935.083 412.389 L 941.739 379.005 C 941.756 378.88 941.823 378.763 941.94 378.656 C 942.056 378.549 942.212 378.464 942.409 378.401 C 942.606 378.338 942.852 378.285 943.147 378.24 C 943.442 378.195 943.805 378.173 944.234 378.173 C 944.663 378.173 945.021 378.195 945.308 378.24 C 945.594 378.285 945.822 378.338 945.992 378.401 C 946.162 378.464 946.274 378.549 946.327 378.656 C 946.381 378.763 946.39 378.88 946.354 379.005 L 939.699 412.389 Z M 975.34 411.155 C 975.286 411.512 975.179 411.816 975.018 412.067 C 974.857 412.318 974.673 412.523 974.468 412.684 C 974.262 412.845 974.043 412.962 973.81 413.033 C 973.577 413.105 973.345 413.141 973.112 413.141 L 971.368 413.141 C 970.903 413.141 970.509 413.087 970.187 412.979 C 969.865 412.872 969.583 412.688 969.342 412.429 C 969.101 412.17 968.886 411.83 968.698 411.41 C 968.51 410.989 968.309 410.466 968.094 409.84 L 961.573 391.323 C 961.126 389.999 960.683 388.68 960.245 387.365 C 959.806 386.05 959.381 384.73 958.97 383.406 L 958.916 383.406 C 958.683 384.873 958.433 386.332 958.165 387.781 C 957.896 389.23 957.619 390.679 957.333 392.128 L 953.307 412.362 C 953.272 412.505 953.205 412.631 953.106 412.738 C 953.008 412.845 952.865 412.93 952.677 412.993 C 952.489 413.056 952.247 413.109 951.952 413.154 C 951.657 413.199 951.303 413.221 950.892 413.221 C 950.481 413.221 950.136 413.199 949.859 413.154 C 949.582 413.109 949.371 413.056 949.228 412.993 C 949.085 412.93 948.992 412.845 948.947 412.738 C 948.902 412.631 948.898 412.505 948.933 412.362 L 955.32 380.32 C 955.463 379.605 955.763 379.095 956.219 378.791 C 956.675 378.486 957.136 378.334 957.601 378.334 L 959.721 378.334 C 960.15 378.334 960.526 378.379 960.848 378.468 C 961.17 378.558 961.447 378.719 961.68 378.952 C 961.913 379.184 962.119 379.484 962.298 379.851 C 962.477 380.218 962.673 380.687 962.888 381.259 L 969.463 400.018 C 969.874 401.181 970.281 402.343 970.684 403.506 C 971.087 404.669 971.485 405.841 971.878 407.022 L 971.932 407.022 C 972.182 405.555 972.455 404.034 972.75 402.46 C 973.045 400.885 973.336 399.365 973.622 397.898 L 977.406 379.086 C 977.442 378.943 977.505 378.822 977.594 378.723 C 977.683 378.625 977.818 378.54 977.997 378.468 C 978.176 378.397 978.404 378.343 978.681 378.307 C 978.958 378.272 979.312 378.254 979.741 378.254 C 980.152 378.254 980.497 378.272 980.774 378.307 C 981.051 378.343 981.266 378.397 981.418 378.468 C 981.57 378.54 981.673 378.625 981.727 378.723 C 981.78 378.822 981.798 378.943 981.78 379.086 L 975.34 411.155 Z M 1016.286 382.118 C 1016.286 382.243 1016.273 382.4 1016.246 382.588 C 1016.219 382.776 1016.184 382.973 1016.139 383.178 C 1016.094 383.384 1016.035 383.599 1015.964 383.822 C 1015.893 384.046 1015.812 384.243 1015.723 384.413 C 1015.633 384.583 1015.534 384.717 1015.427 384.815 C 1015.32 384.914 1015.204 384.963 1015.079 384.963 C 1014.81 384.963 1014.448 384.802 1013.992 384.48 C 1013.535 384.158 1012.927 383.796 1012.167 383.393 C 1011.406 382.99 1010.48 382.624 1009.389 382.293 C 1008.298 381.962 1006.992 381.796 1005.471 381.796 C 1003.879 381.796 1002.39 382.033 1001.003 382.507 C 999.616 382.981 998.342 383.634 997.179 384.466 C 996.016 385.298 994.979 386.282 994.066 387.418 C 993.153 388.554 992.38 389.789 991.745 391.122 C 991.11 392.455 990.627 393.854 990.296 395.321 C 989.965 396.788 989.799 398.273 989.799 399.776 C 989.799 401.351 990.027 402.742 990.483 403.949 C 990.94 405.157 991.597 406.172 992.456 406.995 C 993.315 407.818 994.352 408.44 995.569 408.86 C 996.786 409.281 998.145 409.491 999.648 409.491 C 1000.757 409.491 1001.916 409.361 1003.123 409.102 C 1004.331 408.843 1005.454 408.445 1006.491 407.908 L 1008.504 397.844 L 1000.48 397.844 C 1000.265 397.844 1000.1 397.768 999.983 397.616 C 999.867 397.464 999.809 397.245 999.809 396.958 C 999.809 396.833 999.822 396.668 999.849 396.462 C 999.876 396.256 999.911 396.046 999.956 395.831 C 1000.001 395.616 1000.064 395.402 1000.144 395.187 C 1000.225 394.972 1000.319 394.78 1000.426 394.61 C 1000.533 394.44 1000.654 394.306 1000.788 394.208 C 1000.923 394.109 1001.07 394.06 1001.231 394.06 L 1012.261 394.06 C 1012.762 394.06 1013.124 394.23 1013.348 394.57 C 1013.571 394.91 1013.62 395.366 1013.495 395.939 L 1010.812 409.303 C 1010.74 409.643 1010.646 409.916 1010.53 410.121 C 1010.413 410.327 1010.284 410.511 1010.141 410.672 C 1009.98 410.833 1009.573 411.07 1008.92 411.383 C 1008.267 411.696 1007.444 412.013 1006.451 412.335 C 1005.458 412.657 1004.339 412.939 1003.096 413.181 C 1001.853 413.422 1000.551 413.543 999.192 413.543 C 996.866 413.543 994.817 413.243 993.046 412.644 C 991.275 412.045 989.79 411.173 988.591 410.028 C 987.392 408.883 986.48 407.496 985.854 405.868 C 985.228 404.24 984.915 402.397 984.915 400.34 C 984.915 398.425 985.134 396.542 985.572 394.691 C 986.011 392.839 986.641 391.081 987.464 389.418 C 988.287 387.754 989.303 386.215 990.51 384.802 C 991.718 383.389 993.105 382.172 994.67 381.152 C 996.235 380.132 997.957 379.327 999.836 378.737 C 1001.715 378.146 1003.745 377.851 1005.927 377.851 C 1007.18 377.851 1008.352 377.963 1009.443 378.187 C 1010.534 378.41 1011.509 378.679 1012.368 378.992 C 1013.227 379.305 1013.951 379.649 1014.542 380.025 C 1015.132 380.401 1015.534 380.687 1015.749 380.884 C 1015.964 381.081 1016.107 381.268 1016.179 381.447 C 1016.25 381.626 1016.286 381.85 1016.286 382.118 Z M 1058.109 411.155 C 1058.055 411.512 1057.948 411.816 1057.787 412.067 C 1057.626 412.318 1057.442 412.523 1057.237 412.684 C 1057.031 412.845 1056.812 412.962 1056.579 413.033 C 1056.346 413.105 1056.114 413.141 1055.881 413.141 L 1054.137 413.141 C 1053.672 413.141 1053.278 413.087 1052.956 412.979 C 1052.634 412.872 1052.352 412.688 1052.111 412.429 C 1051.87 412.17 1051.655 411.83 1051.467 411.41 C 1051.279 410.989 1051.078 410.466 1050.863 409.84 L 1044.342 391.323 C 1043.895 389.999 1043.452 388.68 1043.014 387.365 C 1042.575 386.05 1042.15 384.73 1041.739 383.406 L 1041.685 383.406 C 1041.452 384.873 1041.202 386.332 1040.934 387.781 C 1040.665 389.23 1040.388 390.679 1040.102 392.128 L 1036.076 412.362 C 1036.041 412.505 1035.974 412.631 1035.875 412.738 C 1035.777 412.845 1035.634 412.93 1035.446 412.993 C 1035.258 413.056 1035.016 413.109 1034.721 413.154 C 1034.426 413.199 1034.072 413.221 1033.661 413.221 C 1033.25 413.221 1032.905 413.199 1032.628 413.154 C 1032.351 413.109 1032.14 413.056 1031.997 412.993 C 1031.854 412.93 1031.761 412.845 1031.716 412.738 C 1031.671 412.631 1031.667 412.505 1031.702 412.362 L 1038.089 380.32 C 1038.232 379.605 1038.532 379.095 1038.988 378.791 C 1039.445 378.486 1039.905 378.334 1040.37 378.334 L 1042.49 378.334 C 1042.919 378.334 1043.295 378.379 1043.617 378.468 C 1043.939 378.558 1044.216 378.719 1044.449 378.952 C 1044.682 379.184 1044.888 379.484 1045.067 379.851 C 1045.246 380.218 1045.442 380.687 1045.657 381.259 L 1052.232 400.018 C 1052.643 401.181 1053.05 402.343 1053.453 403.506 C 1053.856 404.669 1054.254 405.841 1054.647 407.022 L 1054.701 407.022 C 1054.951 405.555 1055.224 404.034 1055.519 402.46 C 1055.814 400.885 1056.105 399.365 1056.391 397.898 L 1060.175 379.086 C 1060.211 378.943 1060.274 378.822 1060.363 378.723 C 1060.452 378.625 1060.587 378.54 1060.766 378.468 C 1060.945 378.397 1061.173 378.343 1061.45 378.307 C 1061.727 378.272 1062.081 378.254 1062.51 378.254 C 1062.921 378.254 1063.266 378.272 1063.543 378.307 C 1063.82 378.343 1064.035 378.397 1064.187 378.468 C 1064.339 378.54 1064.442 378.625 1064.496 378.723 C 1064.549 378.822 1064.567 378.943 1064.549 379.086 L 1058.109 411.155 Z M 1092.754 379.22 C 1092.754 379.309 1092.749 379.448 1092.74 379.636 C 1092.731 379.824 1092.705 380.025 1092.66 380.24 C 1092.615 380.455 1092.562 380.678 1092.499 380.911 C 1092.436 381.143 1092.351 381.353 1092.244 381.541 C 1092.137 381.729 1092.007 381.881 1091.855 381.997 C 1091.703 382.114 1091.537 382.172 1091.358 382.172 L 1077.806 382.172 L 1075.606 393.067 L 1087.279 393.067 C 1087.494 393.067 1087.655 393.139 1087.762 393.282 C 1087.869 393.425 1087.923 393.64 1087.923 393.926 C 1087.923 394.015 1087.91 394.154 1087.883 394.342 C 1087.856 394.53 1087.825 394.736 1087.789 394.959 C 1087.753 395.183 1087.699 395.402 1087.628 395.617 C 1087.557 395.832 1087.472 396.024 1087.373 396.194 C 1087.274 396.364 1087.154 396.507 1087.011 396.623 C 1086.868 396.739 1086.707 396.797 1086.528 396.797 L 1074.881 396.797 L 1072.358 409.222 L 1086.179 409.222 C 1086.358 409.222 1086.505 409.294 1086.622 409.437 C 1086.738 409.58 1086.796 409.804 1086.796 410.108 C 1086.796 410.215 1086.787 410.367 1086.769 410.564 C 1086.751 410.761 1086.72 410.966 1086.675 411.181 C 1086.63 411.396 1086.577 411.616 1086.514 411.839 C 1086.451 412.062 1086.366 412.268 1086.259 412.456 C 1086.152 412.644 1086.022 412.792 1085.87 412.899 C 1085.718 413.006 1085.553 413.06 1085.374 413.06 L 1068.682 413.06 C 1068.485 413.06 1068.293 413.029 1068.105 412.966 C 1067.917 412.903 1067.756 412.796 1067.622 412.644 C 1067.488 412.492 1067.394 412.295 1067.34 412.054 C 1067.287 411.812 1067.305 411.521 1067.394 411.181 L 1073.593 380.213 C 1073.718 379.515 1073.996 379.027 1074.425 378.75 C 1074.854 378.473 1075.275 378.334 1075.686 378.334 L 1092.136 378.334 C 1092.548 378.334 1092.754 378.629 1092.754 379.22 Z M 1122.284 379.274 C 1122.284 379.381 1122.28 379.529 1122.271 379.716 C 1122.262 379.904 1122.235 380.105 1122.19 380.32 C 1122.145 380.535 1122.087 380.763 1122.016 381.004 C 1121.944 381.246 1121.854 381.456 1121.747 381.635 C 1121.64 381.814 1121.51 381.961 1121.358 382.078 C 1121.206 382.194 1121.041 382.252 1120.862 382.252 L 1111.094 382.252 L 1105.055 412.362 C 1105.02 412.505 1104.953 412.631 1104.854 412.738 C 1104.756 412.845 1104.613 412.93 1104.425 412.993 C 1104.237 413.056 1103.991 413.109 1103.687 413.154 C 1103.383 413.199 1103.007 413.221 1102.56 413.221 C 1102.113 413.221 1101.746 413.199 1101.459 413.154 C 1101.173 413.109 1100.95 413.056 1100.789 412.993 C 1100.628 412.93 1100.52 412.845 1100.467 412.738 C 1100.413 412.631 1100.404 412.505 1100.44 412.362 L 1106.451 382.252 L 1096.736 382.252 C 1096.486 382.252 1096.316 382.172 1096.226 382.011 C 1096.137 381.85 1096.092 381.626 1096.092 381.34 C 1096.092 381.215 1096.106 381.058 1096.133 380.87 C 1096.16 380.683 1096.195 380.473 1096.24 380.24 C 1096.285 380.007 1096.343 379.784 1096.414 379.569 C 1096.486 379.354 1096.576 379.153 1096.683 378.965 C 1096.79 378.777 1096.911 378.625 1097.045 378.509 C 1097.179 378.392 1097.336 378.334 1097.515 378.334 L 1121.667 378.334 C 1121.9 378.334 1122.061 378.419 1122.15 378.589 C 1122.239 378.759 1122.284 378.987 1122.284 379.274 Z M 1154.042 412.067 C 1153.935 412.318 1153.796 412.519 1153.626 412.671 C 1153.456 412.823 1153.237 412.939 1152.968 413.02 C 1152.7 413.101 1152.378 413.154 1152.002 413.181 C 1151.627 413.208 1151.179 413.221 1150.66 413.221 C 1150.105 413.221 1149.64 413.208 1149.265 413.181 C 1148.889 413.154 1148.585 413.101 1148.352 413.02 C 1148.12 412.939 1147.95 412.827 1147.843 412.684 C 1147.735 412.541 1147.672 412.354 1147.655 412.121 L 1145.588 385.822 L 1145.535 385.822 L 1133.673 412.067 C 1133.584 412.318 1133.454 412.519 1133.284 412.671 C 1133.114 412.823 1132.913 412.939 1132.68 413.02 C 1132.447 413.101 1132.139 413.154 1131.754 413.181 C 1131.369 413.208 1130.9 413.221 1130.345 413.221 C 1129.737 413.221 1129.236 413.208 1128.843 413.181 C 1128.449 413.154 1128.131 413.101 1127.89 413.02 C 1127.649 412.939 1127.474 412.818 1127.367 412.657 C 1127.26 412.496 1127.197 412.291 1127.179 412.04 L 1124.415 379.864 C 1124.379 379.506 1124.374 379.211 1124.401 378.978 C 1124.428 378.745 1124.518 378.571 1124.67 378.455 C 1124.822 378.339 1125.054 378.263 1125.367 378.227 C 1125.68 378.191 1126.123 378.173 1126.696 378.173 C 1127.143 378.173 1127.55 378.191 1127.917 378.227 C 1128.284 378.263 1128.547 378.326 1128.708 378.415 C 1128.869 378.504 1128.977 378.63 1129.031 378.791 C 1129.084 378.952 1129.111 379.157 1129.111 379.408 L 1131.043 408.23 L 1131.097 408.23 L 1144.354 379.193 C 1144.443 378.996 1144.546 378.831 1144.662 378.697 C 1144.779 378.562 1144.935 378.459 1145.132 378.388 C 1145.329 378.317 1145.593 378.263 1145.924 378.227 C 1146.255 378.191 1146.697 378.173 1147.252 378.173 C 1147.735 378.173 1148.12 378.187 1148.406 378.214 C 1148.692 378.241 1148.916 378.294 1149.077 378.375 C 1149.238 378.455 1149.341 378.562 1149.386 378.697 C 1149.431 378.831 1149.462 378.996 1149.479 379.193 L 1151.68 408.23 L 1151.734 408.23 L 1165.205 379.086 C 1165.277 378.907 1165.367 378.759 1165.474 378.643 C 1165.581 378.526 1165.738 378.432 1165.943 378.361 C 1166.149 378.29 1166.417 378.241 1166.748 378.214 C 1167.079 378.187 1167.495 378.173 1167.996 378.173 C 1168.515 378.173 1168.927 378.195 1169.231 378.24 C 1169.535 378.285 1169.75 378.37 1169.875 378.495 C 1170 378.62 1170.036 378.804 1169.982 379.045 C 1169.929 379.287 1169.821 379.605 1169.66 379.998 L 1154.042 412.067 Z M 1201.791 389.981 C 1201.791 391.358 1201.666 392.897 1201.415 394.597 C 1201.165 396.296 1200.745 398.023 1200.154 399.776 C 1199.563 401.529 1198.781 403.233 1197.806 404.888 C 1196.831 406.543 1195.627 408.011 1194.196 409.29 C 1192.765 410.569 1191.066 411.602 1189.098 412.389 C 1187.13 413.176 1184.876 413.57 1182.335 413.57 C 1180.296 413.57 1178.507 413.315 1176.968 412.805 C 1175.429 412.295 1174.146 411.535 1173.117 410.524 C 1172.088 409.513 1171.315 408.265 1170.796 406.78 C 1170.277 405.295 1170.017 403.578 1170.017 401.628 C 1170.017 400.089 1170.151 398.434 1170.42 396.663 C 1170.688 394.892 1171.131 393.125 1171.748 391.363 C 1172.365 389.601 1173.17 387.906 1174.163 386.278 C 1175.156 384.65 1176.373 383.205 1177.813 381.944 C 1179.253 380.683 1180.939 379.681 1182.872 378.938 C 1184.804 378.195 1187.022 377.824 1189.527 377.824 C 1191.548 377.824 1193.324 378.088 1194.854 378.616 C 1196.383 379.144 1197.662 379.922 1198.691 380.951 C 1199.72 381.98 1200.494 383.25 1201.013 384.762 C 1201.532 386.273 1201.791 388.013 1201.791 389.981 Z M 1196.853 390.303 C 1196.853 389.051 1196.71 387.902 1196.424 386.855 C 1196.137 385.808 1195.681 384.909 1195.055 384.158 C 1194.429 383.407 1193.597 382.821 1192.559 382.4 C 1191.522 381.979 1190.269 381.769 1188.802 381.769 C 1186.942 381.769 1185.31 382.113 1183.905 382.802 C 1182.5 383.491 1181.284 384.39 1180.255 385.499 C 1179.226 386.608 1178.377 387.865 1177.706 389.27 C 1177.035 390.675 1176.498 392.092 1176.096 393.523 C 1175.693 394.954 1175.407 396.341 1175.237 397.683 C 1175.067 399.025 1174.982 400.188 1174.982 401.172 C 1174.982 402.442 1175.121 403.591 1175.398 404.62 C 1175.675 405.649 1176.136 406.53 1176.78 407.263 C 1177.424 407.997 1178.26 408.565 1179.289 408.968 C 1180.318 409.37 1181.575 409.571 1183.06 409.571 C 1184.903 409.571 1186.522 409.236 1187.917 408.565 C 1189.312 407.894 1190.52 407.013 1191.54 405.922 C 1192.559 404.831 1193.409 403.592 1194.089 402.205 C 1194.769 400.818 1195.315 399.414 1195.726 397.992 C 1196.137 396.569 1196.428 395.187 1196.598 393.845 C 1196.768 392.504 1196.853 391.323 1196.853 390.303 Z M 1231.402 385.607 C 1231.402 386.842 1231.227 388.013 1230.878 389.122 C 1230.529 390.231 1230.002 391.251 1229.295 392.182 C 1228.588 393.112 1227.703 393.939 1226.638 394.664 C 1225.574 395.389 1224.335 395.975 1222.922 396.422 C 1223.87 396.762 1224.639 397.478 1225.229 398.569 C 1225.82 399.66 1226.276 401.1 1226.598 402.889 L 1228.02 410.564 C 1228.074 410.904 1228.123 411.222 1228.168 411.517 C 1228.213 411.812 1228.235 412.076 1228.235 412.309 C 1228.235 412.47 1228.19 412.608 1228.101 412.725 C 1228.012 412.841 1227.869 412.935 1227.672 413.006 C 1227.475 413.078 1227.202 413.132 1226.853 413.167 C 1226.504 413.203 1226.079 413.221 1225.578 413.221 C 1225.113 413.221 1224.738 413.203 1224.451 413.167 C 1224.165 413.132 1223.946 413.069 1223.794 412.979 C 1223.642 412.89 1223.535 412.778 1223.472 412.644 C 1223.409 412.51 1223.36 412.327 1223.324 412.094 L 1221.956 403.936 C 1221.813 402.987 1221.611 402.129 1221.352 401.36 C 1221.093 400.591 1220.73 399.924 1220.265 399.36 C 1219.8 398.797 1219.205 398.358 1218.48 398.045 C 1217.755 397.732 1216.874 397.576 1215.837 397.576 L 1212.751 397.576 L 1209.772 412.389 C 1209.736 412.514 1209.673 412.631 1209.584 412.738 C 1209.495 412.845 1209.352 412.93 1209.155 412.993 C 1208.958 413.056 1208.708 413.109 1208.403 413.154 C 1208.099 413.199 1207.723 413.221 1207.276 413.221 C 1206.865 413.221 1206.511 413.203 1206.216 413.167 C 1205.921 413.132 1205.693 413.083 1205.532 413.02 C 1205.371 412.957 1205.259 412.872 1205.196 412.765 C 1205.134 412.658 1205.121 412.532 1205.156 412.389 L 1211.597 380.213 C 1211.74 379.515 1212.027 379.027 1212.456 378.75 C 1212.885 378.473 1213.359 378.334 1213.878 378.334 L 1221.419 378.334 C 1223.065 378.334 1224.51 378.495 1225.753 378.817 C 1226.996 379.139 1228.038 379.609 1228.879 380.226 C 1229.72 380.843 1230.35 381.604 1230.771 382.507 C 1231.192 383.411 1231.402 384.444 1231.402 385.607 Z M 1226.41 386.331 C 1226.41 385.723 1226.303 385.16 1226.088 384.641 C 1225.873 384.122 1225.538 383.675 1225.082 383.299 C 1224.626 382.923 1224.027 382.637 1223.284 382.44 C 1222.541 382.243 1221.66 382.145 1220.641 382.145 L 1215.837 382.145 L 1213.475 393.845 L 1217.554 393.845 C 1219.147 393.845 1220.502 393.63 1221.62 393.201 C 1222.738 392.772 1223.65 392.204 1224.357 391.497 C 1225.064 390.79 1225.583 389.99 1225.914 389.096 C 1226.245 388.201 1226.41 387.28 1226.41 386.331 Z M 1263.633 379.059 C 1263.633 379.292 1263.539 379.542 1263.351 379.81 C 1263.164 380.079 1262.873 380.401 1262.479 380.776 L 1248.068 394.838 L 1257.166 411.02 C 1257.327 411.325 1257.438 411.571 1257.501 411.758 C 1257.564 411.946 1257.595 412.112 1257.595 412.255 C 1257.595 412.416 1257.559 412.559 1257.488 412.684 C 1257.416 412.809 1257.295 412.908 1257.125 412.979 C 1256.956 413.051 1256.714 413.109 1256.401 413.154 C 1256.088 413.199 1255.69 413.221 1255.207 413.221 C 1254.706 413.221 1254.299 413.203 1253.986 413.167 C 1253.673 413.132 1253.422 413.083 1253.234 413.02 C 1253.046 412.957 1252.903 412.868 1252.805 412.751 C 1252.706 412.635 1252.621 412.496 1252.55 412.335 L 1243.05 394.999 L 1239.615 412.362 C 1239.597 412.505 1239.539 412.631 1239.441 412.738 C 1239.342 412.845 1239.195 412.93 1238.998 412.993 C 1238.801 413.056 1238.551 413.109 1238.246 413.154 C 1237.942 413.199 1237.575 413.221 1237.146 413.221 C 1236.699 413.221 1236.327 413.199 1236.032 413.154 C 1235.737 413.109 1235.509 413.056 1235.348 412.993 C 1235.187 412.93 1235.08 412.845 1235.026 412.738 C 1234.973 412.631 1234.964 412.505 1234.999 412.362 L 1241.655 379.005 C 1241.672 378.88 1241.735 378.763 1241.842 378.656 C 1241.949 378.549 1242.102 378.464 1242.299 378.401 C 1242.496 378.338 1242.746 378.285 1243.05 378.24 C 1243.354 378.195 1243.721 378.173 1244.15 378.173 C 1244.579 378.173 1244.942 378.195 1245.237 378.24 C 1245.532 378.285 1245.76 378.338 1245.921 378.401 C 1246.082 378.464 1246.19 378.549 1246.243 378.656 C 1246.297 378.763 1246.315 378.88 1246.297 379.005 L 1243.211 394.463 L 1258.4 379.059 C 1258.543 378.898 1258.7 378.759 1258.87 378.643 C 1259.04 378.526 1259.237 378.437 1259.46 378.375 C 1259.684 378.312 1259.957 378.263 1260.279 378.227 C 1260.601 378.191 1260.977 378.173 1261.406 378.173 C 1261.871 378.173 1262.247 378.195 1262.533 378.24 C 1262.819 378.285 1263.043 378.343 1263.204 378.415 C 1263.365 378.486 1263.476 378.576 1263.539 378.683 C 1263.602 378.79 1263.633 378.916 1263.633 379.059 Z" style="fill: rgb(77, 77, 77);">
      <title>Lightning Network</title>
    </path>
  </g>
  <g transform="matrix(4.112993240356445, 0, 0, 4.112993240356445, -1296.2269287109375, -1412.984375)" style="">
    <path d="M 382.97 438.299 C 382.338 437.986 387.525 430.518 393.093 422.658 C 398.661 414.798 402.256 409.358 403.989 407.092 C 405.722 404.826 405.996 404.422 405.144 401.596 C 404.292 398.77 404.252 398.369 403.269 396.017 C 400.663 389.777 396.716 384.59 391.929 380.576 C 387.142 376.562 381.514 373.72 375.545 372.167 C 369.576 370.615 363.266 370.352 357.114 371.496 C 350.962 372.64 344.969 375.191 339.632 379.267 C 332.316 384.856 327.738 391.974 325.539 399.579 C 323.341 407.183 323.522 415.273 325.726 422.806 C 327.93 430.339 332.157 437.314 338.049 442.688 C 343.942 448.062 351.5 451.835 360.365 452.963 C 362.59 453.246 364.854 453.325 367.119 453.212 C 369.383 453.098 371.648 452.791 373.872 452.302 C 376.097 451.813 378.282 451.142 380.387 450.299 C 382.492 449.456 384.478 448.373 386.423 447.265 C 389.94 445.261 392.933 440.819 392.729 440.669 C 392.314 440.365 386.35 439.973 382.97 438.299 Z" fill="#f7931a">
      <title>B ball Zapped</title>
    </path>
    <path d="M 404.472 410.561 C 404.472 410.561 407.11 405.808 406.308 411.495 C 406.167 412.496 404.85 418.437 402.114 429.299 L 402.093 429.697 C 402.093 429.702 402.183 429.712 402.373 429.723 L 409.547 430.17 C 409.98 430.196 410.327 430.54 410.589 431.197 L 410.55 431.781 L 390.363 457.991 C 387.504 462.045 388.857 457.28 388.896 456.584 C 392.373 446.162 394.452 440.257 395.139 438.886 C 395.139 438.886 386.356 437.723 386.405 436.982 L 386.405 436.849 C 386.434 436.506 388.661 433.228 393.102 427.021 C 399.806 417.268 397.962 420.327 404.472 410.561 Z" style="fill: rgb(247, 147, 26); fill-opacity: 1;">
      <title>Lightning bolt</title>
    </path>
    <path fill="#FAFAFA" d="M 383.189 407.23 C 383.958 402.086 380.042 399.319 374.685 397.478 L 376.427 390.51 L 372.183 389.452 L 370.493 396.234 C 369.377 395.959 368.231 395.697 367.094 395.438 L 368.797 388.604 L 364.56 387.553 L 362.821 394.511 C 361.898 394.305 360.991 394.099 360.113 393.879 L 360.116 393.857 L 354.268 392.399 L 353.141 396.928 C 353.141 396.928 356.285 397.649 356.219 397.694 C 357.939 398.12 358.25 399.256 358.197 400.16 L 353.436 419.248 C 353.23 419.768 352.696 420.551 351.491 420.253 C 351.537 420.315 348.41 419.487 348.41 419.487 L 346.304 424.34 L 351.822 425.715 C 352.85 425.97 353.859 426.242 354.851 426.494 L 353.092 433.541 L 357.33 434.599 L 359.065 427.627 C 360.224 427.938 361.347 428.23 362.448 428.502 L 360.715 435.447 L 364.956 436.498 L 366.711 429.468 C 373.941 430.833 379.381 430.283 381.673 423.74 C 383.513 418.478 381.581 415.436 377.773 413.455 C 380.543 412.816 382.632 410.992 383.189 407.23 Z M 373.499 420.816 C 372.186 426.085 363.319 423.239 360.444 422.525 L 362.775 413.186 C 365.65 413.903 374.871 415.321 373.499 420.816 Z M 374.809 407.151 C 373.614 411.945 366.236 409.509 363.839 408.913 L 365.952 400.445 C 368.345 401.041 376.057 402.154 374.809 407.151 Z" style="">
      <title>BTC</title>
    </path>
  </g>
</svg>